<svg height='100px' width='100px'  fill="#000000" xmlns="http://www.w3.org/2000/svg" xmlns:xlink="http://www.w3.org/1999/xlink" version="1.1" x="0px" y="0px" viewBox="0 0 95 95" enable-background="new 0 0 95 95" xml:space="preserve"><path d="M31.795,61.756c0.575-1.146,0.288-2.012-0.854-2.583c-2.583-1.433-7.745-4.587-15.488-9.465  c8.462,0.287,19.145,0.287,32.049,0c22.373-0.715,35.278-1.078,38.717-1.078c1.292,0,1.936-0.646,1.936-1.936  c0-1.286-0.644-1.936-1.936-1.936c-3.585,0-16.487,0.363-38.717,1.078c-13.335,0.287-24.305,0.287-32.911,0l4.734-3.226  c4.156-2.583,7.31-4.875,9.464-6.882c0.999-1.005,1.035-1.972,0.108-2.906c-0.938-0.93-1.828-0.966-2.69-0.107  c-2.011,2.008-5.021,4.231-9.034,6.67c-4.303,2.866-7.238,4.874-8.819,6.023c-1.002,0.287-1.508,0.858-1.508,1.721v0.427  c0,0.428,0.146,0.791,0.431,1.074c0.145,0.434,0.36,0.793,0.646,1.078c1.434,0.718,4.624,2.655,9.573,5.806  c4.946,3.16,8.851,5.527,11.724,7.104C30.363,63.189,31.224,62.906,31.795,61.756z"></path></svg>