<svg height='100px' width='100px'  fill="#000000" xmlns="http://www.w3.org/2000/svg" xmlns:xlink="http://www.w3.org/1999/xlink" version="1.1" x="0px" y="0px" viewBox="0 0 100 100" style="enable-background:new 0 0 100 100;" xml:space="preserve"><path d="M80.4,37.2l0,40.6c0,1.4-1.1,2.5-2.5,2.5l-40.6,0c-0.5,0-0.9-0.4-0.9-0.9v-6.2c0-0.5,0.4-0.9,0.9-0.9l27.3,0  c0.8,0,1.2-0.9,0.6-1.5L19.9,25.6c-0.3-0.3-0.3-0.9,0-1.2l4.4-4.4c0.3-0.3,0.9-0.3,1.2,0l45.3,45.3c0.6,0.6,1.5,0.2,1.5-0.6l0-27.3  c0-0.5,0.4-0.9,0.9-0.9h6.2C80,36.4,80.4,36.8,80.4,37.2z"></path></svg>