<svg xmlns="http://www.w3.org/2000/svg" xmlns:xlink="http://www.w3.org/1999/xlink" version="1.1" x="0px" y="0px" viewBox="0 0 95 95" enable-background="new 0 0 95 95" xml:space="preserve"><path d="M81.882,17.95c0.102-1.013-0.306-1.522-1.22-1.522c-0.713-0.102-1.22,0.204-1.525,0.912l-0.152,0.153  c-3.761,4.17-7.622,7.576-11.586,10.219c-0.814,0.509-0.968,1.168-0.457,1.979c0.507,0.816,1.167,0.969,1.981,0.458  c2.744-1.831,5.489-4.063,8.233-6.708c-2.136,6.812-5.285,12.098-9.452,15.855c-5.591,4.88-12.452,6.558-20.584,5.033  c-2.133-0.405-3.912-0.814-5.336-1.22c0.204-0.812,0.355-1.624,0.459-2.441c1.218-7.213,0.709-12.806-1.525-16.77  c-0.914-1.625-1.729-2.745-2.44-3.353c-1.321-1.321-2.896-1.833-4.726-1.525c-2.439,0.407-4.116,1.729-5.031,3.961  c-0.814,1.629-1.066,3.714-0.761,6.252c0.201,2.238,0.761,4.42,1.676,6.556c0.915,2.133,1.929,3.762,3.049,4.878  c1.83,1.731,3.812,3.103,5.947,4.117c-1.221,4.982-3.05,9.757-5.489,14.332c-3.456,6.505-7.267,11.184-11.434,14.025  c-4.372,3.05-8.488,3.408-12.35,1.069c-0.812-0.51-1.472-0.356-1.982,0.455c-0.506,0.814-0.355,1.475,0.457,1.981  c4.88,2.947,10.011,2.543,15.398-1.218c4.575-3.05,8.692-8.029,12.35-14.941c2.538-4.677,4.472-9.555,5.794-14.635  c1.422,0.405,3.2,0.814,5.335,1.219c9.147,1.625,16.821-0.254,23.022-5.641c4.472-3.862,7.827-9.3,10.062-16.314  c0.913,3.864,2.896,7.37,5.946,10.52c0.708,0.611,1.396,0.588,2.058-0.076c0.659-0.66,0.687-1.345,0.076-2.057  C83.407,29.233,81.475,24.05,81.882,17.95z M39.499,40.211c-0.103,0.611-0.206,1.171-0.304,1.675  c-1.731-0.81-3.255-1.927-4.575-3.353c-0.914-0.812-1.779-2.136-2.592-3.961c-0.814-1.833-1.322-3.711-1.524-5.644  c-0.204-2.031-0.053-3.658,0.458-4.878c0.609-1.222,1.677-1.983,3.201-2.286c0.812-0.102,1.525,0.15,2.134,0.761  c0.508,0.509,1.167,1.477,1.981,2.897C40.208,28.676,40.617,33.604,39.499,40.211z" fill="none" stroke="var(--grey-dark)" stroke-linecap="round" stroke-linejoin="round" stroke-width="10"></path></svg>
