<svg height='100px' width='100px'  fill="#000000" xmlns="http://www.w3.org/2000/svg" xmlns:xlink="http://www.w3.org/1999/xlink" version="1.1" x="0px" y="0px" viewBox="0 0 100 100" style="enable-background:new 0 0 100 100;" xml:space="preserve"><path d="M10.5,47.1c-2.5-2.5-2.4-5.4-1.9-8.5c0.3-2,0.9-3.9,1.9-5.6c0.5-0.8,1.1-1.3,2.1-1.2c2,0.1,4-0.4,5.9-0.5  c2.3-0.1,4.5-0.4,6.7-0.7c1.3-0.2,2.5-0.3,3.8-0.6c0.7-0.1,0.9-0.5,1-1.1c0-0.3,0.1-0.5,0.2-0.7c0.6-2.2,1.7-3.7,4-4.5  c5.2-1.8,10.3-3.8,15.5-5.8c1.6-0.6,3.1-1.3,4.6-2c0.7-0.3,1.2-0.2,1.7,0.4c2.7,3.3,6.1,6,9.2,8.9c2.2,2,4.5,4,6.7,6.1  c0.1,0.1,0.2,0.2,0.4,0.3c0.3,0.3,1.1,0,1.1,0.6c0,0.4-0.3,0.8-0.4,1.3c-0.1,0.4-0.2,0.8-0.3,1.2c-0.2,2.4,0.3,3,2.4,3.5  c0.1,0,0.2,0,0.3,0c1.5,0.3,1.5,0.3,1.1,2c3,1.5,6,3.1,9,4.6c2.4,1.2,4.8,2.3,7.1,3.6c1.1,0.6,1.2,0.9,0.4,1.9  c-0.6,0.8-1.1,1.7-1.5,2.7c-1.2,3.5-0.2,6.4,2.3,8.9c1.3,1.3,1.3,1.2,0.2,2.6c-0.7,0.8-1,1.9-1.2,2.9c-0.4,2.3-0.1,4.3,1.4,6.2  c0.7,0.8,1.4,1.5,1.8,2.5c0.5,1,0.3,1.3-0.8,1.4c-1.9,0.1-3.8,0.5-5.8,0.8c-3.5,0.5-7.1,1.2-10.6,1.7c-5.7,0.9-11.3,1.8-16.9,2.8  c-4,0.7-8.1,1.3-12.1,1.9c-0.7,0.1-1.3,0.3-1.9,0.5c-1.7,0.4-3.3,0.2-4.7-0.8c-3.4-2.3-7.1-4.1-10.5-6.3c-5-3.2-10.2-6.1-15.2-9.2  c-3.9-2.4-7.9-4.6-11.9-6.9C4.6,61.5,4,61,4,59.7c0.1-1.7-0.6-3.3-0.5-5c0-1,0.2-2,0.8-2.9c0.4-0.6,0.5-1.3,0.8-2  c0.6-1.6,1.5-2.5,3.3-2.4C9.1,47.5,9.8,47.5,10.5,47.1z M80.6,76.9c0.7-0.3,1.4-0.2,2.2-0.3c1-0.4,2.1-0.4,3.1-0.5  c1.9-0.1,3.7-0.5,5.6-0.9c-0.1-0.4-0.3-0.4-0.5-0.4c-2.7,0.2-5.3,0.9-8,1.3c-0.1,0-0.1,0.3-0.2,0.4C82,76.4,81.2,76,80.6,76.9  c-0.5-0.1-0.9-0.2-1.4-0.1C79.7,77.1,80.2,76.8,80.6,76.9z M41.1,64.6c-0.2,1.7,0,2.6,1.1,3.4C41.7,66.9,41.7,65.7,41.1,64.6  c0.1-1.9,0.4-3.7,1-5.5c-0.5,1-1.1,1.9-1.3,3C40.7,62.8,40.4,63.8,41.1,64.6z M64.7,42.8c0.1,0.6,0.5,0.3,0.8,0.2  c1.1-0.4,2.2-0.9,3.2-1.3c1.6-0.6,3-1.9,4.9-1.8c0.2,0,0.4-0.1,0.5-0.3c0.1-0.3-0.2-0.3-0.3-0.4c-0.4-0.2-0.7-0.5-1.1-0.3  c-2.3,0.9-4.7,1.6-6.9,2.8c-0.3,0.2-0.8,0.2-0.8,0.8c-0.6-0.4-0.9,0.1-1.3,0.4c-0.4-0.2-0.7-0.3-1.1-0.2c0.2-0.3,0.6-0.4,0.9-0.6  c2.7-1.1,5.3-2.2,8-3.3c0.3-0.1,0.8,0,0.7-0.6c-0.1-0.6-0.5-0.7-1-0.6c-0.4,0.1-0.8,0.3-1.2,0.3c-0.4,0.1-0.8,0.5-1.3,0.3l0,0  c0-0.2,0.5-0.2,0.3-0.6c-0.8-0.1-1.6,0.2-2.4,0.5c-3.6,1.4-7.2,2.8-10.7,4.5c-1.8,0.9-3.7,1.5-5.4,2.6c-0.3,0.2-0.7,0.4-0.6,0.9  c1.7-0.4,3-1.3,4.6-1.8c1.4-0.4,2.7-0.9,4-1.6c0.4-0.2,0.8-0.4,1.3-0.1l0,0c-0.4,0.4-0.8,0.5-1.3,0.7c-2.2,0.9-4.4,1.8-6.6,2.7  c-0.7,0.3-0.7,0.3-1.3,1.1c0.3,0,0.5,0,0.6-0.1c2.7-1.4,5.6-2.1,8.3-3.4c0.4-0.2,0.8-0.2,1.2-0.2c0.1,0.9-0.7,1-1.2,1.2  c-1.6,0.7-3.3,1.2-5,1.9c-1.3,0.5-2.6,1.1-3.6,2.1c1.2-0.3,2.4-0.8,3.6-0.9c-0.9,0.5-1.8,1.1-3,1.8c2.1-0.5,9.7-3.8,10.5-4.6  c-0.6-0.1-1,0.3-1.4,0.4c-1.8,0.6-3.5,1.6-5.4,2c2.2-1.2,4.6-2.2,7-3.1c0.8-0.3,1.4-0.7,1.5-1.6C64,43,64.4,42.9,64.7,42.8z   M65.2,68.6c-0.7,0.1-1.3,0.1-2,0.2c-5,0.6-9.9,1.4-14.8,2.3c-0.8,0.1-1.2,0.5-1.3,1.3c0.6,0.2,1.2,0,1.8-0.1c1.6-0.2,3-0.9,4.6-1.2  c3.1-0.6,6.1-1.1,9.2-1.8C63.5,69.1,64.5,69.4,65.2,68.6c0.5,0.1,1.1,0.2,1.8,0C66.2,68.2,65.7,68.5,65.2,68.6z M54.1,41.5  L54.1,41.5c0.2,0.6-0.4,0.7-0.8,0.9c-0.9,0.5-1.7,0.8-2.6,1.3c-0.3,0.1-0.5,0.3-0.3,0.7c0.1,0,0.2,0.1,0.3,0  c4.2-1.9,8.5-3.7,12.7-5.6c1-0.4,1.9-1,2.9-1.4c0.9-0.3,0.8-1.2,1.2-1.8c0.1-0.2-0.1-0.4-0.4-0.3c-0.3,0.1-0.7,0.2-1,0.3  c-2.2,1.1-4.5,2-6.7,2.9c-2.4,1-4.9,2.1-7.3,3.1c-0.5,0.2-1,0.5-1.2,1.1c0.2,0.1,0.4,0.2,0.5,0.1C52.3,42.5,53.2,42,54.1,41.5z   M48.2,74.5c-0.5,0.6-1.5,0.3-2.1,0.8c-0.3,0.3-0.5,0.5-1,0.2c-0.3-0.2-0.5,0.1-0.6,0.4c-0.1,0.3,0.2,0.5,0.4,0.5c0.2,0,0.4,0,0.6,0  c1.4-0.5,2.8-0.6,4.2-0.8c1.9-0.3,3.8-1,5.8-0.9c-1.2,0.3-2.3,0.5-3.5,0.8c-2.2,0.5-4.5,1-6.7,1.5c-0.5,0.1-1,0.2-0.9,1  c1.6-0.7,3.2-0.8,4.8-1.1c3-0.5,6-1.2,9-1.6c6-0.8,11.9-1.8,17.9-2.7c4.6-0.7,9.2-1.7,13.9-2.2c1.2-0.1,1.4-0.5,1.3-1.7  c0-0.5-0.3-0.8-0.8-0.7c-2,0.3-4,0.3-5.9,0.6c-5.4,0.9-10.7,2.2-16.1,3.1c-2,0.3-4,0.4-5.9,1.3c0.3,0,0.5,0,0.7,0  c4.3-0.7,8.6-1,12.9-1.8c4.4-0.8,8.8-1.1,13.2-2.1c0.5-0.1,1.1-0.2,1.6,0.5c-1.6-0.1-3,0.4-4.4,0.6c-6.2,0.9-12.4,1.7-18.7,2.6  c-4.1,0.6-8.3,1.2-12.4,1.8c1-0.6,2.4-0.5,3.6-1.2c-1.9,0.2-3.6,0.5-5.2,0.7C52,74.3,50.1,74.7,48.2,74.5c0.9-0.4,1.9-0.3,2.9-0.5  c4.7-0.7,9.4-1.3,14-2.3c2.8-0.7,5.7-0.9,8.6-1.5c5.6-1.1,11.1-2.7,16.9-2.8c1,0,1.2-0.3,1.3-1.5c-3.3,0.8-6.6,1.3-9.9,1.8  c-3.6,0.6-7.2,1.4-10.8,2c-4.5,0.8-9,1.7-13.5,2.5c-2.3,0.4-4.6,1-6.9,1.2c-1.2,0.1-2.4,0.1-3.5,0.9C47.6,74.6,47.9,74.5,48.2,74.5z   M41.7,36.2c0.3,0,0.5-0.5,0.8-0.2c0.4,0.3,0.1,0.7-0.1,0.9c-1,1.3-0.7,2.9-1.2,4.4c-0.1,0.3,0.1,0.5,0.2,0.7c0.3,1.1,1.3,1.5,2,2.2  c1.5,1.4,3.2,2.5,4.8,3.8c0.3-0.8,0.2-1.4,0-2c-0.1-0.2-0.5-0.2-0.5-0.6c0-1.5,0-3,1.2-4.2c-0.1,1.3-1.2,2.5-0.5,4.1  c0.6-1,0.5-2.1,1.1-3c0.6-0.9,0.6-1-0.3-1.7c-1-0.9-2.1-1.8-3.1-2.7c-1.9-1.8-4-3.3-6.3-5c-0.5,2.2-1.3,4.2-1.3,6.4  c0,1.3,1.1,2.3,2.7,2.7c-0.3-0.7,0.1-1.5-0.8-1.9c-0.3-0.1-0.2-0.6-0.2-0.9c0.2-1.1,0.4-2.2,0.6-3.3c0.1-0.5,0.4-0.9,1-0.8  C41.9,35.4,41.5,35.7,41.7,36.2c-0.9,0.7-0.6,1.7-0.8,2.7C41.4,38,41.4,37,41.7,36.2z M71.4,54c0.5-0.5,1.3-0.3,1.8-0.8  c-0.2-0.2-0.5-0.4-0.7-0.3c-1.5,0.5-3,0.5-4.5,0.7c-2.6,0.4-5.3,0.7-7.9,1.1c-2,0.3-4,0.2-5.9,0.5c-1.9,0.3-3.8,0.8-5.7,0.9  c-1,0.1-1.9,0.5-2.9,0.5c-0.3,0-0.5,0.2-0.5,0.5c0,0.4,0.4,0.3,0.6,0.3c0.6-0.1,1.1-0.2,1.7-0.3c2.6-0.3,5.3-0.5,7.9-0.8  c0.4,0,0.7-0.1,0.9,0.4c-0.2,0.2-0.5,0.2-0.7,0.2c-2.8,0.4-5.7,0.3-8.5,0.9c-0.7,0.2-1.4,0.3-2.1,0.3c-1-0.1-1.2,0.4-1.3,1.3  c2.2,0.1,4.2-0.1,6.2-0.5c4-0.8,8-1.6,12-2.3c0.9-0.1,1.8-0.1,2.6-0.6c0.6,0,1.1,0,1.7,0c3.8-0.4,7.5-1.5,11.3-1.9  c3.3-0.3,6.7-0.9,10-1.4c0.6-0.1,1.2-0.1,1.8-0.2c0.2,0,0.4,0.1,0.4,0.3c0,0.2-0.2,0.4-0.4,0.4c-0.1,0-0.3,0-0.5,0  c-1.6-0.2-3.2,0-4.7,0.4c-1.5,0.3-2.9,0.5-4.4,0.6c-1.2,0.1-2.3,0.2-3.5,0.4c-3.4,0.6-6.9,1.2-10.3,1.8c-3.8,0.7-7.6,1.4-11.5,2.1  c-1.7,0.3-3.3,0.7-5,0.9c-1.8,0.3-3.7,0.4-5.5,0.6c-1.2,0.1-1.2,0.2-1.5,1.8c5.6-1.2,11.2-1.6,16.8-2.5c-0.1,0.2-0.3,0.4-0.6,0.5  c-1.8,0.3-3.6,0.7-5.4,0.8c-3.3,0.1-6.5,1-9.7,1.4c-0.6,0.1-1.2,0.3-1.3,1.1c0.2,0,0.3,0.1,0.5,0.1c1.9-0.5,3.8-0.8,5.7-0.9  c4.1-0.2,8.1-1,12.1-1.7c3.4-0.6,6.8-1.5,10.2-1.8c2-0.1,3.9-0.5,5.9-0.7c2.6-0.3,5.2-0.9,7.9-1.1c1.6-0.1,3.2-0.5,4.8-0.7  c0.3,0,0.5-0.2,0.5-0.5c0-0.2-0.2-0.3-0.4-0.3c-0.3,0-0.6,0-0.9,0c-1.6-0.1-3.3,0.3-4.9,0.4c-3.9,0.3-7.8,0.8-11.7,1.5  c-4,0.7-8,1.4-11.9,2.3c-0.3,0.1-0.7,0.3-0.8-0.3c2.7-0.6,5.5-1.2,8.2-1.7C74.7,56,81.8,55,89,54.5c0.7,0,1.1-0.3,1.3-1  c0.2-0.9,0.6-1.9,0.9-2.7c-2.9,0.3-5.9,0.5-8.8,1.2c-2.4,0.6-4.9,0.9-7.4,1.3C73.8,53.5,72.7,54,71.4,54z M32.7,76.7L32.7,76.7  c0.1,0.3,0.4,0.5,0.7,0.6c1.7,1,3.3,2,5,2.9c1.4,0.7,2.6,1.7,4.1,2.2c0-0.2,0.1-0.3,0.1-0.4c0-0.2-0.1-0.4-0.1-0.6  c-1-2.7-0.4-5.3,0.7-7.8c0.2-0.5,0.7-1,0.7-1.5c-0.1-0.8-1-0.4-1.5-0.8c-0.1-0.1-0.2-0.1-0.3-0.2c-2.9-1.8-5.8-3.5-8.8-5.3  c-3.6-2.2-7.3-4.3-11-6.4c-2.8-1.6-5.6-3.3-8.4-5c-2.5-1.5-4.8-3.1-7.7-4.2c-1,1.8-1.8,3.6-1.5,5.6C4.9,56.8,5,57.6,5,58.4  c0.1,0.8,0.4,1.7,1,2.1c1,0.7,1.9,1.6,3.2,1.7c0.2,0,0.5,0,0.5,0.3c0,0.8,0.7,1,1.2,1.3c3,1.8,6,3.7,9.1,5.4  c1.2,0.7,2.4,1.5,3.8,2.1c0.1-1.6,0.3-3.2,0.4-4.7c0.2-2.3,0.5-3.6,1.3-4.3c0.2,0.2,0.1,0.4,0,0.5c-1,2.5-0.9,5.2-1.3,7.8  c-0.1,0.7,0.2,1.1,0.8,1.5c1.7,1,3.3,2.1,5,3C30.8,75.7,31.6,76.4,32.7,76.7z M90.7,49.2c-0.1-0.5-0.5-0.5-0.8-0.7  c-3-1.3-5.8-3-8.7-4.5c-1.9-1-3.7-2-5.6-2.7c-0.4-0.2-0.8-0.4-1.3-0.2c-0.8,0.4-1.6,0.7-2.4,1c-4.1,1.7-8.2,3.5-12.3,5.2  c-2.3,1-4.7,1.8-6.8,3.1c-1.1,0.6-2,0.5-2.7,0c-1.4-1.1-2.9-2-4.3-3.1c-4.7-3.8-9.4-7.6-14.2-11.4c-1.3-1-2.2-2.1-2.1-3.8  c0.1-0.7-0.2-0.9-0.9-0.8c-2.5,0.3-5,0.6-7.5,0.8c-2.5,0.2-4.9,0.8-7.5,0.8c-0.4,0-0.7,0.1-0.9,0.5c0.3,0.2,0.5,0.4,0.7,0.6  c2.1,1.6,4.2,3.1,6.3,4.6c4.4,3.1,8.8,6.3,13.2,9.5c3.2,2.3,6.5,4.6,9.8,6.9c0.5,0.4,1,0.7,1.7,0.6c1.2-0.2,2.5-0.1,3.6-0.4  c2.7-0.6,5.6-0.4,8.3-1c2.3-0.5,4.7-0.7,7.1-1.1c6.8-1.1,13.6-2,20.5-2.7C86.2,50,88.4,49.7,90.7,49.2z M70.8,32.2  c-1.1-1.7-2.7-2.8-4.1-4.1c-3.6-3.4-7.3-6.7-11.1-9.9c-0.7-0.6-1.4-0.7-2.3-0.4c-2.4,0.9-4.8,1.8-7.2,2.6c-3.9,1.4-7.6,3.2-11.6,4.3  c-0.8,0.2-0.9,0.5-0.3,1.3c0.2,0.3,0.5,0.5,0.8,0.7c1.3,1.1,2.5,2.2,3.8,3.3c1.2,1,2.6,1.9,3.8,3.1c2.5,2.5,5.4,4.5,8.1,6.8  c0.5,0.5,1,0.5,1.7,0.2c5.8-2.3,11.6-4.9,17.4-7.2C70.2,32.8,70.5,32.7,70.8,32.2z M40.4,67.8c0.1-0.3,0.1-0.4,0.1-0.5  c-1-2.5-0.7-5,0.2-7.5c0.3-0.9,0.8-1.7,1.4-2.5c0.7-0.9,0.7-0.9-0.1-1.6c-0.7-0.5-1.3-1.1-2-1.6c-2.4-1.7-4.7-3.5-7.2-5.1  c-1.4-0.9-2.9-1.7-4.2-2.8c-0.8-0.6-1.5-1.4-2.4-1.8c-1.2-0.5-2.2-1.4-3.2-2.1c-0.9-0.6-1.8-1.3-2.7-1.9c-0.8-0.5-1-0.4-1.3,0.5  c-0.1,0.4-0.2,0.8-0.3,1.2c-0.4,1.4-0.4,3-1.1,4.5c-0.1-0.7,0-1.2,0.1-1.7c0.3-1.5,0.6-3.1,1-4.6c0.1-0.6,0.1-1-0.4-1.3  c-1.4-0.7-2.5-1.8-3.7-2.7c-1.4-1-1.4-1-2.1,0.6c0,0.1-0.2,0.1-0.2,0.2c-0.1-0.8-0.2-0.9,0.2-1.5c0.3-0.6-0.1-0.7-0.4-1  c-0.4-0.3-0.7,0-0.8,0.3c-0.2,0.4-0.4,0.7-0.5,1.1c-0.2,1.2-0.4,2.4-0.7,3.6C9.6,40.8,9.7,41.9,10,43c0.2,0.6,0.4,1.1,0.4,1.8  c0,0.5,0.3,0.9,0.7,1.1c1,0.6,1.7,1.4,2.6,2.1c0.9,0.7,1.8,1.5,3,2c0.2-0.8,0.4-1.6,0.6-2.4c-0.1,1,0.4,1.9,0.2,2.8  c-0.1,0.4,0.2,0.5,0.5,0.7c3.1,2,5.9,4.4,8.8,6.6c1.7,1.3,3.4,2.5,5.1,3.7C34.6,63.6,37.4,65.7,40.4,67.8z M44.2,66.8  c0.2,0,0.5,0,0.7,0c1.6-0.1,3.1-0.4,4.7-0.4c2.7-0.1,5.4-0.3,8.1-0.8c2.2-0.4,4.4-1,6.6-1.3c2.3-0.4,4.7-0.5,7-0.9  c5.9-0.9,11.8-1.9,17.7-2.8c0.5-0.1,1.2-0.4,1.2,0.3c0,0.6-0.8,0.6-1.2,0.5c-1.6-0.3-3.2,0.2-4.7,0.4c-3.3,0.5-6.6,1.1-10,1.6  c-5.4,0.8-10.8,1.3-16.1,2.5c-2,0.5-4.1,0.9-6.2,0.9c-2.7-0.1-5.3,0.4-7.9,0.7c-0.3,0-0.8,0-0.7,0.6c0,0.6,0.5,1,1.1,0.9  c0.4-0.1,0.8-0.1,1.2-0.2c3-0.3,6-0.8,8.9-1.2c2.7-0.4,5.3-0.9,8-1.4c2.3-0.4,4.6-0.6,7-1.1c3.8-0.7,7.6-1.4,11.5-1.9  c3.6-0.5,7.1-1.5,11-1.6c-0.4-0.6-0.7-1-1-1.4c-0.1-0.2-0.3-0.4-0.6-0.3c-1,0.3-2.1,0.1-3.2,0.2c-3.1,0.4-6.3,0.7-9.4,1.1  c-5.5,0.7-11.1,1.5-16.5,2.4c-2.8,0.5-5.6,1-8.5,1.5c-1.7,0.3-3.3,0.3-5,0.5C46.6,65.8,45.4,65.9,44.2,66.8z M44.3,78.7  c0.5,0.4,0.8,0.2,1.1,0.2c2-0.1,3.9-0.6,5.9-0.8c2.6-0.2,5.3-0.4,7.9-1c4.4-1.1,8.9-1.5,13.3-2.3c6.1-1.1,12.2-2.1,18.3-2.5  c0.5,0,1,0,0.9-0.7c0-0.6-0.4-0.8-0.9-0.8c-0.8,0-1.6,0-2.4,0.2c-5.1,0.8-10.3,1.7-15.4,2.5c-5.4,0.8-10.8,1.7-16.2,2.5  c-3,0.4-6,1.1-9,1.6C46.5,77.8,45.5,78.3,44.3,78.7z M91.9,72.8c-1,0.8-1,0.9-0.1,1.4c0.7,0.4,0.2,1,0.4,1.5  c0.1,0.2-0.4,0.3-0.7,0.3c-1.5,0-3,0.5-4.5,0.6c-4.1,0.4-8.2,0.8-12.3,1.7c-3.7,0.8-7.5,1.1-11.2,1.8c-3.2,0.6-6.3,1.1-9.5,1.5  c-1.9,0.2-3.7,0.6-5.5,1c1.3,1.2,2.8,0.9,4.3,0.7c0.3-0.1,0.6-0.1,0.9-0.2c4.8-0.8,9.6-1.6,14.4-2.3c6.8-1,13.6-2.2,20.4-3.3  c1.8-0.3,3.7-0.8,5.8-1.2C93,75.2,92.5,73.9,91.9,72.8z M73.9,58.6c0,0,0-0.1,0-0.1c-0.4,0-0.8,0.1-1.2,0.1  c-3.8,0.4-7.6,1.1-11.3,1.9c-3,0.6-6,1.2-9,1.5c-2.6,0.3-5.2,0.5-7.8,0.9C44,63,43.4,63,42.9,63.3c-0.3,0.2-0.6,0.5-0.5,0.8  c0.2,0.5,0.6,0.3,0.9,0.2c1.5-0.5,3.1-0.7,4.7-0.8c6.6-0.5,13.1-1.8,19.7-2.7c3.2-0.4,6.5-1,9.7-1.3c3.9-0.4,7.7-1.1,11.6-1.3  c0.2,0,0.4-0.1,0.6-0.1c0.5-0.1,0.7-0.3,0.6-0.8c-0.1-0.5-0.3-0.7-0.9-0.6c-3.1,0.5-6.2,0.8-9.3,1.2C77.9,58,75.9,58.3,73.9,58.6z   M34.7,65.2c-0.5-0.7-1-1.3-1.7-1.8c-2.3-1.6-4.5-3.3-6.8-4.9c-1.6-1.1-3.1-2.4-4.7-3.4c-2.9-1.9-5.5-4-8.3-6  c-0.8-0.6-1.5-1.3-2.5-0.6c-0.2,0.1-0.6,0-0.9,0c-0.5,0-1.1,0.1-1.7,0.5C17,54.7,25.7,60.2,34.7,65.2z M32.6,30.1  c-0.2-0.5-0.1-0.8,0-1.1c0.1-0.4,0.2-0.9,0.3-1.3c0.1-0.4,0.1-0.9-0.4-1C32,26.5,32,27,31.8,27.3c-0.6,1.1-1,2.3-0.9,3.7  c0,0.6,0,1.1-0.2,1.7c-0.3,0.7,0,1.1,0.5,1.6c1.8,1.6,3.9,3,5.6,4.7c0.2,0.2,0.5,0.6,0.9,0.4c0.1-0.5,0.4-0.9,0-1.4  c-0.3-0.4-0.2-0.8-0.1-1.2c0.1-0.8,0.2-1.6,0.2-2.4c0-0.7-0.1-1.5,1.1-1.4c0.3,0,0.5-0.4,0.3-0.5c-0.8-0.5-0.9-1.9-2.1-1.8  c-0.8,0.7,0,2-1,2.7c-0.2-0.6,0-1.1,0-1.6c0-0.3,0.1-0.8-0.3-0.9c-0.5-0.2-0.7,0.3-0.9,0.6c-0.5,0.9-0.7,1.9-0.7,2.9  c0,0.4,0.1,0.9-0.5,1c-0.2-0.2-0.2-0.4-0.2-0.6c-0.1-1,0.1-2,0.4-2.9c0.4-1-0.3-2.3,0.8-3.1c0.1-0.1,0-0.3-0.1-0.4  c-0.3-0.4-0.6-0.8-1.2-0.7C33.3,28.5,33.1,29.2,32.6,30.1z M46.6,81.5c-0.2,0.3-0.8,0.2-0.7,0.7c0.1,0.5,0.5,0.4,0.9,0.3  c2.1-0.7,4.3-0.8,6.5-1.2c2.1-0.4,4.3-0.4,6.3-1.3c-3.9,0.4-7.8,0.9-11.7,1.3c0-0.1,0-0.2,0-0.3c4.7-0.9,9.4-1.2,14.2-1.9  c4.8-0.7,9.5-1.4,14.2-2.4c4.7-0.9,9.4-1.6,14.4-2.5c-0.5-0.4-0.8-0.4-1.1-0.3c-1.5,0.2-3,0.4-4.6,0.6c-3,0.5-6,0.6-9,1.1  c-3.9,0.7-7.7,1.6-11.6,2.2c-4.7,0.7-9.5,1.5-14.3,2c-1.6,0.2-3.1,0.6-4.6,1.2C45.8,81.5,46.3,81,46.6,81.5z M92.9,62.5  c-1.2-0.3-2.1-0.3-2.9-0.2c-1.3,0.1-2.6,0.3-3.8,0.6c-3.1,0.8-6.2,1-9.4,1.5c-3.7,0.6-7.4,1.2-11.1,1.7c-6.2,0.9-12.3,2.3-18.6,3  c-0.9,0.1-1.7,0.4-2.9,0.7C47.8,70,90.5,63.6,92.9,62.5z M90.5,59.1c-0.7-0.6-1.3-0.5-1.9-0.4c-0.4,0-0.8,0.2-1.2,0.2  c-5.1,0.7-10.2,1.1-15.2,1.9c-4.4,0.7-8.8,1.2-13.2,1.9c-3.6,0.5-7.1,1.2-10.8,1.4c-1.2,0.1-2.3,0.3-3.5,0.5  c-0.6,0.1-1.3,0.2-1.9,0.6c-0.2,0.2-0.4,0.4-0.3,0.6c0.1,0.4,0.4,0.2,0.6,0.2c1-0.2,2-0.4,3-0.6c2.4-0.5,4.8-0.5,7.1-0.8  c3-0.5,6-1.2,9-1.7c5.8-0.9,11.6-1.7,17.4-2.4C83.3,60,86.8,59.8,90.5,59.1z M85,66.7c-2.3-0.3-4.6-0.1-6.9,0.2  c-1.9,0.3-3.9,0.8-5.8,1.2c-1.9,0.3-3.7,0.7-5.6,1c-4,0.6-7.9,1.6-11.9,2.3c-2.9,0.5-5.6,1.7-8.5,1.9c-0.3,0-0.4,0.2-0.5,0.6  C58.8,71.5,71.9,69.1,85,66.7z M88.3,73.3c-1.5-0.2-3,0-4.4,0.2c-2.1,0.3-4.2,0.8-6.3,1.1c-4.1,0.5-8,1.4-12.1,2  c-4.9,0.7-9.8,1.9-14.8,2.2c-1.9,0.1-3.7,0.8-5.6,1.2c0.5,0.1,1,0.1,1.5,0c4.1-0.8,8.2-1,12.3-1.8c3.1-0.5,6.2-0.8,9.2-1.6  c3.4-0.8,6.8-1.4,10.2-1.8c3.2-0.4,6.5-0.8,9.7-1.3C88.1,73.6,88.2,73.5,88.3,73.3z M84.7,65.8c2.8,0,5.1-0.8,7.5-0.5  c0.3,0,0.5-0.2,0.5-0.5c0-0.4-0.3-0.5-0.6-0.4c-0.8,0.1-1.5,0.2-2.2,0.4C88.2,65.1,86.6,65,84.7,65.8z M67.6,36.6  c1.3-0.5,2.5-0.9,3.8-1.4c-1.3-0.3-2.3,0.5-3.5,0.6C67.7,35.9,67.5,36.2,67.6,36.6z M36.7,30.1c0-0.5-0.2-0.6-0.4-0.8  c-0.2-0.2-0.5-0.4-0.8-0.2c-0.3,0.2-0.4,0.5-0.3,0.8c0.1,0.4,0.5,0.3,0.7,0.3C36.1,30.2,36.4,30.2,36.7,30.1z M69.1,34.7  c1-0.2,1.7-0.4,2.3-0.6c0.2-0.1,0.3-0.3,0.2-0.5c-0.1-0.2-0.3-0.2-0.4-0.1C70.7,34,69.9,34,69.1,34.7z M45.1,83.3  c-0.2-0.6-0.1-1.3-1-1.6C44,82.6,44.5,83,45.1,83.3z M65.7,43.5c-1.1,0.1-1.7,0.6-2.4,1.1C64.1,44.5,64.9,44.3,65.7,43.5z   M70.1,36.6c0.3,0.2,0.4,0.3,0.6,0.4c0.3,0.1,0.6,0,0.7-0.3c0.1-0.1,0.1-0.3-0.1-0.4c-0.2-0.2-0.5,0-0.7,0.1  C70.5,36.4,70.3,36.5,70.1,36.6z M90.2,73.2c-0.1-0.1-0.2-0.1-0.2-0.1c-0.1,0-0.3,0-0.4,0.1c0.1,0,0.1,0.1,0.2,0.1  C89.8,73.3,90,73.2,90.2,73.2z M42.8,57.9c0.3-0.2,0.4-0.3,0.5-0.3c0.1-0.1,0.4-0.4,0.1-0.5C43.2,57,43.1,57.4,42.8,57.9z   M85.9,66.4c0.1,0,0.2,0.1,0.2,0.1c0.1-0.1,0.4,0.1,0.3-0.2C86.4,66.2,86,66.2,85.9,66.4z"></path><path d="M44.3,23.6c2.4-3.2,6.1-3.6,9.5-4.6c0.4-0.1,0.5-0.1,1.3,0.4C51,19.8,47.6,21.5,44.3,23.6z"></path><path d="M56.5,21.6c-4,0.7-7.5,2.5-11,4.2c-0.3-0.3-0.1-0.6,0.2-0.7c2.9-1.4,5.9-2.7,9-3.6C55.3,21.3,55.8,21.2,56.5,21.6z"></path><path d="M60.1,34c0-0.2,0-0.3,0.1-0.4c2.2-1,4.3-2,6.7-2.4c0.1,0,0.3,0.1,0.4,0.1c0,0.1-0.1,0.3-0.1,0.3c-2,0.2-3.8,0.9-5.6,1.8  C61.2,33.7,60.7,34,60.1,34L60.1,34z"></path><path d="M58.4,27.3c0.1,0.3-0.1,0.5-0.3,0.5c-1.2,0.5-2.4,1-3.7,1.3C55.6,28.2,57,27.9,58.4,27.3L58.4,27.3z"></path><path d="M50,28.2c0.5-1.4,1.9-1.4,2.9-2.1c-0.3,0.6-0.9,0.9-1.4,1.2C50.9,27.5,50.6,28.1,50,28.2L50,28.2z"></path><path d="M58.4,27.4c1.1-0.2,2.2-0.8,3.5-0.8C59.7,27.6,59.6,27.6,58.4,27.4C58.4,27.3,58.4,27.4,58.4,27.4z"></path><path d="M65.6,33c-0.3,0.8-1.1,0.9-1.8,1.1C64.2,33.4,64.8,33.1,65.6,33L65.6,33z"></path><path d="M53.5,25.7c0.8-0.6,1.4-1,2.1-1.1C55.1,25.1,54.5,25.6,53.5,25.7z"></path><path d="M65.9,29.8c-0.4,0.3-0.9,0.5-1.8,0.4C64.8,29.6,65.3,29.7,65.9,29.8z"></path><path d="M51.6,31.9c0-1,0.3-1.3,1.1-1.6C52.4,30.9,52.1,31.3,51.6,31.9z"></path><path d="M49.9,28.1c-0.3,0.5-0.7,0.9-1.3,0.9C48.9,28.6,49.2,28,49.9,28.1C50,28.2,49.9,28.1,49.9,28.1z"></path><path d="M60.1,34c-0.2,0.4-0.6,0.3-1.1,0.6C59.4,33.9,59.7,33.9,60.1,34C60.1,34,60.1,34,60.1,34z"></path><path d="M53.9,34c0.1,0.5-0.2,0.6-0.4,0.7c0,0-0.2-0.1-0.2-0.1C53.4,34.3,53.7,34.2,53.9,34z"></path><path d="M65.6,33.1c0.1-0.5,0.4-0.5,0.7-0.5C66.3,33,66,33.1,65.6,33.1C65.6,33,65.6,33.1,65.6,33.1z"></path><path d="M40.9,56.9c-1.4,1.7-2,3.4-2.2,5.3c-0.4-1.9-0.5-3.8,0.6-5.7C39.5,57.6,39.5,57.6,40.9,56.9z"></path><path d="M20.3,42.6c-0.4,2.6-1.2,5.1-1.5,8C18.5,48.9,19.3,44.2,20.3,42.6z"></path><path d="M35.2,54.6c0.8-0.4,0.3-1.6,1.5-2.1c-1,1.8-0.7,3.8-2,5.3c-0.3-0.5,0.1-1.1,0.2-1.6C35,55.6,35.1,55.1,35.2,54.6L35.2,54.6z  "></path><path d="M13.2,43.6c-0.4,0-0.4-0.3-0.4-0.5c0.2-1.5,0.2-3,0.3-4.5c0-0.2,0.1-0.4,0.4-0.5c0.4,0.9-0.2,1.8-0.2,2.7  C13.4,41.6,13.3,42.6,13.2,43.6L13.2,43.6z"></path><path d="M15.5,38.7c-0.2,1.8-0.7,3.4-1.1,5.1c-0.1-1.6,0.4-3.2,0.6-4.8C15,38.9,15.2,38.8,15.5,38.7z"></path><path d="M15.7,44.9c0.1-1.7,0.4-3.4,1-5.1c0.2,0.2,0.4,0.2,0.4,0.3c-0.4,1.5-0.9,3-1.1,4.5C16,44.7,15.8,44.8,15.7,44.9  C15.7,44.9,15.7,44.9,15.7,44.9z"></path><path d="M35.3,54.5c-1.2,0.5-1.2,1.8-1.8,2.7c0-1.1,0.4-2.1,0.9-3C34.9,53.5,35.1,54.1,35.3,54.5C35.2,54.6,35.3,54.5,35.3,54.5z"></path><path d="M32.7,55.7c0.1-0.9,0.5-1.7,1.1-2.6C33.8,54.3,33.5,54.8,32.7,55.7L32.7,55.7z"></path><path d="M36.2,60.3c0-0.6-0.3-1.2,0.3-1.6c0,0,0.1,0,0.1,0C36.9,59.4,36.4,59.8,36.2,60.3z"></path><path d="M15.7,44.9c0.2,0.7,0.1,1.5,0.1,2.3c0,0.2,0,0.4-0.2,0.6C15.4,46.8,15.5,45.9,15.7,44.9C15.7,44.9,15.7,44.9,15.7,44.9z"></path><path d="M32.6,55.7c0.4,0.8-0.3,1.4-0.3,2C32.1,57,32.4,56.4,32.6,55.7C32.7,55.7,32.6,55.7,32.6,55.7z"></path><path d="M11.3,42.6c0-0.4,0-0.9,0-1.3c0,0,0,0,0.1,0C11.4,41.7,11.4,42.1,11.3,42.6C11.4,42.6,11.4,42.6,11.3,42.6z"></path><path d="M37.1,55.9c-0.2-0.7,0.1-1.1,0.8-1.6C37.7,55,37.5,55.4,37.1,55.9z"></path><path d="M13.2,43.6c0,0.5,0.2,1,0.6,1.5C13,44.7,13,44.7,13.2,43.6C13.2,43.6,13.2,43.6,13.2,43.6z"></path><path d="M11.7,38.8c0,0.3,0.2,0.6,0,0.9C11.4,39.4,11.6,39.1,11.7,38.8z"></path><path d="M32.9,59.7C32.9,59.7,32.9,59.7,32.9,59.7c0.1,0.1,0.1,0.2,0,0.3c0,0.2-0.1,0.1-0.1,0C32.8,59.8,32.9,59.7,32.9,59.7z"></path><path d="M9.6,54.8c0.2,1.5-0.4,2.7-0.4,3.9c0,0.6-0.1,1.2-0.1,1.8c0,0.3,0,0.6-0.5,0.6c-0.5,0-0.4-0.4-0.4-0.7c0-0.7,0-1.4-0.1-2.1  c-0.2-1.6,0-3.4,0.7-4.6c0.3,0.4-0.1,0.9,0,1.3c0.1,0.2,0.1,0.4,0.4,0.4C9.3,55.4,9.4,55.2,9.6,54.8z M9,56.2c-0.1,0-0.2,0-0.4,0  c-0.3,1-0.3,1.9,0,2.9C8.8,58.2,8.9,57.2,9,56.2z"></path><path d="M27.4,70.2c-0.3-0.9,0.1-1.9-0.3-3c-0.6,1.6-0.5,3.1-1,4.6c-0.2-1.8,0-3.5,0.6-5.2c0.3-0.7,0.7-1.4,0.8-2.3  c0-0.3,0.2-0.5,0.5-0.5c0.1,0,0.3,0.1,0.4,0.2c0.4,0.3-0.1,0.4-0.2,0.5c-0.5,0.4-0.4,1-0.4,1.6C27.8,67.5,27.5,68.9,27.4,70.2z"></path><path d="M29.6,72c-0.5-0.4-0.6-0.8-0.5-1.3c0.3-1.6,0.7-3.3,1-4.9c0.1-0.3,0.2-0.5,0.4-0.6c0.1-0.1,0.3,0,0.4,0  c0.1,0.1,0.3,0.3,0.1,0.3c-1.1,0.5,0,1.5-0.6,2.2c-0.5,0.7-0.4,1.7-0.5,2.5C29.8,70.8,29.7,71.4,29.6,72z"></path><path d="M38.6,70.4c-0.2,1.2-0.7,2.2-0.7,3.3c-0.1,1.2-0.7,2.4,0,3.7c0.1,0.2-0.1,0.4-0.3,0.5c-0.2,0.1-0.4-0.1-0.5-0.3  c-0.1-0.2-0.1-0.5-0.1-0.8c0-1.9,0.3-3.7,0.8-5.6C38,70.9,38.1,70.6,38.6,70.4z"></path><path d="M32.7,76.7c0.1-2.8,0.3-5.5,1.1-8.2c0.2,1.2-0.2,2.3-0.3,3.4c0,1.4-0.7,2.8-0.2,4.3C33.4,76.7,32.9,76.6,32.7,76.7  C32.6,76.6,32.7,76.7,32.7,76.7z"></path><path d="M7,57.7c0-1.5,0-3,0-4.6c0-0.2,0-0.4,0-0.6c0.1-0.3,0.1-0.7,0.5-0.6c0.3,0.1,0.3,0.4,0.3,0.6c-0.2,0.9-0.3,1.9-0.5,2.8  C7.3,56.2,7.2,56.9,7,57.7z"></path><path d="M22.4,68.6c-0.2-2.5,0.3-5.1,1.3-6.2C23.3,64.5,22.8,66.5,22.4,68.6z"></path><path d="M32.4,67.2c-0.6,2.1-0.7,4.2-1,6.6C30.8,72.2,31.4,68.5,32.4,67.2z"></path><path d="M36.3,70.6c0.3,1-0.1,1.8-0.1,2.7c0,0.7-0.3,1.5,0.2,2.2c0.2,0.2,0,0.5-0.3,0.6c-0.3,0.1-0.5-0.2-0.5-0.4  C35.6,74,35.6,72.3,36.3,70.6z"></path><path d="M40.4,72.6c0.2,1.1-0.4,1.7-0.3,2.5c0,0.8-0.9,1.7,0.3,2.4c0.2,0.1-0.2,1-0.5,0.9c-0.4,0-0.5-0.4-0.5-0.7  c-0.1-1.1,0.1-2.1,0.3-3.2C39.8,74,40.1,73.4,40.4,72.6z"></path><path d="M41.1,79.9c-0.2-1.9-0.6-3.9,0.7-6C41.5,76.1,41.3,78,41.1,79.9z"></path><path d="M18.1,66.3c-0.2-1.8,0.5-5.1,1.3-6C19.2,62.4,18.4,64.3,18.1,66.3z"></path><path d="M22.2,62.4c-0.4,1.7-0.9,3.4-1.2,5.3C20.7,65.8,21.2,63.4,22.2,62.4z"></path><path d="M20.7,61.8c-0.3,1.8-0.7,3.5-1,5.3c-0.2-1.9,0-3.6,0.7-5.4C20.5,61.7,20.6,61.7,20.7,61.8z"></path><path d="M14.6,56.2c-0.5,1.1-0.7,2.2-1.1,3.4C13.2,58,13.6,56.7,14.6,56.2z"></path><path d="M17.7,59.3c-0.3,1.6-0.5,3.2-0.8,4.7c-0.3-1.6,0.1-3.2,0.4-4.8C17.5,59.2,17.6,59.2,17.7,59.3z"></path><path d="M13.1,58c0,0.1,0,0.3,0,0.4c0,0.2-0.2,0.3-0.3,0.2c-0.1,0-0.1-0.1-0.2-0.2c-0.2-0.3,0-0.6,0.1-0.9c0.1-0.4-0.6,0-0.5-0.5  c0-0.2,0.1-0.4,0.3-0.4c0.1,0,0.3,0.1,0.4,0.2C13.2,57.2,13,57.7,13.1,58z"></path><path d="M14.7,58.4c0.1,0.6,0.3,1.2-0.2,1.8C14.1,59.5,14.7,58.9,14.7,58.4z"></path><path d="M16.6,58.2c0.2,0.6-0.2,0.9-0.2,1.3c-0.3,0-0.3-0.1-0.3-0.3C16,58.9,16,58.5,16.6,58.2z"></path><path d="M11.5,56.3c0.3,0.5,0,0.9,0,1.3c-0.2,0-0.3-0.1-0.3-0.3C11.1,56.9,11,56.5,11.5,56.3z"></path><path d="M12.1,55.2c0,0.1,0,0.2-0.1,0.3c-0.2,0-0.1-0.2-0.1-0.3c0-0.1,0.1-0.2,0.1-0.2C12,55,12.1,55.1,12.1,55.2z"></path><path d="M11.2,61c0.1,0.1,0.2,0.1,0.2,0.1c-0.1,0.3-0.1,0.5-0.4,0.6c0,0-0.1-0.2-0.1-0.3C10.9,61.3,10.9,61.1,11.2,61z"></path><path d="M64.4,55.8c-2.4-0.2-4.7,0.5-7.1,0.6c0.1-0.5,0.5-0.5,0.8-0.5c4.5-0.7,9-1.3,13.4-2c-1.5,0.8-3.1,1.1-4.8,1.3  C65.9,55.3,65.1,55.2,64.4,55.8z"></path><path d="M46.4,39.9c-0.2,0.8-0.4,1.6-0.5,2.3c-0.1,0.6-0.5,1.1,0.2,1.6c0.2,0.2-0.1,0.5-0.3,0.6c-0.2,0.1-0.4,0-0.5-0.2  c-0.2-1.5,0-2.9,0.6-4.3C46,39.9,46.2,40,46.4,39.9z"></path><path d="M44.9,38.4c-0.2,1.5-0.7,2.9-0.7,4.5C44,41.3,44.1,39.8,44.9,38.4z"></path><path d="M36,33.9c0.1,1,0.1,1.6-0.4,2.2C35.3,35.4,35.8,34.8,36,33.9z"></path><path d="M68.7,38.2c-0.9,1.2-2.5,1.2-3.7,1.9C66.1,39.2,67.3,38.5,68.7,38.2C68.7,38.3,68.7,38.2,68.7,38.2z"></path><path d="M59.8,42.7c0.3-1.1,1.3-0.9,2.2-1.3C61.2,42.2,61.2,42.2,59.8,42.7C59.8,42.6,59.8,42.7,59.8,42.7z"></path><path d="M62.6,42.6c-0.2,0.2-0.6,0.3-0.7,0.6c-0.3,0.6-0.8,0.4-1.2,0.4C61,42.5,61.9,42.8,62.6,42.6z"></path><path d="M56.5,40.9c-0.1-0.2,0-0.4,0.2-0.5c1.7-0.8,3.3-1.5,5-2.3c0.4-0.2,0.8-0.2,1.3,0C60.9,39,58.7,39.9,56.5,40.9L56.5,40.9z"></path><path d="M56.5,40.9c-0.8,0.3-1.4,1.1-2.4,0.6c0,0,0,0,0,0C54.9,41.3,55.5,40.4,56.5,40.9C56.5,40.9,56.5,40.9,56.5,40.9z"></path><path d="M64.8,37.2c-0.1,0.2-0.2,0.3-0.4,0.4c-0.1,0-0.4,0-0.3-0.1c0.1-0.2,0.3-0.2,0.5-0.3C64.6,37.1,64.7,37.2,64.8,37.2z"></path></svg>