<svg height='100px' width='100px'  fill="#000000" xmlns="http://www.w3.org/2000/svg" xmlns:xlink="http://www.w3.org/1999/xlink" version="1.1" x="0px" y="0px" viewBox="0 0 100 100" style="enable-background:new 0 0 100 100;" xml:space="preserve"><path d="M92.7,45.2c-0.5,0.4-0.9,0.3-1.5,0.2c-2.2-0.2-4.4-0.1-6.6,0.1c-1.3,0.1-2.6,0.4-3.9,0.2c-1.1-0.2-2.1,0.3-3.1,0.1  c-1.1-0.2-2.2,0.3-3.4,0.1c-0.3-0.1-0.6,0.3-0.5,0.7c0.1,1-0.1,2.1,0.1,3.1c0,0.2,0.2,0.5,0.1,0.6c-0.8,1,0,1.8,0.2,2.7  c0.2,1,0.7,1.9,0.8,2.9c0.4,2.7,2.5,4.3,4.2,6.2c2.3,2.6,5.1,4.7,7.7,6.9c0.2,0.1,0.3,0.3,0.5,0.5c-1.7-0.3-7.4-5.5-11.6-10.4  c-0.2,0.5-0.3,1.1-0.2,1.6c0.3,1.8,0.1,3.7-0.4,5.4c-0.6,2-1.3,3.9-2,5.8c-0.2,0.6-0.1,0.8,0.5,0.8c1,0,2.1,0,3.1,0  c4.4-0.3,8.8-0.2,13.2-0.7c0.5-0.1,1.2-0.2,1.5,0.4c0.1,0.2,0.1,0.5,0,0.6c-0.5,0.5-1.1,0.2-1.6,0.1c-1.4-0.4-2.7,0.4-4,0.2  c-1.9-0.2-3.8,0-5.7-0.1c-2.6-0.1-5.1,0.2-7.7,0.4c-0.1,0-0.3,0-0.4,0.1c-1.3,1.6-3,2.8-4.1,4.7c0.5,0,0.9,0.1,1.2,0.1  c3,0.1,6.1,0.4,9.1,0.2c2.5-0.2,5-0.4,7.5-0.7c0.9-0.1,1.7,0,2.6-0.1c0.9-0.1,1.8-0.1,2.4-1c0.1-0.2,0.4-0.5,0.7-0.2  c0.2,0.3,0.7,0.4,0.5,1c-0.3,0.9-1.1,1.4-2.1,1.4c-1.3-0.1-2.7-0.2-4-0.1c-3.5,0.2-6.9,0.6-10.4,0.6c-2.5,0-5,0-7.5-0.1  c-0.7,0-2.9,0.7-4.2,1.1c-3.3,1-6.6,2.2-10.3,1.5c-3.4-0.7-6.7-1.4-9.9-2.5c-0.9-0.3-1.9-0.3-2.9-0.3c-1.9,0.1-3.8-0.3-5.6-0.1  c-3.2,0.2-6.4,0.3-9.6,0c-2.3-0.2-4.7-0.1-7,0c-3.1,0.1-6.2,0.3-9.3-0.4c-0.4-0.1-0.7-0.1-1.1-0.1c-0.7,0-1.8,0.4-1.1-1.1  c0,0,0-0.1,0-0.1c-1.9-1.8-0.5-4-0.7-5.9c-0.4-3.2,0.1-6.3,0-9.5c-0.1-2.1,0-4.2,0.1-6.4c0.1-2.6,0-5.2,0-7.7c0-0.4-0.2-0.7-0.5-0.7  C4.7,47,3.8,46,2.6,45.7c-0.6-0.1-1-0.6-1.4-1.1c-0.3-0.5-0.3-1.1,0.1-1.5c0.9-0.8,1.9-1.4,3.1-1.6c2-0.2,2.2-0.5,2-2.5  c-0.1-1.3,0-2.7-0.1-4c0-0.7,0.3-1.2,0.7-1.8c1-1.6,2.2-0.9,3.4-0.9c1.2,0,2.3-0.1,3.4-0.2c0.5,0,0.6-0.3,0.6-0.8  c0-0.2-0.1-0.4-0.1-0.7c-0.2-1.9,0.2-2.2,2.2-2.1c2.2,0.1,4.3,0.2,6.5,0.1c1,0,1.2,0.3,1.2,1.1c0,0.3-0.1,0.7-0.1,1  c-0.1,0.5-0.4,1.3,0,1.5c0.6,0.3,1.4,0.5,2,0.1c0.7-0.5,0.7-1.3,0.8-2.1c0.1-1.2,0.1-2.5,0-3.7c0-1,0.4-1.5,1.4-1.6  c2.5-0.4,5-0.2,7.5-0.2c0.8,0,1.6,0,2.3,0c1-0.1,1.3,0.5,1.2,1.3c-0.2,1.5-0.6,3-0.5,4.5c0,0.5-0.3,1.2-1,1.1  c-0.6-0.1-0.4-0.7-0.3-1.2c0.2-1.3,0.2-2.7,0.3-4c0-0.3,0-0.7-0.4-0.7c-0.3,0-0.8,0-0.8,0.4c-0.1,1.9-1.3,3.6-0.9,5.5  c0.1,0.8,0.5,1,1.2,0.8c0.1,0,0.2-0.1,0.3-0.1c2.3,0.3,3.5-1.1,4.8-2.7c2.4-3,4.8-6,7.4-8.9c0.7-0.7,1.3-1.1,2.4-1.1  c1.9,0,3.8-0.3,5.8-0.4c1.5-0.1,3-0.2,4.4-0.2c1,0,1.6,0.4,2.1,1.5c1.2,2.7,2.6,5.3,4.7,7.4c1.3,1.2,1.9,3,3.3,4.2  c0.3,0.3,0.6,0.3,1,0.4c1.6,0.2,3.2,0.1,4.9-0.1c0.7-0.1,0.9-0.3,1-1c0.2-1.9,0.4-3.9,0.7-5.8c0.1-0.7,0.6-0.8,1.1-0.7  c1.6,0.3,3.1-0.1,4.6-0.1c1,0,1.4,0.2,1.5,1.2c0.1,1.6,0.1,3.2,0.5,4.7c0.2,0.6-0.1,1.1-0.5,1.8c1.3,0.1,2.5,0.1,3.7,0  c1.9-0.2,2.9,0.7,2.8,2.6c-0.1,2.1,0.4,4.2,0.2,6.3c0,0.6,0.2,0.6,0.7,0.5c1.3-0.2,2.7-0.1,3.7,1c0.4,0.5,0.6,0.9,0.5,1.5  c-0.2,1.8-1.8,3.6-3.6,4c-1.7,0.4-1.6,0.4-1.6,2.1c0,3.2,0.1,6.4,0.1,9.6c0,1.9-0.4,3.7-0.5,5.5c-0.2,3.1-0.2,6.2-0.2,9.3  c0,0.1,0,0.2,0,0.3c0.1,0.6-0.2,0.9-0.6,1.2c-0.2,0.1-0.4,0.1-0.5,0c-0.4-0.3-0.4-0.8-0.2-1.3c0.3-1,0.3-2.1,0.4-3.2  c0.2-2.8,0.3-5.6,0.6-8.4c0.3-2.5,0.3-5.1,0.2-7.7c-0.1-2.4-0.5-4.8-0.2-7.3c0.2-1.4-0.7-2.1-2.4-2c-3,0.1-5.9,0.3-8.9,0.3  c-2,0-4-0.1-6,0.3c-0.3,0.1-0.7,0-0.8-0.4c0-0.5,0.4-0.4,0.7-0.5c2.6-0.3,5.2-0.1,7.8-0.2c3-0.2,6-0.1,9-0.4  C92.4,45.8,92.8,45.8,92.7,45.2z M7.4,44.7C8,44,8.7,44.1,9.6,44.1c2.6,0,5.2-0.2,7.9,0.2c0.7,0.1,1.1-0.2,1.1-0.9  c-0.1-1.2,0.5-2.1,1.2-2.9c0.9-1.1,1.9-1.9,3.5-1.3c0.4,0.1,0.8,0,1.2-0.1c1.4-0.3,2.6,0,3.5,1.1c0.8,0.9,1.5,1.9,1.6,3.2  c0.1,0.8,0.5,1.1,1.3,0.9c0.3-0.1,0.7-0.1,1-0.1c0.5,0,0.6-0.3,0.6-0.7c-0.3-1.4-0.1-2.9-0.2-4.3c0-0.5,0.2-1,0.4-1.5  c0.3-0.7,0.8-0.9,1.4-0.4c0.6,0.5,1.3,1,1.9,1.6c0.2,0.1,0.3,0.4,0.5,0.3c0.2-0.1,0.4-0.3,0.3-0.5c-0.3-0.8,0.2-1.2,0.6-1.8  c0.6-0.8,1.1-1.8,1.7-2.6c0.5-0.7,0.2-0.9-0.5-0.9c-1.4,0-2.8,0.1-4.2,0.2c-3.8,0.2-7.5-0.1-11.3-0.1c-1.9,0-3.8,0.1-5.7-0.1  c-2.5-0.3-4.9,0.1-7.4,0.2c-1.8,0.1-1.8,0-1.9,1.7c0,0.3-0.1,0.5-0.1,0.8C7.4,38.9,7,41.8,7.4,44.7c-0.2,1.1,0.3,1.3,1.4,1.3  c2.1-0.1,4.1,0.1,6.2,0c0.9,0,1.8-0.4,2.7-0.6c-0.2-0.4-0.4-0.4-0.5-0.4c-1.6-0.5-3.1-0.2-4.7-0.2c-1,0-2,0-3.1,0.4  C8.7,45.6,7.9,45.5,7.4,44.7z M22.6,72.1c-0.6-1-1.7-1.5-2.4-2.2c-2.5-2.4-5-4.9-7.5-7.4c-0.9-0.9-1.9-1.9-2.8-2.9  c-0.2-0.2-0.5-0.6-0.2-1c0.2-0.2,0.5,0,0.6,0.2c2.3,2.5,4.5,5.1,7,7.3c1.6,1.4,2.9,3.1,4.5,4.4c1.1,0.9,2.4,1.6,3.9,1.6  c3,0,6-0.2,9-0.3c1.1,0,1.2-0.2,0.7-1.2c-0.4-0.9-1.2-1.7-1.2-2.6c-0.1-1.8-0.6-3.5-0.9-5.2c-0.8-4,0.3-7.6,2-11.1  c0.8-1.6,2.2-2.7,3.7-3.9c2.7-2,5.8-3.3,8.6-5c1.2-0.8,2.7-0.5,4.1-1c0.9-0.3,1.9-0.5,2.8-0.4c2.9,0.3,6,0.2,8.8,1.2  c1.8,0.6,3.6,1.5,5.1,2.7c0.1,0.1,0.4,0.2,0.2,0.5c-0.5,0.6,0.2,0.8,0.4,0.7c0.5-0.3,0.7,0.1,0.9,0.3c1.1,0.7,1.5,2.1,2.7,2.7  c0.3-0.4,0.3-0.9,0.3-1.4c0-0.9,0.1-1.8,0.1-2.7c0.1-2.3,0.2-4.6,0.3-6.9c0-0.5-0.2-0.7-0.8-0.6c-1.1,0.2-2.3,0.2-3.4,0.3  c-3.6,0.1-7.2,0.2-10.8,0.4c-2.9,0.1-5.8,0.4-8.7,0.2c-3.6-0.2-7.2,0.1-10.7,0.5c-0.8,0.1-1.1,0.3-1,1c0.1,2.5-0.8,5-0.5,7.6  c0.1,0.4,0,0.9-0.6,0.8c-0.5-0.1-0.6-0.4-0.4-0.9c0.3-0.9-0.1-1.3-1-1.6c-1.3-0.3-2.6,0.1-3.9,0.1c-0.8,0-1.7,0.7-2.4,0.2  c-0.8-0.6-1-0.1-1.4,0.3c-0.5,0.6-0.6,1.3-0.8,2c-0.1,0.4-0.3,0.7-0.7,1c-1.8,1.4-3.1,1.1-4.9,0.3c-1.3-0.5-1.4-1.8-1.8-2.9  c-0.4-1-1-1.2-1.9-1.1c-2.3,0.3-4.6,0.6-6.9,0.4c-0.7-0.1-1.5,0-2.2,0.1c-0.5,0.1-1,0.3-1,1.1c0,3.6,0,7.3,0,10.9  c0,2.3,0,4.5-0.1,6.8c0,0.6-0.3,1.5,0.1,1.9c1.2,1.2,2.3,2.4,3.4,3.6c0.4,0.4,0.7,1,1.5,0.9c1.3-0.1,2.6,0,3.9,0  c0.4,0,0.9,0.1,1.1-0.3c0.2-0.5-0.3-0.7-0.6-1c-2.2-2-4.2-4.1-6.3-6.2c-0.5-0.5-0.9-1.2-1.3-1.8c-0.2-0.3-0.3-0.6,0.1-0.7  c0.3-0.2,0.5,0.2,0.5,0.4c0.1,0.3,0.3,0.6,0.5,0.8c2.4,2.1,4.4,4.6,6.6,6.9c0.6,0.6,1.4,1.3,2,1.6C20,72.3,21.3,72.5,22.6,72.1z   M34.1,59.4c0.1,1.2,0.2,2.5,0.5,3.8c0.4,2.3,1.1,4.5,1.8,6.7c1.3,3.9,3.8,6.6,7.4,8.4c1.5,0.8,3.1,1.4,4.8,1.7  c1.7,0.3,3.2,1.3,5,1.4c1.4,0.1,2.8,0,4.2-0.1c2.7-0.2,5.1-1.3,7.5-2.3c2.2-1,3.5-3,5.1-4.7c2.5-2.6,3.3-6.2,4.1-9.6  c0.5-2.1,0.1-4.2-0.2-6.3c-0.4-2.9-1.2-5.5-3-7.8c-1.6-2.1-3.5-3.8-5.3-5.6c-0.1-0.1-0.2-0.2-0.4-0.2c-1.8-0.5-3.7-0.9-5.5-1.4  c-3.9-0.9-7.8-0.7-11.5,1.1c-0.7,0.4-1.5,0-2.3,0.5c-1.9,1.1-3.8,2-5.6,3.2c-1.4,0.9-2.7,1.8-3.6,3.3c-0.7,1.2-1.2,2.4-1.8,3.6  C34.4,56.2,34.3,57.7,34.1,59.4z M74.2,33.9c0.2,0.6,0.9,1.4,0.1,1.9c-0.8,0.4-1.1-0.6-1.5-1.1c-2.2-2.5-3.8-5.5-6-7.9  c-0.3-0.4-0.5-1-1.1-0.2c-0.2,0.2-0.8,0.2-1-0.2c-0.7-1.6-2.4-2.4-3.2-3.9c-0.2-0.4-0.6-0.4-1-0.4c-1.9-0.1-3.7,0.3-5.5,0.4  c-2.2,0.1-3.7,0.8-4.6,2.9c4.2,0.7,8.4,0.9,12.7,0.4c0.4,0,0.8-0.1,0.9,0.4c0,0.5-0.3,0.7-0.7,0.7c-1.2-0.1-2.3,0-3.5,0  c-3.5,0.1-7-0.8-10.5,0.1c-0.2,0.1-0.5,0.1-0.7-0.1c-0.2-0.2-0.1-0.5,0-0.7c0.8-0.9,1.2-2.2,2-3.1c0.7-0.8,1.1-1.7,2.7-1.5  c2.5,0.4,5.1-0.2,7.6-0.4c1-0.1,1.4,0.2,1.8,0.9c0.6,1.1,1.6,1.8,2.6,2.6c-0.8-1.3-1.6-2.6-2.5-3.9c-0.2-0.4-0.5-0.5-0.9-0.4  c-2.6,0.2-5.3-0.2-7.9,0.5c-1,0.3-2.3-0.2-3.1,0.6c-0.7,0.7-1.4,1.5-2.2,2.2c-1.7,1.5-2.8,3.5-4.4,5c-2.1,2-3.3,4.8-5.1,7  c-0.7,0.8-1.4,1.6-1.8,2.6c0.5,0.1,0.9,0.3,1.2,0.3c3.1-0.2,6.1-0.1,9.2-0.4c3.2-0.3,6.4,0,9.6-0.2c3.6-0.3,7.3-0.3,10.9-0.3  c1.8,0,3.6-0.3,5.3-1.2c0.4-0.2,0.6-0.1,0.8,0.2c0.2,0.3,0.7,0.6,0.3,1c-0.1,0.2-0.4,0.4-0.4,0.6c-0.2,2-0.4,4-0.6,6.1  c0,0.3,0.1,0.4,0.4,0.4c0.9,0,1.8,0.4,2.6,0.2c0.9-0.2,1.8-0.3,2.6-0.2c2.1,0.2,4.3-0.1,6.4-0.2c2.1-0.1,4.1-0.4,6.2-0.4  c0.8,0,0.8-0.3,0.9-0.9c0.1-2.7-0.1-5.5-0.3-8.2c-0.1-1-1.1-1.7-2.1-1.6c-1.9,0.3-3.7,0.4-5.6,0.1c-0.9-0.1-1.8-0.3-2.8-0.2  C79.4,33.9,76.8,33.5,74.2,33.9z M40.9,78.1c-1.6-1.3-2.9-2.7-4.1-4.3c-0.5-0.7-1.4-1.1-2.4-1.1c-1.8,0-3.6,0.4-5.4,0.3  c-4-0.1-8,0-12-0.1c-2.8-0.1-5.6-0.1-8.4,0.5c-0.5,0.1-1.3-0.2-1.3,0.7c0,0.6,0,1.2,0,1.8c1-0.3,0.8,0.9,1.6,1.2  c1.3,0.5,2.7,0.8,4.1,1c1,0.1,2,0,3,0c2.7,0,5.5,0.1,8.2,0.2c2.4,0.1,4.7-0.1,7-0.1c0.6,0,1.2,0.3,1.8,0.3  C35.7,78.4,38.2,78.3,40.9,78.1z M30.7,26.2c-0.1,0.1-0.2,0.3-0.3,0.4C30.3,28.1,30,29.6,30,31c-0.1,1.6,0.3,1.9,1.9,1.8  c0.9-0.1,1.7-0.1,2.6-0.2c0.4,0,0.7-0.1,0.7-0.6c-0.3-1.9,0.4-3.7,0.6-5.5c0-0.3,0.1-0.7-0.4-0.6c-0.3,0-0.7-0.2-0.8,0.3  c-0.1,0.3-0.1,0.6-0.1,0.9c0,1.3,0,2.6,0,3.9c0,0.6,0,1.2-0.7,1.1c-0.5,0-0.3-0.6-0.3-1c0-1.6,0-3.2,0-4.8c0-0.5-0.2-0.5-0.6-0.4  c-0.3,0.1-0.8-0.1-0.7,0.4c0.4,1.6,0,3.2-0.1,4.8c0,0.4,0.1,0.9-0.4,1c-0.2,0.1-0.4,0.1-0.5,0c-0.3-0.3-0.2-0.7-0.1-1.1  c0.2-1,0.5-1.9,0.3-3C31.4,27.3,30.5,27,30.7,26.2z M24.1,45.8c1.7,0.1,2.5-0.4,2.5-1.6c0-1.3-1-2.3-2.5-2.4  c-1.3-0.1-2.6,1.1-2.6,2.3C21.4,44.8,22.8,45.7,24.1,45.8z M29.1,46c0.4,0,0.8,0,1.2-0.1c1.9-0.2,3.7-0.6,5.6,0  c0.4,0.1,0.7-0.1,0.7-0.5c0-1.2,0-2.4,0.2-3.5c0.1-0.3-0.1-0.6-0.6-0.3c-1.1,0.6-2,1.5-3,2.3c0.8,0.3,1.5,0,2.2,0.2  c0.3,0.1,0.7,0.2,0.5,0.7c-0.1,0.6-0.5,0.2-0.7,0.1c-1.6-0.4-3.2,0-4.7,0C29.9,44.9,29.3,45.2,29.1,46z M23.8,50.1  c1.3,0,1.9-0.5,2.3-1.8c0.2-0.6,0-0.8-0.6-0.7c-1.5,0.1-2.9,0.2-4.3-0.4c-0.5-0.2-0.6,0-0.5,0.4C21,49.1,22,49.9,23.8,50.1z   M27.4,45.7c0.8-0.5,1.3-2.1,1-2.8c-0.9-2.2-2.5-3.2-4.9-3c-1.9,0.2-3.5,1.6-3.8,3.4c-0.1,0.8,0.1,1.5,0.8,2  c-0.7-1.9,0.1-3.3,1.5-4.3c0.9-0.7,2.3-0.9,3.3-0.4C27.2,41.7,28.7,43.1,27.4,45.7z M21.1,32.4c0.6,0,0.9,0,1.2,0  c0.4,0,0.6-0.1,0.7-0.5c0.1-0.4-0.2-0.5-0.5-0.6c-0.2-0.1-0.5-0.2-0.7-0.2c-1.9-0.4-3.7,0.4-5.6,0.7c-0.2,0-0.4,0.1-0.4,0.3  c0.1,0.3,0.3,0.4,0.6,0.3C18,32.2,19.7,32.8,21.1,32.4z M93.6,47.7c0.9-0.1,1.7-0.5,2.4-1.1c0.5-0.4,1-1,0.4-1.7  c-0.5-0.6-1.3-0.6-2.1-0.4c-0.7,0.2-0.8,0.7-0.8,1.3C93.6,46.4,93.6,47,93.6,47.7z M7.5,68.9c-0.7,1.4,0.3,2.6-0.2,3.9  c0.8-0.5,1.5-0.6,2.3-0.7c0.2,0,0.6,0.1,0.7-0.2c0.1-0.3,0-0.7-0.3-0.9C9,70.5,8.4,69.6,7.5,68.9z M28,31.1c0,0.3,0,0.6,0,0.8  c0.1,0.3,0,0.7,0.5,0.7c0.4,0,0.5-0.3,0.5-0.7c0-0.6,0.1-1.1,0.1-1.7c0.1-1.1,0.2-2.2,0.3-3.3c0-0.3,0-0.5-0.3-0.6  c-0.3-0.1-0.4,0.1-0.5,0.3c-0.1,0.3-0.4,0.6-0.3,0.8C28.4,28.7,28,29.9,28,31.1z M83.7,27.2C83.7,27.2,83.7,27.2,83.7,27.2  c0.5,0.1,1,0.1,1.5,0.1c0.3,0,0.7,0.1,0.7-0.4c0-0.4-0.3-0.9-0.6-0.8c-1.3,0.3-2.7,0-3.9,0.4c-0.5,0.2-0.4,0.5-0.4,0.8  c0,0.5,0.4,0.3,0.7,0.3C82.2,27.3,83,27.3,83.7,27.2z M33.1,40.4c0,0.6,0,0.8,0,1.1c0,0.3-0.2,0.7,0.2,0.9c0.4,0.1,0.7-0.3,0.9-0.5  c0.6-0.7,0.4-1.7,0.6-2.5c0.1-0.4-0.5-1.1-1.1-1.1c-0.5,0-0.4,0.6-0.4,1C33.1,39.8,33.1,40.3,33.1,40.4z M80.8,30.4  c1.9,0,3.6-0.2,5.4,0.1C84.6,29.2,82.9,29.2,80.8,30.4z M82.6,32.6c1.2,0.1,2.2,0.2,3.2,0.2c0.3,0,0.7,0.1,0.8-0.2  c0.2-0.4-0.5-0.6-0.5-1.1c0-0.3-0.6-0.2-0.7-0.1C84.8,32.3,83.6,32,82.6,32.6z M80.5,32.4c0.9-0.9,2.2-0.7,3.5-1.1c-1,0-1.9,0-2.7,0  C80.1,31.3,80.1,31.3,80.5,32.4z M6.2,46.4c0.3-1.3,0.2-1.4-1.5-1.3C4.9,45.8,5.7,45.9,6.2,46.4z"></path><path d="M83.9,57.2c0.2-2.5-1.9-3.5-2.8-5.3c1.1-0.1,1,1.1,1.9,1.3c-0.2-1.5,0.1-3-0.5-4.5c2,2.2,4.6,3.8,6.6,6.1  c-0.1,0.1-0.1,0.1-0.2,0.2c-1.6-1.3-3.1-2.6-4.7-4c-0.2-0.2-0.4-0.6-0.7-0.4c-0.3,0.2-0.1,0.5-0.1,0.8c0.1,2.1,1,3.7,2.6,5  c1.2,0.9,2.4,1.9,3.5,3c-2.1-0.4-3.4-2.2-5-3.7c0.3,1.9,1,3.2,2.3,4.3c1.2,1,2.3,2,3,3.3c-4.4-3.8-8.4-8-12.1-12.4  C79.9,52.9,81.6,55.3,83.9,57.2z"></path><path d="M88.2,66.9c-1.9-0.7-10.9-9.7-11.1-11.1C80.7,59.7,84.5,63.2,88.2,66.9z"></path><path d="M76.6,65c1,0.5,1.4,1.5,2.2,2.2c1.2,1,2.2,2.3,3.7,3c0.2,0.1,0.2,0.2,0.2,0.4c-0.1,0.2-0.3,0.1-0.5,0.1  c-0.7-0.4-1.4-0.7-2-1.2c-1.2-1.2-2.5-2.4-3.6-3.8C76.5,65.4,76.3,65.3,76.6,65z"></path><path d="M78.9,71.2c-1.4-0.4-2.5-1.3-3.6-2.1c-0.2-0.1-0.3-0.3-0.1-0.5c0.2-0.2,0.4,0,0.5,0.1C76.9,69.5,77.8,70.5,78.9,71.2z"></path><path d="M89,49.8c1.1,0.4,1.5,1.4,2.2,2.2C90.3,51.6,89.4,50.7,89,49.8z"></path><path d="M32,71.2c-1.1-0.4-1.8-1.3-2.6-2c-3.2-3.1-6.4-6.1-9.4-9.3c-2.3-2.4-4.9-4.5-7.4-6.7c-0.6-0.6-1.1-1.3-1.5-2  C11,51,11,50.7,11.2,50.6c0.3-0.2,0.4,0.1,0.5,0.3c1.4,2.3,3.5,3.8,5.4,5.5c1.4,1.3,2.7,2.6,4.1,3.9c3.5,3.4,7,6.9,10.5,10.3  C31.8,70.8,32.1,70.9,32,71.2z"></path><path d="M28.1,71.7c-0.1,0.1-0.1,0.2-0.2,0.3c-0.2,0.1-0.4,0-0.5-0.2c-1.1-1.2-2.5-2-3.7-3c-2.8-2.4-5.2-5.1-7.8-7.7  c-1.7-1.7-3.4-3.5-5.1-5.2c-0.1-0.1-0.3-0.2-0.4-0.4c-0.2-0.4-0.6-0.8-0.2-1.2c0.4-0.3,0.6,0.3,0.8,0.6c2.2,2.6,4.6,4.9,6.9,7.3  c3.1,3.2,6.3,6.3,9.8,9.1C27.9,71.4,28,71.6,28.1,71.7z"></path><path d="M33.1,67.6c-6.6-4.9-12.6-10.5-17.7-17c2.8,2.9,5.7,5.8,8.6,8.7C26.9,62.3,30.1,64.8,33.1,67.6z"></path><path d="M31.1,63.6c-1.4-1.3-2.7-2.6-4.2-3.9c-2-1.8-4.1-3.5-6.2-5.3c-0.4-0.3-1.2-0.8-0.7-1.3c0.4-0.4,0.8,0.4,1.2,0.7  c1.8,1.5,3.5,3.1,5.2,4.7C28.1,60,29.8,61.7,31.1,63.6z"></path><path d="M31.5,59.8c-1-0.3-1.3-1.2-2-1.7c-1.9-1.3-3.3-3.2-4.9-4.7c-0.2-0.2-0.3-0.4-0.4-0.7c0-0.1,0-0.3,0.1-0.4  c0.2-0.2,0.4,0,0.5,0.1c1.6,2.5,4.1,4.1,6,6.4C30.9,59.2,31.4,59.3,31.5,59.8z"></path><path d="M13.1,70.7c-1.7-1.5-3.4-2.8-4.6-4.7c-0.3-0.5-1.3-1-0.8-1.4c0.5-0.5,0.9,0.6,1.3,1c1.4,1.4,2.7,2.9,4.1,4.3  C13.1,70.1,13.2,70.3,13.1,70.7z"></path><path d="M27.3,50.7c1.1,1.2,2.2,2.4,3.2,3.6c-1.4-0.9-2.7-2-3.5-3.4C27.1,50.8,27.2,50.8,27.3,50.7z"></path><path d="M31.3,52.5c-0.8-0.6-1.4-1.3-2.2-1.8c-0.1-0.1-0.4-0.3-0.2-0.6c0.2-0.2,0.4,0,0.6,0.1C30.3,50.8,30.9,51.6,31.3,52.5z"></path><path d="M46,76.5c-1.4-0.9-2.6-1.9-2.4-3.8c0.1-0.8-0.3-1.7,0.3-2.5c0.2-0.2-0.1-0.4-0.2-0.6c-1.4-1.2-2.1-2.7-2.6-4.5  c-0.4-1.6-0.6-3.2-0.7-4.9c-0.1-2.8,1.3-5,2.9-7c1.2-1.5,2.6-3,4.3-4c2.6-1.5,5.5-1.6,8.4-1.7c1,0,2.1,0,3.1,0  c0.1,0,0.9-0.4,0.2,0.3c-0.1,0.1,0.4,0.2,0.6,0.3c2.4,0.9,4.8,1.8,6.6,3.9c0.6,0.7,1,1.4,1.2,2.2c0.3,1.1,0.7,2.1,1.1,3.1  c1,2.5,0.6,5-0.1,7.6c-0.3,1.3-0.6,2.5-1.3,3.7c-0.9,1.6-2.2,2.8-3.6,3.8c-1.1,0.8-2.3,1.6-3.2,2.7c-0.3,0.3-0.6,0-0.9,0.1  c-1.9,0.7-3.8,0.4-5.7,0.3c-1.9,0-3.7-0.9-5.3-1.8c-1.4-0.8-2.7-1.7-3.8-3c-0.2-0.2-0.3-0.5-0.6-0.4c-0.2,0.1-0.3,0.4-0.4,0.6  c-0.2,1.6-0.3,3.2,1.2,4.3C45.6,75.7,45.7,76.1,46,76.5z M47.2,51.1c-1.1,0.3-2,1-2.7,1.9c-1.8,2.1-3.4,4.2-3,7.2  c0.3,1.9,0,3.8,1.2,5.5c0.5,0.8,0.7,1.9,1.5,2.6c2,2,3.9,4.2,6.7,5.2c3.5,1.2,7.1,1.9,10.5-0.2c2.4-1.5,4.4-3.3,5.5-6.1  c1.4-3.7,1.7-7.4,0.3-11.1c-0.8-2.1-1.7-4-3.8-5.1c-1.7-0.9-3.3-2.1-5.1-2.2c-2.2-0.2-4.4-0.4-6.6,0.1  C49.9,49.2,48.4,49.8,47.2,51.1L47.2,51.1z"></path><path d="M68.5,54.4c0.7-0.3,1.1,0,1.4,0.6c0.7,1.4,1.1,3,1.3,4.5c0.2,1.4,0.5,2.8-0.1,4.2c-0.1-1.6,0-3.2-0.4-4.8  C70.2,57.3,69.4,55.8,68.5,54.4L68.5,54.4z"></path><path d="M40.9,49c-3.3,3.8-3.5,6-4.4,10C36.2,55.4,38.6,49.9,40.9,49z"></path><path d="M56.6,44.7c-3.2,0.1-6.3,0.9-9.2,2.5C48.5,45.4,53.2,44.1,56.6,44.7z"></path><path d="M68.5,54.4c-0.7-1.2-1.5-2.5-2.2-3.7c-0.7-1.2-2.1-1.9-2.5-3.3c2.1,1.8,3.6,4,4.8,6.4C68.6,54.1,68.6,54.2,68.5,54.4  C68.5,54.4,68.5,54.4,68.5,54.4z"></path><path d="M51.5,78.9c-3.3-0.3-4-1.2-4.5-3.8c1,0.6,0.9,2,1.9,2.5C49.7,78,50.5,78.8,51.5,78.9z"></path><path d="M55.4,79.4c1.6,0.3,2.9,0.3,4.4-0.4C58.7,80.3,56.9,80.4,55.4,79.4z"></path><path d="M71,64.4c0.1,1.9-0.3,3.6-0.9,5.4C70.3,68,70.6,66.2,71,64.4z"></path><path d="M38.1,60.5c0.1,0.8,0.4,1.8,0.2,1.9c-1,0.6-0.3,1.5-0.7,2.1C37.6,63.2,37.4,61.9,38.1,60.5z"></path><path d="M58.7,76.9c-1.1,0.8-2.2,1.5-3.6,1.8C56.3,78.1,57.5,77.5,58.7,76.9z"></path><path d="M71.4,57c-0.8-0.7-0.9-1.7-1.1-2.6C71.2,55,70.9,56.2,71.4,57L71.4,57z"></path><path d="M71.4,57c0.4,1.3,0.6,2.6,0.6,4C71.8,59.7,71.2,58.4,71.4,57C71.4,57,71.4,57,71.4,57z"></path><path d="M73.2,59c-0.1,1-0.1,2.1-0.2,3.1c-0.2-1.1-0.3-2.1-0.1-3.1C73,59,73.1,59,73.2,59z"></path><path d="M38.4,57c-0.1,1-0.2,2-0.3,2.9C37.9,58.9,37.9,57.9,38.4,57z"></path><path d="M42.1,36.1c5.5,0.3,10.7,0.4,16,0.2C62,36.2,66,36.2,69.9,36c0.5,0,0.9,0.1,0.9,0.6c0,0.4-0.5,0.5-0.8,0.5  c-1.1,0-2.1-0.2-3.2-0.2c-3.4,0.2-6.8,0.1-10.2,0.3c-4.1,0.2-8.2,0-12.2-0.1c-1.1,0-2.2,0.3-3.3,0.2c-0.3,0-0.5,0-0.7-0.2  c-0.1-0.3,0.1-0.5,0.2-0.7c1.5-1.5,2.6-3.4,4.1-5c0.5-0.5,0.3-1.2,0.9-1.6c0.4-0.3,0.8-0.6,1.2-0.2c0.4,0.4,0,0.8-0.3,1.2  c-0.8,0.9-1.8,1.8-2.6,2.8C43.3,34.3,42.8,35.2,42.1,36.1z"></path><path d="M50,29.1c3.4-0.1,6.7,0,10.1-0.1c1.9-0.1,3.9,0.3,5.8,0.1c0.4,0,0.8,0,0.9,0.4c0.3,1,1.2,1.5,1.9,2.1  c1.2,1.1,2.4,2.3,3.6,3.5c0.3,0.3,0.5,0.7,0.2,1.1c-0.4,0.4-0.7,0-1-0.1c-0.9-0.5-1.4-1.4-2.1-2.1c-1.2-1.3-2.7-2.2-3.7-3.6  c-0.2-0.3-0.6-0.4-1-0.4c-3.6-0.1-7.3-0.3-10.9,0C52,30,50.3,30,48.5,30.2c-0.4,0.1-0.9,0.2-0.9-0.5c0-0.6,0.4-0.7,0.8-0.7  C48.9,29.1,49.5,29.1,50,29.1z"></path><path d="M84.2,44c-1,0-2-0.9-2-1.9c0-0.7,1.1-2,1.8-2c1.1,0.1,2.6,1.2,2.6,2C86.7,43,85.4,44,84.2,44z M84.5,41.4  c-0.4,0.3-1.1,0.1-1.1,0.8c0,0.5,0.3,0.9,0.8,0.9c0.6,0,1.3-0.1,1.3-0.9C85.6,41.6,84.9,41.5,84.5,41.4z"></path><path d="M45.1,62.3c-0.5-4.9,3.3-8.9,7.3-9.8c1.8-0.4,3.7-0.4,5.5,0c1.9,0.4,3.2,1.7,4.5,2.9c1.4,1.3,2.2,2.7,2.2,4.6  c0,3-0.6,5.7-3.2,7.6c-2.4,1.8-5,2.9-8.1,3.3c-2.3,0.3-3.5-0.8-5.1-1.7c-1.7-1-2.6-2.7-3-4.6C45.1,63.9,45.1,63.1,45.1,62.3z   M61.9,65.5c1.2-1.1,1.1-2.7,1.5-4c0.4-1.1-0.3-2-1-2.8c-0.1,0.2,0,0.4,0.1,0.6c0.2,1.5,0.6,3-0.1,4.5  C62.1,64.2,61.9,64.8,61.9,65.5c-0.3,0.1-0.6-0.3-0.9,0.1c-0.4,0.7-0.8,1.3-1.4,1.8C60.7,67.1,61.1,66.1,61.9,65.5z M51.8,56.2  c-1.2,0.9-2.1,1.8-2.6,2.9c-0.5,1.1-1.1,2.4-0.4,3.7c0.1,0.3,0.3,0.6,0.6,0.6c0.4,0,0.2-0.4,0.2-0.7C50.1,60.6,50.5,58.4,51.8,56.2z   M52,59.3c-1.3,1.9-1.5,3.8-0.8,5.1c0.2-0.6,0.5-1,0.8-1.3c0.3-0.3,0.2-1.1-0.2-1c-0.8,0.2-0.5-0.1-0.4-0.5  C51.6,60.9,51.8,60.1,52,59.3z M47.8,63.4c-0.2,0.8-0.1,1.4,0.4,1.5c0.9,0.2,0.9,0.9,1.1,1.4c0.2,0.5,0.1,1.1,0.7,1.4  C50.4,65.8,48.8,64.9,47.8,63.4z M49.3,56.9c-1.8,0.9-1.7,2.6-2.1,4.2C47.8,59.6,48.2,58.1,49.3,56.9z M53.1,54.4  c1.4,0.4,1.5,0.3,2-1C53.7,53.4,53.7,53.4,53.1,54.4z M51.9,65.8c-0.2,0.5-0.6,1-0.4,1.6c0.1,0.3,0.2,0.7,0.7,0.6  c0.3-0.1,0.4-0.4,0.2-0.8C52.1,66.7,52,66.2,51.9,65.8z M57.5,57c-0.6,0.1-0.8,0.6-1,0.9c-0.2,0.3-0.3,0.8,0,1  c0.4,0.2,0.4-0.4,0.6-0.6C57.4,57.9,57.6,57.5,57.5,57z M58.2,56.7c0.5-0.1,0.6-0.5,0.9-0.8c0.2-0.2,0.3-0.4,0.1-0.6  c-0.2-0.2-0.3-0.4-0.6-0.4c-0.4,0.1-0.2,0.4-0.3,0.6C58.2,55.9,58.3,56.3,58.2,56.7z M55.6,62.3c0.4-0.3,0.6-0.7,0.7-1.2  c0-0.2-0.1-0.6-0.3-0.5c-0.5,0.2-0.7,0.7-0.8,1.2C55.2,62.1,55.3,62.2,55.6,62.3z M59.9,56.2c0.9,0.6,0.9,1.8,1.5,2.7  C61.4,57.2,61,56.6,59.9,56.2z M56,63.7c0.3-0.3,0.7-0.6,0.8-1.1c0-0.2-0.1-0.5-0.3-0.4c-0.5,0.2-0.7,0.8-0.8,1.2  C55.6,63.6,55.8,63.6,56,63.7z M61.8,56.4c-0.6-1.1-1.1-1.5-2.1-1.7C60.3,55.4,61,55.9,61.8,56.4z"></path><path d="M47.2,51.1c0.5-0.2,1.1-0.4,1.6-0.5c0.2-0.1,0.5,0,0.6,0.2c0.1,0.3-0.2,0.3-0.4,0.4c-2.9,1.2-4.1,3.7-5.2,6.4  c-0.1,0.2,0,0.5,0,0.8c0.1,0.3,0.1,0.7-0.3,0.7c-0.4,0-0.7-0.4-0.6-0.8c0.2-0.7,0.3-1.5,0.6-2.2C44.4,54.2,46,52.8,47.2,51.1  C47.2,51.1,47.2,51.1,47.2,51.1z"></path></svg>