<svg height='100px' width='100px'  fill="#000000" xmlns="http://www.w3.org/2000/svg" xmlns:xlink="http://www.w3.org/1999/xlink" version="1.1" x="0px" y="0px" viewBox="0 0 64 64" enable-background="new 0 0 64 64" xml:space="preserve"><g><g><path d="M64,55.1H0V18h64V55.1z M2,53.1h60V20H2V53.1z"></path></g><g><path d="M13.7,20H5.6v-6.6h8.1V20z M7.6,18h4.1v-2.6H7.6V18z"></path></g><g><path d="M43.2,20H20.5l4.9-11.1h13.3L43.2,20z M23.5,18h16.7l-2.9-7.1H26.7L23.5,18z"></path></g><g><path d="M64,55.1H0V46h24.6l0.3,0.2c2.1,1.5,4.5,2.3,7.1,2.3c2.6,0,5-0.8,7.1-2.3l0.3-0.2H64V55.1z M2,53.1h60V48H40    c-2.4,1.7-5.1,2.5-8,2.5c-2.9,0-5.6-0.9-8-2.5H2V53.1z"></path></g><g><path d="M48.6,27.1h-9.4L39,26.9c-2.1-1.5-4.5-2.3-7.1-2.3c-2.6,0-5,0.8-7.1,2.3l-0.3,0.2H0.1V18h48.6V27.1z M39.9,25.1h6.8V20    H2.1v5.1h21.8c2.4-1.6,5.1-2.5,8-2.5C34.8,22.6,37.5,23.4,39.9,25.1z"></path></g><g><path d="M32,50.6c-7.7,0-14-6.3-14-14c0-7.7,6.3-14,14-14c7.7,0,14,6.3,14,14C46,44.3,39.7,50.6,32,50.6z M32,24.6    c-6.6,0-12,5.4-12,12s5.4,12,12,12s12-5.4,12-12S38.6,24.6,32,24.6z"></path></g><g><path d="M32,45.8c-5.1,0-9.2-4.1-9.2-9.2s4.1-9.2,9.2-9.2c5.1,0,9.2,4.1,9.2,9.2S37.1,45.8,32,45.8z M32,29.4    c-4,0-7.2,3.2-7.2,7.2s3.2,7.2,7.2,7.2s7.2-3.2,7.2-7.2S36,29.4,32,29.4z"></path></g><g><path d="M64,29.8H46.6V18H64V29.8z M48.6,27.8H62V20H48.6V27.8z"></path></g></g></svg>