<svg height='100px' width='100px' xmlns="http://www.w3.org/2000/svg" viewBox="0 0 39 37" x="0px" y="0px"><path d="M292.853,1215.082 C294.192,1216.017 301.942,1221.21 297.786,1223.289 C295.984,1224.19 290.897,1218.633 289.309,1217.473 C285.692,1214.833 283.192,1210.955 280.515,1207.434 C276.61,1210.472 272.712,1213.542 269.137,1216.97 C267.606,1218.439 263.413,1225.143 260.981,1223.321 C256.766,1220.164 275.793,1206.042 278.031,1204.299 C275.196,1200.936 271.697,1198.087 268.318,1195.29 C266.495,1193.779 259.368,1191.157 261.617,1188.319 C264.044,1185.256 269.978,1191.454 271.69,1192.895 C273.596,1194.498 275.467,1196.143 277.315,1197.813 C278.227,1198.627 279.095,1199.485 279.921,1200.385 C281.95,1202.601 282.204,1201.05 284.256,1199.426 C286.295,1197.812 296.298,1186.45 298.194,1189.825 C300.118,1193.245 286.097,1203.076 283.67,1204.973 C286.473,1208.662 289.005,1212.409 292.853,1215.082 Z" transform="translate(-260 -1187)"></path></svg>
