<svg height='100px' width='100px' xmlns:dc="http://purl.org/dc/elements/1.1/" xmlns:cc="http://creativecommons.org/ns#" xmlns:rdf="http://www.w3.org/1999/02/22-rdf-syntax-ns#" xmlns:svg="http://www.w3.org/2000/svg" xmlns="http://www.w3.org/2000/svg" xmlns:sodipodi="http://sodipodi.sourceforge.net/DTD/sodipodi-0.dtd" xmlns:inkscape="http://www.inkscape.org/namespaces/inkscape" version="1.1" x="0px" y="0px" viewBox="0 0 100 100" xml:space="preserve"><path d="M 12.500973,2.1877254 C 8.364822,2.1877254 5,5.5447347 5,9.6715497 l 0,11.2662363 0,3.749941 0,65.64071 c 0,4.126815 3.364822,7.483838 7.500973,7.483838 l 74.998058,0 C 91.635179,97.812275 95,94.455252 95,90.328437 l 0,-65.64071 0,-3.749941 0,-11.2662363 C 94.99982,5.5447347 91.635179,2.1877254 87.499031,2.1877254 l -74.998058,0 z m 0,3.7499402 74.998058,0 c 2.068074,0 3.750669,1.674774 3.750669,3.733884 l 0,11.2662364 -82.4997608,0 0,-11.2662364 c 0,-2.05911 1.6829578,-3.733884 3.7510338,-3.733884 z m 5.623815,3.7499311 a 3.7499158,3.7499158 0 0 0 -3.749575,3.7499403 3.7499158,3.7499158 0 0 0 3.749575,3.74994 3.7499158,3.7499158 0 0 0 3.74994,-3.74994 3.7499158,3.7499158 0 0 0 -3.74994,-3.7499404 z m 11.250182,0 a 3.7499158,3.7499158 0 0 0 -3.74994,3.7499403 3.7499158,3.7499158 0 0 0 3.74994,3.74994 3.7499158,3.7499158 0 0 0 3.749938,-3.74994 3.7499158,3.7499158 0 0 0 -3.749938,-3.7499404 z m 11.250183,0 a 3.7499158,3.7499158 0 0 0 -3.74994,3.7499403 3.7499158,3.7499158 0 0 0 3.74994,3.74994 3.7499158,3.7499158 0 0 0 3.749939,-3.74994 3.7499158,3.7499158 0 0 0 -3.749939,-3.7499404 z M 8.7503038,24.687727 l 82.4997562,0 0,65.641079 c 0,2.05911 -1.682955,3.733884 -3.751029,3.733893 l -74.998058,0 c -2.068262,0 -3.7506692,-1.674783 -3.7506692,-3.733893 l 0,-65.641079 z m 43.7068562,18.309042 -8.528924,29.853596 3.605487,1.03014 8.528924,-29.853596 -3.605487,-1.03014 z m -15.63265,4.190958 c -0.36102,0.0095 -0.723473,0.123219 -1.039624,0.349092 L 22.659733,56.91203 c -0.492505,0.352062 -0.785005,0.920016 -0.785005,1.525509 0,0.605691 0.2925,1.173825 0.785005,1.525878 l 13.125153,9.37485 c 0.330578,0.23589 0.711421,0.349461 1.088505,0.349461 0.584955,0 1.161269,-0.273069 1.527333,-0.785376 0.602138,-0.842508 0.406597,-2.013336 -0.435911,-2.615472 L 26.975812,58.437539 37.964813,50.588207 c 0.842508,-0.601956 1.037862,-1.772784 0.435911,-2.615472 -0.376219,-0.52669 -0.974515,-0.800767 -1.576214,-0.785008 z m 26.350619,3.6e-4 c -0.60172,-0.01575 -1.199747,0.257958 -1.57585,0.784648 -0.601952,0.842688 -0.40696,2.013516 0.435548,2.615472 l 10.988999,7.849332 -10.988999,7.849341 c -0.842508,0.601956 -1.0375,1.772775 -0.435548,2.615472 0.366064,0.512307 0.942191,0.785376 1.527333,0.785376 0.37727,0 0.757747,-0.113211 1.088141,-0.349101 l 13.125152,-9.37521 c 0.492506,-0.352053 0.785006,-0.919827 0.785006,-1.525509 0,-0.605691 -0.2925,-1.173816 -0.785006,-1.525878 L 64.214753,47.536819 C 63.89846,47.311018 63.53616,47.197546 63.175129,47.188087 Z"></path></svg>
