<svg id="Calque_14_Image_-_copie_3" data-name="Calque 14 Image - copie 3" xmlns="http://www.w3.org/2000/svg" width="224.51" height="155.7" viewBox="0 0 224.51 155.7">
  <polygon points="53.26 137.39 16.43 137.39 16.43 0 0 0 0 155.7 53.39 155.7 53.26 137.39" fill-rule="evenodd"/>
  <path d="M131.73,84.14c-2.2-4.39-6.73-7.69-11.5-9.17,12.35-3.84,13.48-17.74,13.48-33.79,0-19.79-3.25-35.56-19.41-38.46C106.22,1.27,96.59,2.3,85.72,2V120.87l6.1,33.41h10a73.87,73.87,0,0,0,13.61-1c17-3.38,19.77-20.47,19.77-41.33C135.15,101.78,135.22,91.11,131.73,84.14ZM102.26,20.33c3.69,0,8.26.09,10.6,1.62,4.3,2.82,4.49,10.58,4.49,18.34,0,6.76.82,16.17-2,20.66-2.29,3.67-7.54,4.84-13.12,4.68Zm14,110.47c-2.48,3.92-8.21,4.69-14,4.49V83.6c5.58-.12,11.24.42,13.66,3.77,3,4.15,2.51,14.2,2.51,21.86,0,7,.68,17.1-2.16,21.57Z"/>
  <polygon points="72.79 154.08 88 154.07 60.34 2 60.29 2 46.23 2 46.18 2 22.11 133.74 37.42 133.74 43.61 99.93 59.13 99.93 56.11 83.38 46.64 83.38 53.26 47.23 72.79 154.08"/>
  <ellipse cx="195" cy="50.55" rx="29.51" ry="28.06"/>
</svg>
