<svg id="Calque_14_Image" data-name="Calque 14 Image" xmlns="http://www.w3.org/2000/svg" width="16.09mm" height="53.53mm" viewBox="0 0 45.61 151.74">
  <path d="M199.36,344.89h16.38c3.28,19.35,6.87,38.37,10.26,57.6,3.66-19,7-38.39,10.44-57.6h8.1v20c0,6.52.67,13.19,0,19.8-.41,4-1.79,8.15-2.7,12.24-1.82,8.11-3.56,16-5.4,24.3-.91,4.06-2.31,8.21-2.7,12.06-.52,5.09,0,10.62,0,15.85v47.51H218.62V449.47c0-5.27.47-10.57,0-15.66-.33-3.58-1.72-7.22-2.52-11-5.5-25.59-11.23-51.9-16.74-77.4C199.4,345.13,199.05,345,199.36,344.89Z" transform="translate(-199.23 -344.89)" fill-rule="evenodd"/>
</svg>
