<svg id="Calque_14_Image" data-name="Calque 14 Image" xmlns="http://www.w3.org/2000/svg" width="35.95mm" height="34.2mm" viewBox="0 0 101.91 96.93">
  <g>
    <path d="M401.5,420.85c-4.82-4.35-9.22-9.14-13.86-13.68,4.54-10.82,2-23.93-3.24-31.14-7.36-10.1-22.88-15.44-38.7-10.62q-6.46-6.86-13.32-13.32A51.7,51.7,0,0,1,354.52,346c21.36-1.13,37.91,8.57,46.62,21.6A48.58,48.58,0,0,1,408.7,394C408.7,404.76,406.1,413.46,401.5,420.85Z" transform="translate(-306.78 -345.88)" fill-rule="evenodd"/>
    <path d="M314.92,367c4.69,4.26,9,8.91,13.5,13.32-4.81,10.42-3,24.32,2.16,32C337.7,423,355.1,428.46,370.9,423c4.63,4.19,8.86,8.78,13.32,13.14-9,5.64-22.41,7.78-34.56,6.12-22.64-3.08-39.66-17.6-42.48-41C305.64,388.48,308.68,375.39,314.92,367Z" transform="translate(-306.78 -345.88)" fill-rule="evenodd"/>
    <path d="M336.52,370.63c13.05,1.53,33.71-3.54,41,3.78,6.43,6.43,5.59,23.29-4.5,25.38,3.1,5.84,6.52,11.36,9.54,17.28H372.52c-3.48-5.16-6.33-10.95-9.54-16.38H345.7c-.42,5.1-.06,11-.18,16.38h-9.18C336.46,401.65,336.1,385.75,336.52,370.63Zm9,9.36v11.88c6.72-1.15,19.5,1.92,24.48-.9,2.12-1.2,3.47-5.41,2-8.46-2.83-5.78-18.92-1.91-26.28-3.06C345.49,379.48,345.5,379.74,345.52,380Z" transform="translate(-306.78 -345.88)" fill-rule="evenodd"/>
  </g>
</svg>
