<svg id="Calque_14_Image" data-name="Calque 14 Image" xmlns="http://www.w3.org/2000/svg" width="47.63mm" height="54.93mm" viewBox="0 0 135 155.7">
  <g>
    <path d="M185.14,343.09h4.68a42.9,42.9,0,0,1,5.94,1.26c3.18,15.9,6.8,31.36,10.08,47.16H193.42V374.05c0-6.54-.66-15.81-8.46-13.14-4.86,1.67-4.86,9.92-4.86,16.92a62.48,62.48,0,0,0,2.7,18.9c3.68,11,11.12,18.35,16.74,26.64a66,66,0,0,1,11,32.4c1.39,21.85-2.79,41-21.6,43h-4.86c-16.54-1.4-20.84-15-21.42-32.4V447.5c5.4.11,11.28-.25,16.38.17.09,6.21-.2,12.46.18,18.91.31,5.32.76,12.53,5.22,13.85a7.53,7.53,0,0,0,7.38-2.16c3.09-4.11,2.85-14,2.16-21.06A47,47,0,0,0,188.38,439c-5.57-10.13-13-17.52-18.54-29C160,389.54,158.75,344.87,185.14,343.09Z" transform="translate(-162.64 -343.09)" fill-rule="evenodd"/>
    <path d="M199.36,344.89h16.38c3.28,19.35,6.87,38.37,10.26,57.6,3.66-19,7-38.39,10.44-57.6h8.1v20c0,6.52.67,13.19,0,19.8-.41,4-1.79,8.15-2.7,12.24-1.82,8.11-3.56,16-5.4,24.3-.91,4.06-2.31,8.21-2.7,12.06-.52,5.09,0,10.62,0,15.85v47.51H218.62V449.47c0-5.27.47-10.57,0-15.66-.33-3.58-1.72-7.22-2.52-11-5.5-25.59-11.23-51.9-16.74-77.4C199.4,345.13,199.05,345,199.36,344.89Z" transform="translate(-162.64 -343.09)" fill-rule="evenodd"/>
    <path d="M248.32,344.89c11.2.36,20.16-.76,28.44.72,16.19,2.91,19.44,18.7,19.44,38.52,0,16.07-1.13,30-13.5,33.84,4.78,1.48,9.32,4.79,11.52,9.18,3.49,7,3.42,17,3.42,27.18,0,20.9-2.78,37.82-19.8,41.4-8.52,1.8-18.2.51-29.7.9V345.43C248.12,345.18,248.11,344.92,248.32,344.89Zm16.38,18.9v44.82c5.59.17,10.85-1,13.14-4.68,2.8-4.49,2-13.92,2-20.7,0-7.76-.2-15.53-4.5-18.36-2.43-1.59-6.68-1.65-10.44-1.62C264.67,363.29,264.68,363.54,264.7,363.79Zm0,63.36v50.58c5.81.21,11.55-.57,14-4.5,2.83-4.47,2.16-14.61,2.16-21.6,0-7.67.48-17.08-2.52-21.24-2.44-3.38-7.87-3.91-13.5-3.77C264.67,426.64,264.68,426.9,264.7,427.15Z" transform="translate(-162.64 -343.09)" fill-rule="evenodd"/>
  </g>
</svg>
