<svg id="Calque_14_Image_-_copie_2" data-name="Calque 14 Image - copie 2" xmlns="http://www.w3.org/2000/svg" viewBox="0 0 246.06 155.7"><polygon points="53.26 137.39 16.43 137.39 16.43 0 0 0 0 155.7 53.39 155.7 53.26 137.39" fill-rule="evenodd"/><path d="M210.56,55.79c5-1.92,8.55-7.6,8.55-14.32,0-8.29-5.47-15-12.22-15l-.57,0,0,0H174V72.94h8.78V56.47h17.55l9.28,16.47h10.61Zm-27.83-8.18V35.21h21.33l.29,0h.15a6.2,6.2,0,0,1-.38,12.36H182.73Z"/><path d="M166.05,36.39,152.28,22.65a47.67,47.67,0,0,0-8.34,27.7c0,29.77,22.88,48.55,51.1,48.55a56.08,56.08,0,0,0,27-6.61L208.16,78.45A33.75,33.75,0,0,1,195,81.11c-17.83,0-32.33-13.81-32.33-30.76V50.1A29.74,29.74,0,0,1,166.05,36.39Z"/><path d="M195,1.8h0A56,56,0,0,0,169.7,7.66l13.59,13.58A33.29,33.29,0,0,1,195,19.12c17.85,0,32.32,13.87,32.32,31v.25a29.25,29.25,0,0,1-2.67,12.23l14.14,14.11a48.43,48.43,0,0,0,7.31-26.34C246.14,20.58,222.72,1.8,195,1.8Z"/><path d="M72.79,154.08H88L60.34,2H46.18L22.11,133.74H37.42l6.21-33.81H62.89ZM46.65,83.38l6.61-36.15,6.61,36.15Z"/><path d="M131.73,84.14c-2.2-4.39-6.73-7.69-11.5-9.17,12.35-3.84,13.48-17.74,13.48-33.79,0-19.79-3.25-35.56-19.41-38.46C106.22,1.27,96.59,2.3,85.72,2V120.87l6.1,33.41h10a74.24,74.24,0,0,0,13.61-1c17-3.38,19.77-20.47,19.77-41.33C135.15,101.78,135.22,91.11,131.73,84.14ZM102.26,20.33c3.69,0,8.26.09,10.6,1.62,4.3,2.82,4.49,10.58,4.49,18.34,0,6.76.82,16.17-2,20.66-2.29,3.67-7.54,4.84-13.12,4.68Zm14,110.47c-2.48,3.92-8.21,4.69-14,4.49V83.6c5.58-.12,11.24.42,13.66,3.77,3,4.15,2.51,14.2,2.51,21.86C118.43,116.2,119.11,126.33,116.27,130.8Z"/></svg>