<svg id="Calque_2" data-name="Calque 2" xmlns="http://www.w3.org/2000/svg" width="86.97mm" height="54.85mm" viewBox="0 0 246.52 155.47">
  <path d="M210.56,55.79c5-1.92,8.55-7.6,8.55-14.32,0-8.29-5.47-15-12.22-15l-.57,0,0,0H174V72.94h8.78V56.47h17.55l9.28,16.47h10.61Zm-27.83-8.18V35.21h21.33l.29,0h.15a6.2,6.2,0,0,1-.38,12.36H182.73Z" transform="translate(0.38)"/>
  <path d="M23.6,0h.89A26.27,26.27,0,0,1,29,.39a22.27,22.27,0,0,1,3.68.87c3.18,15.87,6.79,31.31,10.06,47.09H30.35V30.91c0-6.53-.66-15.78-8.45-13.12-4.84,1.66-4.85,9.9-4.85,16.9a62.33,62.33,0,0,0,2.7,18.87c3.68,11,11.11,18.32,16.71,26.6a65.79,65.79,0,0,1,11,32.35c1.27,20-2.13,37.7-17.17,42.1a23.46,23.46,0,0,1-6.56.86H22.55a23.21,23.21,0,0,1-3.9-.3C4.08,152.71.17,139.6-.38,123.11V104.24c5.39.12,11.26-.24,16.35.18.09,6.2-.19,12.44.18,18.88.32,5.32.77,12.51,5.22,13.83A7.51,7.51,0,0,0,28.73,135c3.1-4.11,2.85-14,2.16-21A47,47,0,0,0,25.32,95.8c-5.56-10.11-13-17.49-18.51-28.94C-2.74,47-4.18,4.54,19.69.29A22.24,22.24,0,0,1,23.6,0Z" transform="translate(0.38)" fill-rule="evenodd"/>
  <path d="M36.53,1.8H52.89c3.27,19.31,6.86,38.31,10.24,57.51,3.66-19,7-38.34,10.43-57.51h8.09v20c0,6.5.67,13.17,0,19.77-.41,4-1.79,8.14-2.7,12.22-1.81,8.09-3.55,16-5.39,24.26-.91,4-2.3,8.2-2.7,12-.52,5.08,0,10.6,0,15.82v48.05H55.76V106.22c0-5.27.47-10.56,0-15.64-.32-3.58-1.71-7.21-2.51-11C47.76,54.06,42,27.79,36.53,2.34,36.57,2,36.23,1.87,36.53,1.8Z" transform="translate(0.38)" fill-rule="evenodd"/>
  <path d="M131.59,83.93c-2.2-4.38-6.74-7.69-11.51-9.16C132.44,70.93,133.56,57,133.56,41c0-19.79-3.24-35.56-19.41-38.46-8.08-1.45-17.7-.42-28.57-.7V154c11.54,0,22.12.6,29.65-.9,17-3.39,19.77-20.47,19.77-41.34C135,101.58,135.08,90.9,131.59,83.93Zm-29.48-63.8c3.69,0,8.26.08,10.6,1.62,4.3,2.82,4.5,10.58,4.5,18.33,0,6.76.82,16.18-2,20.67-2.28,3.67-7.54,4.83-13.12,4.67Zm14,110.46c-2.48,3.92-8.22,4.7-14,4.5V83.39c5.58-.12,11.24.43,13.66,3.78,3,4.15,2.52,14.19,2.52,21.86C118.29,116,119,126.12,116.13,130.59Z" transform="translate(0.38)"/>
  <path d="M166.05,36.39,152.28,22.65a47.67,47.67,0,0,0-8.34,27.7c0,29.77,22.88,48.55,51.1,48.55a56.08,56.08,0,0,0,27-6.61L208.16,78.45A33.75,33.75,0,0,1,195,81.11c-17.83,0-32.33-13.81-32.33-30.76V50.1A29.74,29.74,0,0,1,166.05,36.39Z" transform="translate(0.38)"/>
  <path d="M195,1.8h0A56,56,0,0,0,169.7,7.66l13.59,13.58A33.29,33.29,0,0,1,195,19.12c17.85,0,32.32,13.87,32.32,31v.25a29.25,29.25,0,0,1-2.67,12.23l14.14,14.11a48.43,48.43,0,0,0,7.31-26.34C246.14,20.58,222.72,1.8,195,1.8Z" transform="translate(0.38)"/>
</svg>
