<svg id="Calque_14_Image_-_copie_3" data-name="Calque 14 Image - copie 3" xmlns="http://www.w3.org/2000/svg" viewBox="0 0 246.06 155.7"><polygon points="16.43 137.39 16.43 0 0 0 0 155.7 137.12 155.7 137.12 137.39 16.43 137.39" fill-rule="evenodd"/><rect x="155.38" width="16.43" height="155.7"/><path d="M201.41,82.4a28.65,28.65,0,1,1,0,57.3h-30V82.4h30m0-16h-46v89.3h46a44.65,44.65,0,0,0,44.65-44.65h0A44.65,44.65,0,0,0,201.41,66.4Z"/><path d="M192.33,16a25.26,25.26,0,1,1,0,50.51h-21V16h21m0-16h-37V82.51h37a41.26,41.26,0,0,0,41.26-41.26h0A41.25,41.25,0,0,0,192.33,0Z"/><path d="M93,.48V16.69a35.14,35.14,0,0,1,28.15,34.39v15.5H51V51.08A35.14,35.14,0,0,1,79.11,16.69V.48A51.09,51.09,0,0,0,35,51.08V120.8H51V82.51h70.16V120.8h16V51.08A51.09,51.09,0,0,0,93,.48Z"/></svg>