<svg id="logos" xmlns="http://www.w3.org/2000/svg" viewBox="0 0 246.06 155.7"><polygon points="16.43 0 0 0 0 155.7 137.12 155.7 137.12 137.39 16.43 137.39 16.43 0"/><path d="M93,.48V16.69a35.14,35.14,0,0,1,28.15,34.39v15.5H51V51.08A35.14,35.14,0,0,1,79.11,16.69V.48A51.09,51.09,0,0,0,35,51.08V120.8H51V82.51h70.16V120.8h16V51.08A51.09,51.09,0,0,0,93,.48Z"/><path d="M221,70.92a41.12,41.12,0,0,0,12.61-29.67h0A41.25,41.25,0,0,0,192.33,0h-37V155.7h46a44.65,44.65,0,0,0,44.65-44.65h0A44.64,44.64,0,0,0,221,70.92ZM171.8,16h20.53a25.25,25.25,0,0,1,2.21,50.4H171.8Zm29.61,123.7H171.8V82.4h29.61a28.65,28.65,0,1,1,0,57.3Z"/></svg>