<svg id="Calque_14_Image" data-name="Calque 14 Image" xmlns="http://www.w3.org/2000/svg" width="16.33mm" height="16.49mm" viewBox="0 0 46.29 46.75">
  <path d="M336.52,370.63c13.05,1.53,33.71-3.54,41,3.78,6.43,6.43,5.59,23.29-4.5,25.38,3.1,5.84,6.52,11.36,9.54,17.28H372.52c-3.48-5.16-6.33-10.95-9.54-16.38H345.7c-.42,5.1-.06,11-.18,16.38h-9.18C336.46,401.65,336.1,385.75,336.52,370.63Zm9,9.36v11.88c6.72-1.15,19.5,1.92,24.48-.9,2.12-1.2,3.47-5.41,2-8.46-2.83-5.78-18.92-1.91-26.28-3.06C345.49,379.48,345.5,379.74,345.52,380Z" transform="translate(-336.31 -370.32)" fill-rule="evenodd"/>
</svg>
