<svg id="logo" data-name="logo" xmlns="http://www.w3.org/2000/svg" width="86.8mm" height="54.93mm" viewBox="0 0 246.06 155.7">
  <g>
    <path id="S" d="M185.14,343.53h4.68a40.17,40.17,0,0,1,5.94,1.26c3.18,15.89,6.8,31.35,10.08,47.16H193.42V374.49c0-6.55-.66-15.81-8.46-13.14-4.86,1.66-4.86,9.91-4.86,16.92a62.58,62.58,0,0,0,2.7,18.9c3.68,11,11.12,18.34,16.74,26.64a65.92,65.92,0,0,1,11,32.4c1.39,21.84-2.79,41-21.6,43h-4.86c-16.54-1.41-20.84-15-21.42-32.4v-18.9c5.4.12,11.28-.24,16.38.18.09,6.2-.2,12.45.18,18.9.31,5.33.76,12.53,5.22,13.86a7.55,7.55,0,0,0,7.38-2.16c3.09-4.12,2.85-14,2.16-21.06a47,47,0,0,0-5.58-18.18c-5.57-10.13-13-17.52-18.54-29C160,390,158.75,345.3,185.14,343.53Z" transform="translate(-162.64 -343.53)" fill-rule="evenodd"/>
    <path id="Y" d="M199.36,345.33h16.38c3.28,19.34,6.87,38.36,10.26,57.6,3.66-19,7-38.4,10.44-57.6h8.1v20c0,6.51.67,13.19,0,19.8-.41,4-1.79,8.15-2.7,12.24-1.82,8.1-3.56,16-5.4,24.3-.91,4.05-2.31,8.2-2.7,12.06-.52,5.08,0,10.61,0,15.84v47.52H218.62V449.91c0-5.28.47-10.57,0-15.66-.33-3.59-1.72-7.23-2.52-11-5.5-25.6-11.23-51.91-16.74-77.4C199.4,345.56,199.05,345.4,199.36,345.33Z" transform="translate(-162.64 -343.53)" fill-rule="evenodd"/>
    <path id="B" d="M248.32,345.33c11.2.35,20.16-.77,28.44.72C293,349,296.2,364.74,296.2,384.57c0,16.07-1.13,30-13.5,33.84,4.78,1.48,9.32,4.78,11.52,9.18,3.49,7,3.42,17,3.42,27.18,0,20.9-2.78,37.82-19.8,41.4-8.52,1.79-18.2.5-29.7.9V345.87C248.12,345.61,248.11,345.36,248.32,345.33Zm16.38,18.9v44.82c5.59.16,10.85-1,13.14-4.68,2.8-4.5,2-13.93,2-20.7,0-7.77-.2-15.54-4.5-18.36-2.43-1.6-6.68-1.66-10.44-1.62C264.67,363.72,264.68,364,264.7,364.23Zm0,63.36v50.58c5.81.2,11.55-.58,14-4.5,2.83-4.48,2.16-14.62,2.16-21.6,0-7.68.48-17.09-2.52-21.24-2.44-3.39-7.87-3.92-13.5-3.78C264.67,427.08,264.68,427.33,264.7,427.59Z" transform="translate(-162.64 -343.53)" fill-rule="evenodd"/>
    <g id="R">
    <path id="" d="M401.5,421.29c-4.82-4.36-9.22-9.14-13.86-13.68,4.54-10.83,2-23.94-3.24-31.14C377,366.36,361.52,361,345.7,365.85q-6.46-6.87-13.32-13.32a51.42,51.42,0,0,1,22.14-6.12c21.36-1.14,37.91,8.56,46.62,21.6a48.53,48.53,0,0,1,7.56,26.46C408.7,405.19,406.1,413.9,401.5,421.29Z" transform="translate(-162.64 -343.53)" fill-rule="evenodd"/>
    <path id="" d="M314.92,367.47c4.69,4.25,9,8.9,13.5,13.32-4.81,10.41-3,24.31,2.16,32,7.12,10.63,24.52,16.06,40.32,10.62,4.63,4.18,8.86,8.77,13.32,13.14-9,5.63-22.41,7.77-34.56,6.12-22.64-3.09-39.66-17.61-42.48-41C305.64,388.91,308.68,375.82,314.92,367.47Z" transform="translate(-162.64 -343.53)" fill-rule="evenodd"/>
    <path id="" d="M336.52,371.07c13.05,1.52,33.71-3.55,41,3.78,6.43,6.42,5.59,23.28-4.5,25.38,3.1,5.83,6.52,11.35,9.54,17.28H372.52c-3.48-5.17-6.33-11-9.54-16.38H345.7c-.42,5.1-.06,11-.18,16.38h-9.18C336.46,402.09,336.1,386.19,336.52,371.07Zm9,9.36v11.88c6.72-1.16,19.5,1.91,24.48-.9,2.12-1.2,3.47-5.42,2-8.46-2.83-5.79-18.92-1.92-26.28-3.06C345.49,379.92,345.5,380.17,345.52,380.43Z" transform="translate(-162.64 -343.53)" fill-rule="evenodd"/>
    </g>
    <polygon id="L" points="0.15 1.93 15.27 1.93 15.27 138.56 47.89 138.38 47.97 153.51 0.24 153.77 0.15 1.93" fill-rule="evenodd"/>
    <g id="A">
      <rect x="46.49" y="65.68" width="17.29" height="17.97"/>
      <polygon points="82.79 134.8 63.06 2.03 43.82 2.03 28.47 136.37 40.91 136.28 53.31 23.01 74.3 153.67 82.79 153.49 82.79 134.8" fill-rule="evenodd"/>
    </g>
  </g>
</svg>
