<svg id="Calque_14_Image" data-name="Calque 14 Image" xmlns="http://www.w3.org/2000/svg" width="16.98mm" height="54.93mm" viewBox="0 0 48.12 155.7">
  <path d="M185.14,343.09h4.68a42.9,42.9,0,0,1,5.94,1.26c3.18,15.9,6.8,31.36,10.08,47.16H193.42V374.05c0-6.54-.66-15.81-8.46-13.14-4.86,1.67-4.86,9.92-4.86,16.92a62.48,62.48,0,0,0,2.7,18.9c3.68,11,11.12,18.35,16.74,26.64a66,66,0,0,1,11,32.4c1.39,21.85-2.79,41-21.6,43h-4.86c-16.54-1.4-20.84-15-21.42-32.4V447.5c5.4.11,11.28-.25,16.38.17.09,6.21-.2,12.46.18,18.91.31,5.32.76,12.53,5.22,13.85a7.53,7.53,0,0,0,7.38-2.16c3.09-4.11,2.85-14,2.16-21.06A47,47,0,0,0,188.38,439c-5.57-10.13-13-17.52-18.54-29C160,389.54,158.75,344.87,185.14,343.09Z" transform="translate(-162.64 -343.09)" fill-rule="evenodd"/>
</svg>
