<svg id="Calque_14_Image" data-name="Calque 14 Image" xmlns="http://www.w3.org/2000/svg" width="17.47mm" height="53.59mm" viewBox="0 0 49.51 151.9">
  <path d="M248.32,344.89c11.2.36,20.16-.76,28.44.72,16.19,2.91,19.44,18.7,19.44,38.52,0,16.07-1.13,30-13.5,33.84,4.78,1.48,9.32,4.79,11.52,9.18,3.49,7,3.42,17,3.42,27.18,0,20.9-2.78,37.82-19.8,41.4-8.52,1.8-18.2.51-29.7.9V345.43C248.12,345.18,248.11,344.92,248.32,344.89Zm16.38,18.9v44.82c5.59.17,10.85-1,13.14-4.68,2.8-4.49,2-13.92,2-20.7,0-7.76-.2-15.53-4.5-18.36-2.43-1.59-6.68-1.65-10.44-1.62C264.67,363.29,264.68,363.54,264.7,363.79Zm0,63.36v50.58c5.81.21,11.55-.57,14-4.5,2.83-4.47,2.16-14.61,2.16-21.6,0-7.67.48-17.08-2.52-21.24-2.44-3.38-7.87-3.91-13.5-3.77C264.67,426.64,264.68,426.9,264.7,427.15Z" transform="translate(-248.13 -344.82)" fill-rule="evenodd"/>
</svg>
