<svg height='100px' width='100px'  fill="#000000" xmlns="http://www.w3.org/2000/svg" data-name="Слой 1" viewBox="0 0 100 100" x="0px" y="0px"><title>блокнот</title><path d="M22.47208,34.79176c-0.41121,1.24386-.00132,2.66022-0.1558,4.08941a11.70477,11.70477,0,0,0,.37109,4.1048c0.59524,2.2597.72976,4.59824,1.3988,6.835,0.78047,2.60943,1.51048,5.23419,2.23857,7.85889,0.12954,0.467.29737,0.53627,0.69659,0.28533,1.19715-.75257,2.63329-0.93358,3.87452-1.59533a0.77283,0.77283,0,0,1,.94585.1476c0.30993,0.31715.47368,0.52058-.07871,0.81026-1.33644.70079-2.81636,1.00553-4.18677,1.60363-0.11063.04828-.233,0.06993-0.343,0.11944-1.84164.82926-2.64529,0.40928-3.14029-1.59752-0.20387-.82647-0.51674-1.62644-0.71182-2.45451-0.0969-.41138-0.23872-0.36034-0.56875-0.28864a28.22807,28.22807,0,0,0-3.83805,1.44891A28.68511,28.68511,0,0,0,13.684,58.18155c-0.6487.401-1.31518,0.7745-1.98458,1.14036a0.93613,0.93613,0,0,1-1.08332.17784c-0.45352-.30709-0.26017-0.68393-0.14261-1.07067,0.5342-1.75731.90686-3.5514,1.31194-5.34092,0.49854-2.20238,1.10052-4.40364,1.63426-6.60078,0.7931-3.26476,2.05359-6.41471,2.59034-9.71714a20.0282,20.0282,0,0,1,2.63225-6.55787,12.52771,12.52771,0,0,1,4.86-5.2112c2.83559-1.45208,5.56014-3.15891,8.67389-4.11918,2.45881-.75829,4.96115-1.38245,7.39989-2.22942,1.38987-.4827,2.97522-0.36914,4.44174-0.6728a32.40716,32.40716,0,0,0,5.93012-1.38925,8.68856,8.68856,0,0,1,3.35574-.60726c1.82811,0.03693,3.69541-.37676,5.45.5791a4.19569,4.19569,0,0,1,2.15531,3.67891c-0.03086,1.03837-.01746,2.07334-0.1408,3.11246-0.19078,1.60722.67129,2.97807,1.20688,4.39725,0.9917,2.62763,2.19533,5.17673,3.14415,7.81834,0.36088,1.00476,1.29909,1.63149,1.46378,2.72185,0.04662,0.30859.29586,0.175,0.53355-.0358,1.54965-1.374,2.93483-2.91852,4.461-4.30945,1.39715-1.27335,2.76391-2.58623,4.13228-3.88295,2.12982-2.01829,4.30249-3.99341,6.40894-6.03731,1.10458-1.07181,2.2391-2.11348,3.32106-3.20739a0.551,0.551,0,0,1,.79411-0.16529,12.69053,12.69053,0,0,1,3.10467,2.83564,1.23564,1.23564,0,0,1-.19309,1.85216c-1.41478,1.52521-3.093,2.75311-4.47461,4.303-1.20343,1.35-2.73281,2.35838-4.019,3.63839-2.21967,2.20908-4.53092,4.326-6.79618,6.48949C72.69693,40.8784,71.583,42.02948,70.318,43.02553c-0.39573.3116-.70495,0.74406-1.0921,1.09471-0.318.288,0.03878,0.77526,0.16634,1.102,1.20291,3.08126,2.36609,6.17768,3.646,9.23009,1.57761,3.76238,3.15321,7.52449,4.77581,11.268,0.54388,1.25475.89855,2.59446,1.53336,3.82463,0.31242,0.60543-.00136.97368-0.61955,1.14255-1.078.29445-2.13337,0.64713-3.18775,1.02695C74.23,72.1864,72.892,72.613,71.58982,73.11032c-4.595,1.75493-9.16486,3.57558-13.748,5.36161C53.97854,79.97742,50.099,81.442,46.254,82.99265c-0.69115.27871-1.37634,0.6229-2.05515,0.95608a1.11993,1.11993,0,0,1-1.63288-.72555,27.3291,27.3291,0,0,0-1.86788-5.87559c-1.13107-3.04139-2.35448-6.0489-3.5673-9.05926-0.96233-2.38861-1.98294-4.75371-2.94985-7.14051-1.5718-3.88-3.18739-7.74431-4.65353-11.66423-0.82352-2.20183-1.704-4.37933-2.56122-6.56648-0.80337-2.04971-1.67582-4.07234-2.51264-6.109-0.09332-.22715-0.15269-0.46826-0.22744-0.703-0.37017-1.16239-.08862-1.55167,1.11138-1.74715a11.27843,11.27843,0,0,0,1.82912-.563,3.87383,3.87383,0,0,1,1.32662-.34935,1.41129,1.41129,0,0,0,1.64068-1.38672c0.05064-.814.05519-1.70752-0.89013-2.12261-1.21306-.53265-2.33949-1.22844-3.829-0.81657a3.79588,3.79588,0,0,0-2.56764,2.5352A5.92648,5.92648,0,0,0,22.47208,34.79176Zm41.203,6.72031a1.34836,1.34836,0,0,1-.82667-1.08841c-0.26905-.87252-0.62135-1.72142-0.973-2.566-0.61867-1.48575-1.21813-2.98259-1.81522-4.47358-0.62111-1.551-1.12865-3.14571-1.86181-4.65946a0.7821,0.7821,0,0,0-1.17947-.44173,8.51042,8.51042,0,0,1-1.40749.65433,37.23189,37.23189,0,0,0-4.999,1.5275c-4.36857,1.54352-8.74695,3.06168-13.08757,4.68072a35.82118,35.82118,0,0,0-5.25135,2.09237,0.75324,0.75324,0,0,0-.434,1.08076c0.58769,1.89327,1.33561,3.71987,2.07619,5.55584,1.3945,3.457,2.65778,6.96693,4.04545,10.42685,1.69874,4.23552,3.46658,8.44335,5.20948,12.6611,1.332,3.22333,2.61,6.46986,4.139,9.60858,0.53853,1.10544.82706,1.23742,2.0137,0.80165,3.43426-1.26115,6.85338-2.56136,10.26925-3.87223,4.41234-1.69325,8.86124-3.28614,13.15532-5.27247a1.3513,1.3513,0,0,0,.80523-1.92405c-0.66531-1.8489-1.59138-3.58635-2.24349-5.44765-0.74922-2.13846-1.65705-4.22481-2.56842-6.302-0.91816-2.09268-1.68769-4.2486-2.725-6.29193-0.32723-.64459-0.5738-0.57732-1.00545-0.14936-0.87424.86675-1.7505,1.73386-2.66624,2.55589q-3.77765,3.391-7.30162,7.04283a2.94613,2.94613,0,0,1-1.383.97616,8.21053,8.21053,0,0,0-1.96835.76643c-1.52094.81286-3.23019,1.33216-4.36417,2.76454A0.75421,0.75421,0,0,1,46.244,62.348a0.65977,0.65977,0,0,1,.04525-1.05643,15.51248,15.51248,0,0,0,2.37953-3.97714,17.39514,17.39514,0,0,1,4.10195-5.58286c1.504-1.28153,2.87-2.72355,4.35923-4.03564C59.36709,45.72483,61.47376,43.60559,63.6751,41.51207ZM12.76952,57.25628c1.09706-.43951,2.12092-0.90443,3.18079-1.26283,2.16252-.73128,4.28823-1.555,6.40539-2.40481,0.425-.17059.6-0.24838,0.36846-0.8453a18.96224,18.96224,0,0,1-1.30695-3.88622,56.30733,56.30733,0,0,0-1.02244-6.10958,27.07726,27.07726,0,0,1-.68306-4.71123,19.01748,19.01748,0,0,1,.71994-6.59213,5.88471,5.88471,0,0,1,5.24668-4.79c1.18919-.14174,2.4734-0.57061,3.66825.1059,0.39949,0.22619.76772,0.50715,1.16433,0.739A4.12487,4.12487,0,0,1,32.588,32.13313c-0.12283.63685-.17856,1.28663-0.26325,1.91742a6.257,6.257,0,0,0,1.81883-.543c3.46664-1.0018,6.80159-2.38289,10.17273-3.64084,4.484-1.67325,9.007-3.247,13.44439-5.04005C58.4552,24.546,59.562,24.521,59.61892,23.3455q0.062-1.28109.09225-2.56371a3.284,3.284,0,0,0-2.10045-3.41786,8.14145,8.14145,0,0,0-5.07772.086,35.25621,35.25621,0,0,1-5.18284,1.0474c-1.766.29145-3.49269,0.77578-5.29438,0.939a42.39016,42.39016,0,0,0-6.76724,1.57594,30.30988,30.30988,0,0,0-4.57588,1.5275c-2.34157,1.0339-4.547,2.38331-6.78241,3.648a6.84838,6.84838,0,0,0-3.2935,3.49828,51.56365,51.56365,0,0,0-2.2057,6.80318c-0.57979,2.68929-1.51612,5.26794-2.13143,7.94794-0.84516,3.68119-2.24834,7.22864-3.11466,10.91948A6.90512,6.90512,0,0,0,12.76952,57.25628Zm51.7886-16.61854c0.55721-.55352,1.63449-0.87546.65975-1.939a1.04154,1.04154,0,0,1-.1716-0.42179c-0.6581-2.36784-1.72242-4.58981-2.4836-6.92676C62.03983,29.745,61.3133,28.172,60.63428,26.60249c-0.3184-.736-0.28909-1.84513-1.51122-0.81777a0.88442,0.88442,0,0,1-.27266.03334c-1.29393.35391-2.61106,0.642-3.87538,1.08169q-5.54842,1.92955-11.06084,3.96233c-3.44239,1.26119-6.88189,2.53277-10.29417,3.8724a30.99345,30.99345,0,0,1-3.66309,1.13164,15.2648,15.2648,0,0,0-3.501.92909,0.71646,0.71646,0,0,0-.413,1.10382c0.96034,2.44312,1.941,4.87963,2.83306,7.34787,1.177,3.25658,2.54823,6.43686,3.74681,9.6824,0.78563,2.12734,1.73927,4.18259,2.56473,6.292a29.03692,29.03692,0,0,0,1.76961,4.34294,29.283,29.283,0,0,1,2.1062,4.88309c0.82652,2.25458,1.9252,4.39816,2.6229,6.703,0.45957,1.51815,1.37634,2.8545,1.90393,4.35815a1.0005,1.0005,0,0,0,1.36582.85169c1.74986-.64033,3.53533-1.19467,5.25035-1.9169,5.23774-2.2057,10.60395-4.07851,15.88315-6.17791,3.76764-1.4983,7.46462-3.15664,11.23031-4.6527,0.31957-.127.41311-0.23791,0.27822-0.60082-0.79131-2.12885-1.51618-4.28274-2.32656-6.40407q-1.76835-4.629-3.62946-9.22236c-0.9976-2.45213-2.06762-4.87488-3.114-7.307-0.1186-.27564-0.16274-0.79009-0.596-0.60291a3.276,3.276,0,0,0-1.18534,1.09536c0.61031,0.32182.21509,0.94316,0.4132,1.41385C67.9067,49.75933,68.516,51.58828,69.2911,53.357c0.99909,2.2797,1.79816,4.64927,2.84394,6.90571,1.0859,2.343,2.19544,4.67274,3.14847,7.07387a1.36374,1.36374,0,0,1-1.054,2.01817,21.59209,21.59209,0,0,0-3.66483,1.0708c-1.86421.75735-3.6957,1.61675-5.60467,2.23718-2.52045.81917-4.9576,1.84107-7.42854,2.78068-1.93743.73674-3.826,1.62948-5.8064,2.21615-1.33123.39436-2.45481,1.20852-3.83082,1.51849-1.008.22708-1.0012,0.35454-1.49188-.54147a11.141,11.141,0,0,1-.65924-2.08191c-0.99556-3.07243-2.364-6.00162-3.45148-9.03922-0.34983-.97712-0.88391-1.91485-1.193-2.885-1.01021-3.17124-2.54452-6.12909-3.59334-9.28411-0.81464-2.45059-1.89435-4.8121-2.82361-7.22578a82.20442,82.20442,0,0,0-4.43881-10.37812,0.82185,0.82185,0,0,1,.54524-1.29057c1.29815-.423,2.57713-0.91727,3.885-1.28931,1.67019-.4751,3.28184-1.08742,4.90935-1.67569,3.27073-1.18219,6.53026-2.39524,9.8144-3.54287a71.4028,71.4028,0,0,0,7.25577-2.77835,3.93262,3.93262,0,0,1,.90568-0.42756c1.07957-.22271,1.24432.62493,1.51447,1.29041,1.174,2.892,2.25431,5.824,3.50352,8.68249C63.15364,38.032,63.47785,39.50851,64.55812,40.63775ZM52.05019,54.31631c0.79722-.13421,1.41921.2217,1.94155-0.25521,1.72272-1.57281,3.45558-3.13657,5.12751-4.76244,2.20506-2.14434,4.54558-4.1395,6.742-6.29688,2.53947-2.49439,5.27736-4.78557,7.89469-7.20226,2.54172-2.3469,5.02405-4.75817,7.56872-7.10183a13.234,13.234,0,0,0,1.45248-1.88282,0.57757,0.57757,0,0,0-.1124-0.94572,0.59737,0.59737,0,0,0-.9422.09364c-0.43523.53844-1.00166,0.96838-1.46938,1.48338-1.6987,1.87036-3.91381,3.146-5.63625,5.00763-1.72007,1.85913-3.891,3.253-5.623,5.11894a15.29876,15.29876,0,0,1-1.53073,1.93709c-0.91726.72529-1.79667,1.5028-2.65241,2.30071-2.49894,2.33011-4.87377,4.78811-7.35761,7.13645A58.56946,58.56946,0,0,0,52.05019,54.31631Zm2.69623,2.161c9.868-9.54875,20.10221-18.53693,29.61764-28.39184a1.29831,1.29831,0,0,0-.828.32388,17.719,17.719,0,0,0-2.84635,2.46053c-4.29486,3.90827-8.62329,7.77971-12.90935,11.69756-1.84254,1.68424-3.59506,3.46656-5.418,5.17276-2.09522,1.961-4.28277,3.82788-6.30333,5.86167C55.38706,54.27825,54.15506,54.8566,54.74642,56.4773ZM87.72664,23.74315c-0.02276-.05614-0.042-0.114-0.06878-0.16815a3.18052,3.18052,0,0,0-1.48624-1.30831c-0.4351-.23029-0.703.342-1.02731,0.59229-0.33845.26117-.70021,0.492-1.04085,0.75047a0.99374,0.99374,0,0,0-.26884,1.66848,5.20571,5.20571,0,0,1,1.0577,1.30965,0.39872,0.39872,0,0,0,.52625.22012A5.55555,5.55555,0,0,0,87.72664,23.74315Zm-35.8164,31.6932c-0.31716.334-.97974-0.13371-1.18515,0.44628a22.30569,22.30569,0,0,1-1.107,2.26964c-0.07589.15609-.438,0.37947-0.05054,0.60813a0.64753,0.64753,0,0,0,.77072.09067,11.0164,11.0164,0,0,1,2.1859-1.114,1.177,1.177,0,0,0,.704-1.33668C53.10307,55.672,52.47565,55.61585,51.91024,55.43635ZM21.28041,39.96519a0.659,0.659,0,0,0,.18974-0.71945,15.98819,15.98819,0,0,1,.20455-5.57844,10.437,10.437,0,0,1,.79872-2.99807,4.07556,4.07556,0,0,1,4.09211-2.43368c0.40048,0.03084.80055,0.067,1.23376,0.10345a0.76923,0.76923,0,0,0-.67122-0.48282,4.89453,4.89453,0,0,0-3.20035.60964,5.50022,5.50022,0,0,0-2.3622,3.59423,33.48243,33.48243,0,0,1-.46957,3.55039C20.59478,37.10225,21.29741,38.51463,21.28041,39.96519ZM25.371,35.83133a1.84534,1.84534,0,0,0,.4448-0.0045,13.15435,13.15435,0,0,1,3.40129-.94043c1.59563-.07752,1.62312-0.32053,1.98436-1.83684a10.76524,10.76524,0,0,0-.01043-2.17207,2.40221,2.40221,0,0,0-3.086-2.33761c0.32572,0.51429.95027,0.33968,1.38287,0.62115a3.96394,3.96394,0,0,1,.80407,5.05349,0.51971,0.51971,0,0,1-.46106.267c-1.26151-.2128-2.32863.51354-3.50211,0.72531A0.95073,0.95073,0,0,0,25.371,35.83133Zm-3.15825,8.41734c-0.22591,2.19918,1.09342,7.53143,1.9684,8.03363A51.67751,51.67751,0,0,1,22.21279,44.24866ZM15.9205,42.586a10.04771,10.04771,0,0,0-1.22083,4.67126A20.78111,20.78111,0,0,0,15.9205,42.586Zm1.79389-6.89086c-0.56858,1.042-.419,2.23807-0.75576,3.327A10.33647,10.33647,0,0,0,17.71439,35.69515Z"></path></svg>