<svg height='100px' width='100px'  fill="#000000" xmlns="http://www.w3.org/2000/svg" xmlns:xlink="http://www.w3.org/1999/xlink" version="1.1" x="0px" y="0px" viewBox="0 0 100 100" style="enable-background:new 0 0 100 100;" xml:space="preserve"><path d="M69.2,57.5c-2.6,0.1-4.6-0.2-6.6,0.6c-2.3,0.9-3.2,2.2-3,4.7c0.2,2,0.6,4,1.2,6c0.3,1,0.6,2,1,2.9c0.6,1.3-0.1,2.4-0.2,3.7  c-0.4,3.1-2.3,5-4.9,6.6c-2.5,1.5-5.3,2.2-8.1,2.7c-0.8,0.1-1.3,0.4-1.6,1.4c-0.5,2-1.4,4-1.4,6.1c0,0.8-0.8,1.7-1.2,2.5  c-0.3,0.6-0.6,1.3-1.4,1c-0.7-0.2-1.2-0.8-1.2-1.7c0-0.8,0.2-1.6,0.4-2.4c0.4-1.3,0.8-2.7,1.2-4c0.1-0.3,0.3-0.7,0.3-1  c0.2-1.5-0.1-1.9-1.7-2.1c-0.9-0.1-1.9,0-2.8-0.2c-1.8-0.3-3.2-1.4-4.7-2.5c-2.4-1.8-4.8-3.6-6.8-5.9c-1.4-1.6-3-3-4-4.9  c-2.3-4.1-3.6-8.4-3-13.2c0.2-1.9,0.1-3.9,0.6-5.8c0.7-2.8,1.1-5.8,2.5-8.4c1.7-3.2,3.6-6.3,6.1-9c1.7-1.9,3.6-3.5,5.3-5.2  c0.7-0.7,1.4-1.3,2.3-1.7c3.8-1.6,7.7-3.2,11.9-3.7c3.2-0.4,6.4-0.4,9.6,0.2c1.6,0.3,1.6,0.3,2.2-1.2c0.4-1.1,0.6-2.2,0.7-3.4  c0-0.6-0.1-1.1-0.4-1.6c-1.4-2.1-1.1-4.6,0.8-6.5c0.7-0.7,1.5-1.4,2.3-2c1.1-0.8,1.9-1.7,2.2-3.2c0.2-1.1,1-1.4,1.9-0.7  c0.5,0.4,1,0.9,1.3,1.4c2.1,3.6,1.1,9.5-2.2,12.2c-0.8,0.7-1.5,1.6-2.6,1.9c-0.8,0.3-1,1.1-1,1.8c0,0.8-1.3,1.3-0.6,2.1  c0.4,0.5,1.3,0.6,1.9,1c2.9,1.9,6.1,3.6,8.7,5.8c2.6,2.2,4.9,4.8,6.9,7.6c1.2,1.7,1.4,3.8,2.1,5.7c0.3,0.8-0.4,1.5-0.6,2.3  c-0.3,2.1-1.3,4-2.3,5.9c-0.5,0.9-1.3,1.5-2.2,2.1C75,57.2,71.9,57.8,69.2,57.5z M59.9,25.5c-7-1-13.5-0.5-19.6,2.7  c-2.8,1.5-5.7,3.1-7.8,5.5c-2,2.3-3.8,4.8-5.6,7.3c-1.5,2.3-2.8,4.7-3.4,7.3c-0.7,3-0.7,6-0.2,9.1c0.3,1.9,0.9,3.7,1.3,5.5  c0.7,3.1,2.1,5.9,4.4,8.2c2.2,2.2,4.7,4.1,7.2,6c2,1.5,4.1,2.7,6.4,3.8c2.1,1,4.2,1.7,6.6,1.1c1.6-0.4,3.4,0.1,5-0.6  c4-1.6,8.1-6.5,5.2-12.1c-0.8-1.6-1.2-3.4-1.4-5.3c-0.3-4.3,2.1-8.2,6.4-9.2c1.4-0.3,2.9-0.5,4.3-0.5c2.2,0,4.4-0.4,6.4-1.1  c3.9-1.3,6.6-6,5.6-10c-0.4-1.7-1.3-3.2-2.5-4.6c-2.5-3-5.5-5.5-8.5-7.9c-1.9-1.5-4.2-2.7-6.3-3.9c-0.7-0.4-1.2-0.3-1.4,0.6  c-0.2,1.1-0.5,2.2-0.9,3.2c-2.1,4.8-3,9.9-4.7,14.8c-0.5,1.5-0.2,2,1.3,2.7c0.8,0.4,1.4,0.9,1.2,1.8c-0.4,2.9-1.2,5.7-3.4,7.9  c-1.7,1.6-3.7,1.7-5.5,0.3c-0.9-0.6-1.3-1.4-1.3-2.6c0.2-2.2,1-4,2.6-5.3c1.3-1.1,2.1-2.5,2.5-4.2c1-3.6,1.8-7.2,3-10.8  C58,32.2,59.2,29.1,59.9,25.5z M46.3,83.7c-0.6-0.2-1-0.4-1.5-0.6c-2.8-0.7-5.4-1.7-8-2.9c-1.3-0.6-2.7-1.1-3.4-2.3  c-1-1.6-2.5-2.6-3.8-3.9c-1-1-2.2-1.8-2.9-3c-1.8-3-3.5-6.1-4.1-9.6c-0.1-0.3-0.1-0.6-0.2-0.8c-0.1-0.2,0-0.7-0.6-0.7  c0.1,3.5,0.8,6.7,2.8,9.6c2.4,3.5,5.3,6.6,8.6,9.2C36.9,81.7,41.1,83.9,46.3,83.7z M54.4,57.6c2.5-1.8,3.2-4.6,3.8-7.3  c0.2-0.7-0.7-0.8-1.1-1.1c-0.5-0.3-0.8,0-1,0.5C54.8,52.1,54.7,54.9,54.4,57.6z M66.2,56.3c1.6,0,3.2-0.1,4.8,0  c2.4,0.1,4.4-0.8,6.4-1.8c0.5-0.2,0.8-0.5,0.8-1.3c-2,1.1-3.9,1.6-5.9,2.1C70.3,55.8,68.3,55.7,66.2,56.3z M52,52.2  c-1.8,1-2.6,2.9-2,4.3c0.1,0.3,0.4,0.7,0.8,0.6c0.4,0,0.3-0.4,0.4-0.7C51.5,55.1,51.7,53.7,52,52.2z M65.2,17.3  c2.5-1.3,3.2-2.6,2.4-4.1C66.8,14.5,66,15.9,65.2,17.3z M65.4,13.7c0.3-0.3,0.4-0.6,0.7-0.8c0.6-0.4,0.9-0.8,0.7-1.6  c-0.1-0.2-0.3-0.4-0.5-0.3c-0.6,0.5-1.4,0.8-1.3,1.7C65,13.1,65.2,13.3,65.4,13.7z M62.5,16.5c2-1.9,2-1.9,1.2-3.4  C63.7,14.4,62.9,15.1,62.5,16.5z M67.9,11.4c0.3-0.1,0.3-0.4,0.3-0.6c0-0.3,0-0.5-0.1-0.8c-0.3,0.2-0.3,0.4-0.3,0.6  C67.9,10.9,67.9,11.1,67.9,11.4z"></path><path d="M46.8,32.5c-0.1-3.3,2.9-5.7,6.1-5.1c1.4,0.3,3.1,0.3,3.7,2.1c0.4,1,0.3,2,0.2,3c-0.4,2.4-2.3,3.5-4.3,4.3  c-1.7,0.6-3.3,0-4.6-1.2C46.8,34.7,46.8,33.5,46.8,32.5z"></path><path d="M35.4,55.5c0.4,1.7-0.6,3.2-2,4.1c-1.7,1.2-3.7,0.7-5.6-0.2c-0.6-0.3-1-0.8-1.3-1.4c-1.2-2.7,0.7-6.7,3.6-7.4  c2.9-0.7,5,0.9,5.2,3.9C35.4,54.7,35.4,55,35.4,55.5z"></path><path d="M47,79.2c-0.9,0-2,0-3-0.8c-1.7-1.5-2.1-3.4-1.2-5.5c0.9-1.9,3.3-3.3,5.4-3c3.4,0.5,4.4,3.6,3.3,5.7  c-0.1,0.3-0.2,0.5-0.4,0.8C50.1,79.1,50,79.2,47,79.2z"></path><path d="M72.9,50.7c-2.9,0-4.3-1.8-3.9-4.6c0.8-4.7,4-4.9,7.3-4.3c0.8,0.1,1.2,0.8,1.5,1.5c1.4,3.2-0.1,6.2-3.5,7.1  C73.8,50.6,73.3,50.6,72.9,50.7z"></path><path d="M32.2,40.2c0.1-2.3,1.6-3.8,3.5-5c1.6-1.1,3.2-0.9,4.9,0c1.7,0.9,1.2,2.4,1.2,3.7c0,1.3-0.6,2.5-1.6,3.5  c-1,0.9-1.6,2.5-3.3,2.6c-0.3,0-0.8,0.3-1,0c-0.6-0.8-1.6-0.9-2.4-1.5C32.4,42.7,32.2,41.5,32.2,40.2z M33.5,40.3  c0,2.5,2.1,3.8,4.4,2.7c1-0.5,1.6-1.4,2.3-2.3c0.6-0.9,0.6-1.9,0.3-2.9c-0.3-1.1-1.9-1-2.3-2.2c0-0.1-0.4,0-0.6,0  C35.4,35.8,33.5,38.1,33.5,40.3z"></path><path d="M65.6,32.6c2.5,0,3.9,0.9,4.3,2.8c0.4,1.8-0.9,4.5-2.6,5.4c-2.3,1.2-4.1,1.1-5.9-0.4c-0.7-0.5-1-1.3-1.1-2.1  C60,35.6,62.8,32.5,65.6,32.6z M64.7,40.3c1.9,0,3-0.8,3.8-2.7c0.7-1.5-0.4-2.3-1.2-3.2c-1.2-1.2-2.1-1.4-3.4-0.6  c-1.4,0.9-2,2.5-2.4,4c-0.2,0.6,0.3,1.3,0.8,1.7C63.1,40,63.9,40.4,64.7,40.3z"></path><path d="M41.1,67c-0.2,2.2-1,3.8-2.5,5.1c-0.8,0.7-1.8,0.9-2.9,0.6c-2.5-0.6-3.6-1.8-3.8-4.1c-0.2-2,1.6-5,3.4-5.7  c1.1-0.4,4.4,0.1,4.9,1.1C40.8,65,40.9,66.2,41.1,67z M33.2,68.2c0,1.7,0.9,2.9,2.8,3.4c1.5,0.4,2.3-0.1,3.4-2  c0.2-0.4,0.4-0.8,0.5-1.2c0.5-1.3-0.2-3.5-1.4-4.2c-1-0.6-2.8-0.7-3.5,0C34,65.2,33.1,66.4,33.2,68.2z"></path></svg>