<svg height='100px' width='100px'  fill="#000000" xmlns="http://www.w3.org/2000/svg" data-name="Слой 1" viewBox="0 0 100 100" x="0px" y="0px"><title>School_Монтажная область 1_Монтажная область 1_Монтажная область 1_Монтажная область 1_Монтажная область 1</title><path d="M60.27489,17.22774c-1.63046-1.9636-1.51794-2.66262.56511-4.47445,1.456-1.26652,2.77043-2.69687,4.238-3.94853a20.0169,20.0169,0,0,1,2.3182-1.311,6.20861,6.20861,0,0,0,1.56627-1.29027c.66057-.83893,1.11039-1.84495,1.77906-2.6759.88386-1.09847,1.79062-1.9809,3.44616-.9141.90448.58281,2.19184.57442,3.30823.825,3.8721.8694,7.71681,5.04238,8.40056,8.89112.25749,1.4497.09578,2.45851-1.19148,3.34062a8.96456,8.96456,0,0,0-1.6305,2.14854c1.91066,1.1721,1.44989,2.22313.19327,3.745-1.32194,1.6009-2.02828,3.69707-3.13665,5.49484-.36744.59608-1.15674,1.33678-1.73655,1.32275-1.86074-.045-2.59676,1.05632-3.51626,2.40251-2.62547,3.8438-5.5183,7.50412-8.18125,11.3235C61.869,49.0323,57.21864,56.08255,52.31961,62.95611c-2.57621,3.61433-5.60591,6.90252-8.26344,10.463-1.25047,1.67533-2.06256,3.67195-3.15939,5.47049a6.9057,6.9057,0,0,1-1.923,2.37471C34.56519,83.97,29.86414,86.25,25.68876,89.265c-2.38129,1.71961-4.00028,4.52343-5.87285,6.90944-1.36228,1.73579-2.8434,2.18557-4.43895,1.1268-1.59318-1.05719-1.77952-2.27986-.68511-4.23474a16.31462,16.31462,0,0,1,.71318-1.568c3.54545-4.962,3.64827-10.96536,5.025-16.57751.61536-2.50855,1.03727-5.06424,1.56614-7.59459a1.81075,1.81075,0,0,1,.39757-.958c7.37476-6.45606,11.8424-15.164,17.684-22.80518Q46.47642,35.19375,52.795,26.76317c1.37864-1.83106,2.65226-3.74212,4.0553-5.55364C57.885,19.87346,59.052,18.63961,60.27489,17.22774ZM32.4833,68.5278c3.67559,1.67744,3.63793,1.654,5.443-1.24834,1.36332-2.192,2.882-4.28707,4.25636-6.47264C47.69315,52.04339,54.7564,44.50309,61.2061,36.4764c2.96828-3.69414,5.56595-7.68615,8.325-11.53372-2.68256-1.9627-4.17732-1.66248-5.638.64183-1.67075,2.63577-3.43332,5.21391-5.18164,7.79974a32.9328,32.9328,0,0,1-2.13582,2.90062c-2.74771,3.23425-5.736,6.28516-8.2626,9.6812-3.74991,5.04042-7.17054,10.32518-10.7586,15.487C35.931,63.78863,34.242,66.07863,32.4833,68.5278Zm4.96818,4.04487c2.91427,1.298,2.98172,1.35206,4.83631-.96383,3.35911-4.19442,6.78677-8.348,9.89932-12.72254,4.72942-6.64685,9.1812-13.49059,13.816-20.20569,2.59594-3.76119,5.323-7.43177,7.98667-11.13716-1.83623-1.10415-1.902-1.15449-3.144.46868-1.60719,2.10039-2.97534,4.39172-4.66319,6.42052-2.91469,3.50341-6.16776,6.734-8.96851,10.32144C52.79854,50.40985,48.576,56.2203,44.39718,62.05527,41.98521,65.42326,39.81974,68.96775,37.45148,72.57267ZM30.19936,67.485c.86832-1.2379,1.55721-2.22712,2.25326-3.21126C36.46406,58.60142,40.43691,52.90108,44.511,47.274c1.49909-2.07053,3.31575-3.90919,4.85243-5.95511,3.11776-4.15088,6.16188-8.35764,9.20041-12.56732,1.88925-2.61768,3.71254-5.283,5.5558-7.913-2.09661-1.52274-2.89539-1.27254-4.64135,1.06433q-8.802,11.78044-17.56442,23.59032c-4.138,5.59945-8.088,11.3428-12.36863,16.82943C27.92994,64.39317,28.79448,65.64355,30.19936,67.485Zm-6.49825,2.95682c-.12993.88828-.21859,1.81916-.40747,2.72919-.7735,3.72634-1.67961,7.42939-2.29837,11.18039a4.3563,4.3563,0,0,0,1.00922,2.95446c.22318.2893,1.67-.106,2.38551-.50168q4.05588-2.243,7.986-4.71143a57.7372,57.7372,0,0,0,5.24567-3.683,2.09322,2.09322,0,0,0,.46854-1.81144,1.70873,1.70873,0,0,0-1.3874-.92864c-1.7112.20656-2.11487-.79293-2.34783-2.12244-.27325-1.55929-1.26255-1.97827-2.69281-1.5893-2.87729.78262-2.83506.77477-3.78748-2.18618a13.55649,13.55649,0,0,0-1.29-2.34188c-.74842.61282-1.52882,1.1917-2.23,1.85454A4.6264,4.6264,0,0,0,23.70111,70.44179Zm52.111-45.06115a10.24467,10.24467,0,0,0,2.11027-1.20223,10.16689,10.16689,0,0,0,1.48634-2.09565c.75689-1.10462.61195-1.63274-.68718-2.46208a55.47708,55.47708,0,0,1-9.20192-6.85643c-2.3256-2.28758-2.64267-2.69588-5.02995-.41373-.36081.34476-.66373.75726-1.05165,1.0651-1.10524.87724-.97556,1.75681-.15731,2.76014C66.49758,20.12043,70.70727,22.742,75.81208,25.38064ZM71.91787,7.13575c-1.39212,1.25464-1.56619,2.73294-.02585,4.16377a63.09925,63.09925,0,0,0,5.01507,4.23776c2.74082,2.05888,2.91484,1.981,4.49781-.43539C78.23707,12.44191,75.11576,9.821,71.91787,7.13575ZM82.22061,12.2775q.22209-.26431.44409-.52861c-1.69625-2.66661-3.33264-5.40576-6.86461-5.84749q-.20316.24363-.4064.48717Q78.80719,9.33307,82.22061,12.2775Z"></path></svg>