<svg height='100px' width='100px'  fill="#000000" xmlns:x="http://ns.adobe.com/Extensibility/1.0/" xmlns:i="http://ns.adobe.com/AdobeIllustrator/10.0/" xmlns:graph="http://ns.adobe.com/Graphs/1.0/" xmlns="http://www.w3.org/2000/svg" xmlns:xlink="http://www.w3.org/1999/xlink" version="1.1" x="0px" y="0px" viewBox="0 0 100 100" style="enable-background:new 0 0 100 100;" xml:space="preserve"><g><g i:extraneous="self"><path d="M88.9,11.9c1-0.1,1.9,0.2,2.6,0.6c2.5,1.5,4.6,3.5,6.1,6.1c1,1.8,0.9,3.5-0.5,5c-1.1,1.2-2.2,2.4-3.3,3.6    c-0.2,0.3-0.7,0.6-0.6,0.9c0.5,1.2-0.5,1.6-1.1,2.1c-2.6,2.4-5,5.1-7.5,7.6c-4.3,4.3-8.5,8.7-12.7,13c-2.7,2.8-5.4,5.6-8.1,8.4    c-4.3,4.5-8.7,9-12.9,13.6c-1,1.1-2.1,2.2-3.1,3.4c-0.5,0.6-1.2,1.1-1.9,1.4c-2.8,1.1-5.4,2.7-8.1,3.9c-2.1,1-4.1,2.3-6.3,3.2    c-0.9,0.4-1.6,1.1-2.5,1.4c-0.5,0.2-0.9,0.2-1.3-0.2c-0.4-0.4-0.4-1-0.1-1.4c1.4-1.7,1.7-3.9,3-5.6c0.2-0.3,0.4-0.6,0.5-1    c0.9-3.8,2.2-7.4,3.3-11.2c0.1-0.5,0.3-0.8,0.7-1.2c4.5-4.1,8.3-8.9,12.6-13.2c2.9-3,5.8-6.1,8.6-9.1c3.5-3.7,6.8-7.6,10.4-11.2    c2.8-2.9,5.7-5.6,8.3-8.6c1.7-1.9,3.7-3.5,4.9-5.8c0.1-0.2,0.5-0.5,0.7-0.5c1.8-0.2,2.8-1.5,3.5-2.9C85.1,12.4,87,12.2,88.9,11.9z     M92.7,17.7c0.8-2.9-1.6-4.7-3.7-4.1c0.7,0.5,1.4,1,2.1,1.4c0.2,0.2,0.7,0.3,0.5,0.6c-0.4,0.9,0.5,1.1,0.8,1.6    c-1.3-0.3-1.9-1.8-3.2-2.2c0.2,0.8,1.1,1.2,1,2.1c-0.6,0-1-0.6-1.5-0.4c0,0.7,0.8,0.9,0.7,1.6c-0.5-0.1-0.6-0.8-1.4-0.8    c1.2,1.6,2.8,2.7,3.8,4.3l-0.1-0.1c-0.2,0.8,0.5,1.3,0.9,2c-0.8-0.3-1.6-0.7-2.1-1.4c-0.1-0.2-0.3-0.3-0.3-0.6    c0.1-0.9-0.2-1.4-0.8-1c-0.7,0.4-0.9,0-1.2-0.3c-0.3-0.4-0.8-0.5-1.1-0.9c-0.7-0.6-1.8-0.5-2.2-1.7c-0.1-0.3-0.8-0.6-1.2,0    c-0.5,0.6,0,0.7,0.4,1c1.8,1.3,3.5,2.8,5.1,4.4c0.2,0.2,0.5,0.4,0.6,0.6c0.4,0.8,1.1-0.2,1.6,0.4c0.3,0.5,0.8,0.9,1.2,1.3    c0.2,0.2,0.6,0.2,0.6-0.1c0.2-0.9,1.2-1.1,1.7-1.7c0.3-0.3,0.4-0.5,0.2-0.9c-0.4-1-1.1-1.9-1.8-2.9c1.1-0.2,1.3,1.1,2.1,0.9    c0.2,0,0.4,0,0.5,0.1c0.3,0.1,0.4,0.6,0.7,0.4c0.4-0.2,0.3-0.6,0.2-0.9c-0.1-0.2-0.2-0.4-0.1-0.7c0.4-1.3-0.7-1.9-1.4-2.7    c-0.2-0.3-0.6,0-0.8,0.1c-0.3,0.2,0,0.4,0.1,0.5c0.5,0.4,0.2,0.9,0.1,1.3C93.6,19.2,93.5,18,92.7,17.7z M84.7,25.2    c-0.7-0.6-1.3-1.1-1.9-1.6c-0.5-0.4-1.1-1-1.7-0.9c-0.4,0.1-0.7,0.7-1.1,1.1c-6.2,5.8-12,12-17.8,18.2c-3.9,4.2-7.6,8.5-11.6,12.6    c-3.3,3.4-6.5,6.8-9.7,10.1c-0.8,0.8-1.5,1.8-2.2,2.7c-0.2,0.3-0.5,0.6-0.1,1c0.7,0.6,1.5,1.3,2.2,1.8c0.3,0.2,0.6,0.1,0.8-0.1    c0.4-0.3,0.7-0.6,1.1-1c2.7-2.9,5.4-5.9,8.2-8.7c6-6,11.6-12.3,17.3-18.5c5-5.4,10.5-10.4,15.4-16C83.9,25.6,84.2,25.4,84.7,25.2z     M87.7,28.8c-0.1-0.3-0.2-0.5-0.4-0.7c-0.3-0.4-0.8-0.8-1.1-1.2c-0.5-0.8-1-0.9-1.7-0.2c-0.9,0.9-1.9,1.7-2.7,2.6    c-3.4,3.5-6.8,7.1-10.2,10.6c-3,3.2-6,6.4-9,9.5c-4.3,4.5-8.3,9.2-12.7,13.5c-2.4,2.4-4.6,5-6.9,7.5c-0.3,0.3-0.8,0.7-0.3,1.2    c0.7,0.7,1,1.7,2,2c0.1,0,0.3-0.1,0.5-0.2c0.3-0.2,0.5-0.5,0.8-0.8c2.7-2.8,5.4-5.7,8.2-8.5c3.1-3.1,6-6.3,9.1-9.5    c4.6-4.8,9-9.8,13.7-14.5c3.5-3.5,6.8-7.2,10.3-10.8C87.3,29.3,87.4,29,87.7,28.8z M89.1,30.9c-0.1-0.5-0.5-0.7-1-0.4    c-1.4,0.8-2.3,2.1-3.4,3.3c-4.9,5-9.8,10-14.6,15c-7.4,7.7-14.6,15.5-21.9,23.3c-0.8,0.8-1.5,1.7-2.3,2.6    c-0.2,0.2-0.3,0.5-0.1,0.8c0.3,0.3,0.6,0.1,0.8-0.1c0.8-0.8,1.6-1.5,2.3-2.3c4.5-5.1,9.6-9.8,14.2-14.8c3-3.2,6.1-6.2,9.1-9.4    c3.5-3.6,6.9-7.2,10.3-10.8c1.9-2,4.1-3.8,5.9-6C88.7,31.8,89.1,31.5,89.1,30.9z M45.1,76.5c-1.2-1.5-2.1-2.8-3.2-3.9    c-1.6-1.6-3.2-3.1-5.3-4.1c-1.2-0.6-1.5-0.6-1.9,0.7c-0.8,2.5-1.5,5-2.2,7.5c-0.2,0.5-0.2,0.9,0.4,1.2c1.1,0.5,1.9,1.4,2.3,2.5    c0.3,0.7,0.7,0.7,1.3,0.4c1-0.4,2-0.9,3-1.4C41.3,78.5,43.1,77.6,45.1,76.5z M79.8,22.2c-0.9-0.7-1.4-0.6-1.9,0    c-1.7,2-3.7,3.8-5.6,5.7c-9,8.9-17.3,18.6-26.2,27.6c-2.9,2.9-5.6,6-8.4,9.1c-0.5,0.5-0.9,1-1.3,1.5c-0.2,0.3-0.6,0.5-0.1,0.9    c0.4,0.3,0.7,0.2,1-0.1c0.4-0.4,0.8-0.7,1.2-1.1c1.7-1.9,3.4-3.8,5.2-5.6c4.1-4.3,8.2-8.5,12.2-12.8C60,43,64,38.4,68.3,34    C72.2,30.1,75.9,26.2,79.8,22.2z M81.5,19.1c-0.7,0-1.1,0.5-1.4,1c-0.3,0.5,0.3,0.7,0.6,0.9c0.3,0.2,0.6,0.4,0.9,0.6    c2.3,1.2,4,2.9,5.6,4.8c0.8,1,1.7,1.9,2.4,2.9c0.5,0.6,0.9,0.5,1.3,0.1c0.7-0.6,0.8-1.3,0.2-2.1c-2.3-3.5-5.5-6.1-9.2-8    C81.9,19.2,81.7,19.2,81.5,19.1z M87.5,14c-1.3,0.1-2,1.1-2.6,2c-0.2,0.3,0,0.6,0.2,0.8c0.2,0.2,0.5,0.2,0.7,0.1    c0.2-0.2,0.7-0.3,0.4-0.6c-0.7-1,0.1-0.6,0.5-0.8c0.6-0.4,1.1,0.2,1.6-0.1C88.2,14.8,87.9,14.3,87.5,14z M95.4,21.8    c-0.1,0.1-0.3,0.1-0.2,0.2c0.1,0.3,0.2,0.6,0.6,0.6c0.1,0,0.2-0.1,0.2-0.2C95.9,22,95.7,21.8,95.4,21.8z"></path><path d="M7.7,84.8c0.7,0,1.4,0.1,2.1,0.4c1.5,0.7,2.8,0.8,4.2-0.3c1.7-1.2,2.9-1,4.4,0.4c0.9,0.9,1.8,0.8,2.9,0.5    c1.4-0.4,2.8-0.8,4.3-0.2c0.3,0.1,0.6,0.2,0.8,0.3c0.3,0.2,0.6,0.5,0.4,0.9c-0.1,0.3-0.5,0.3-0.8,0.3c-0.5-0.1-1-0.1-1.4-0.2    c-1-0.3-2-0.3-3.1,0c-1.5,0.4-2.8,0.4-4.1-0.7c-0.7-0.7-1.5-0.8-2.6-0.1c-1.5,1-3.2,1.7-5.3,0.6c-2-1.1-2.7-0.8-4.3,1    c-0.3,0.3-0.6,0.6-0.9,0.9c-0.6,0.7-1,0-1.4-0.2c-0.5-0.2-0.4-0.7,0-1.1C4.3,85.9,5.7,84.8,7.7,84.8z"></path><path d="M91.7,21.8c0-0.5,0.4-0.7,0.7-1c0.2-0.2,0.4-0.3,0.6-0.1c0.1,0.2,0.3,0.4,0.3,0.6c0,0.3-0.3,0.3-0.5,0.4    C92.4,22,92,21.5,91.7,21.8C91.7,21.8,91.7,21.8,91.7,21.8z"></path></g></g></svg>