<svg width="0" height="0" class="hidden">
  <symbol xmlns="http://www.w3.org/2000/svg" viewBox="0 0 100 100" id="camera">
    <path d="M92.7 45.2c-.5.4-.9.3-1.5.2-2.2-.2-4.4-.1-6.6.1-1.3.1-2.6.4-3.9.2-1.1-.2-2.1.3-3.1.1-1.1-.2-2.2.3-3.4.1-.3-.1-.6.3-.5.7.1 1-.1 2.1.1 3.1 0 .2.2.5.1.6-.8 1 0 1.8.2 2.7.2 1 .7 1.9.8 2.9.4 2.7 2.5 4.3 4.2 6.2 2.3 2.6 5.1 4.7 7.7 6.9.2.1.3.3.5.5-1.7-.3-7.4-5.5-11.6-10.4-.2.5-.3 1.1-.2 1.6.3 1.8.1 3.7-.4 5.4-.6 2-1.3 3.9-2 5.8-.2.6-.1.8.5.8h3.1c4.4-.3 8.8-.2 13.2-.7.5-.1 1.2-.2 1.5.4.1.2.1.5 0 .6-.5.5-1.1.2-1.6.1-1.4-.4-2.7.4-4 .2-1.9-.2-3.8 0-5.7-.1-2.6-.1-5.1.2-7.7.4-.1 0-.3 0-.4.1-1.3 1.6-3 2.8-4.1 4.7.5 0 .9.1 1.2.1 3 .1 6.1.4 9.1.2 2.5-.2 5-.4 7.5-.7.9-.1 1.7 0 2.6-.1.9-.1 1.8-.1 2.4-1 .1-.2.4-.5.7-.2.2.3.7.4.5 1-.3.9-1.1 1.4-2.1 1.4-1.3-.1-2.7-.2-4-.1-3.5.2-6.9.6-10.4.6-2.5 0-5 0-7.5-.1-.7 0-2.9.7-4.2 1.1-3.3 1-6.6 2.2-10.3 1.5-3.4-.7-6.7-1.4-9.9-2.5-.9-.3-1.9-.3-2.9-.3-1.9.1-3.8-.3-5.6-.1-3.2.2-6.4.3-9.6 0-2.3-.2-4.7-.1-7 0-3.1.1-6.2.3-9.3-.4-.4-.1-.7-.1-1.1-.1-.7 0-1.8.4-1.1-1.1v-.1c-1.9-1.8-.5-4-.7-5.9-.4-3.2.1-6.3 0-9.5-.1-2.1 0-4.2.1-6.4.1-2.6 0-5.2 0-7.7 0-.4-.2-.7-.5-.7-1.1-.3-2-1.3-3.2-1.6-.6-.1-1-.6-1.4-1.1-.3-.5-.3-1.1.1-1.5.9-.8 1.9-1.4 3.1-1.6 2-.2 2.2-.5 2-2.5-.1-1.3 0-2.7-.1-4 0-.7.3-1.2.7-1.8 1-1.6 2.2-.9 3.4-.9 1.2 0 2.3-.1 3.4-.2.5 0 .6-.3.6-.8 0-.2-.1-.4-.1-.7-.2-1.9.2-2.2 2.2-2.1 2.2.1 4.3.2 6.5.1 1 0 1.2.3 1.2 1.1 0 .3-.1.7-.1 1-.1.5-.4 1.3 0 1.5.6.3 1.4.5 2 .1.7-.5.7-1.3.8-2.1.1-1.2.1-2.5 0-3.7 0-1 .4-1.5 1.4-1.6 2.5-.4 5-.2 7.5-.2h2.3c1-.1 1.3.5 1.2 1.3-.2 1.5-.6 3-.5 4.5 0 .5-.3 1.2-1 1.1-.6-.1-.4-.7-.3-1.2.2-1.3.2-2.7.3-4 0-.3 0-.7-.4-.7-.3 0-.8 0-.8.4-.1 1.9-1.3 3.6-.9 5.5.1.8.5 1 1.2.8.1 0 .2-.1.3-.1 2.3.3 3.5-1.1 4.8-2.7 2.4-3 4.8-6 7.4-8.9.7-.7 1.3-1.1 2.4-1.1 1.9 0 3.8-.3 5.8-.4 1.5-.1 3-.2 4.4-.2 1 0 1.6.4 2.1 1.5 1.2 2.7 2.6 5.3 4.7 7.4 1.3 1.2 1.9 3 3.3 4.2.3.3.6.3 1 .4 1.6.2 3.2.1 4.9-.1.7-.1.9-.3 1-1 .2-1.9.4-3.9.7-5.8.1-.7.6-.8 1.1-.7 1.6.3 3.1-.1 4.6-.1 1 0 1.4.2 1.5 1.2.1 1.6.1 3.2.5 4.7.2.6-.1 1.1-.5 1.8 1.3.1 2.5.1 3.7 0 1.9-.2 2.9.7 2.8 2.6-.1 2.1.4 4.2.2 6.3 0 .6.2.6.7.5 1.3-.2 2.7-.1 3.7 1 .4.5.6.9.5 1.5-.2 1.8-1.8 3.6-3.6 4-1.7.4-1.6.4-1.6 2.1 0 3.2.1 6.4.1 9.6 0 1.9-.4 3.7-.5 5.5-.2 3.1-.2 6.2-.2 9.3v.3c.1.6-.2.9-.6 1.2-.2.1-.4.1-.5 0-.4-.3-.4-.8-.2-1.3.3-1 .3-2.1.4-3.2.2-2.8.3-5.6.6-8.4.3-2.5.3-5.1.2-7.7-.1-2.4-.5-4.8-.2-7.3.2-1.4-.7-2.1-2.4-2-3 .1-5.9.3-8.9.3-2 0-4-.1-6 .3-.3.1-.7 0-.8-.4 0-.5.4-.4.7-.5 2.6-.3 5.2-.1 7.8-.2 3-.2 6-.1 9-.4.6.2 1 .2.9-.4zm-85.3-.5c.6-.7 1.3-.6 2.2-.6 2.6 0 5.2-.2 7.9.2.7.1 1.1-.2 1.1-.9-.1-1.2.5-2.1 1.2-2.9.9-1.1 1.9-1.9 3.5-1.3.4.1.8 0 1.2-.1 1.4-.3 2.6 0 3.5 1.1.8.9 1.5 1.9 1.6 3.2.1.8.5 1.1 1.3.9.3-.1.7-.1 1-.1.5 0 .6-.3.6-.7-.3-1.4-.1-2.9-.2-4.3 0-.5.2-1 .4-1.5.3-.7.8-.9 1.4-.4.6.5 1.3 1 1.9 1.6.2.1.3.4.5.3.2-.1.4-.3.3-.5-.3-.8.2-1.2.6-1.8.6-.8 1.1-1.8 1.7-2.6.5-.7.2-.9-.5-.9-1.4 0-2.8.1-4.2.2-3.8.2-7.5-.1-11.3-.1-1.9 0-3.8.1-5.7-.1-2.5-.3-4.9.1-7.4.2-1.8.1-1.8 0-1.9 1.7 0 .3-.1.5-.1.8-.6 2.8-1 5.7-.6 8.6-.2 1.1.3 1.3 1.4 1.3 2.1-.1 4.1.1 6.2 0 .9 0 1.8-.4 2.7-.6-.2-.4-.4-.4-.5-.4-1.6-.5-3.1-.2-4.7-.2-1 0-2 0-3.1.4-.7.4-1.5.3-2-.5zm15.2 27.4c-.6-1-1.7-1.5-2.4-2.2-2.5-2.4-5-4.9-7.5-7.4-.9-.9-1.9-1.9-2.8-2.9-.2-.2-.5-.6-.2-1 .2-.2.5 0 .6.2 2.3 2.5 4.5 5.1 7 7.3 1.6 1.4 2.9 3.1 4.5 4.4 1.1.9 2.4 1.6 3.9 1.6 3 0 6-.2 9-.3 1.1 0 1.2-.2.7-1.2-.4-.9-1.2-1.7-1.2-2.6-.1-1.8-.6-3.5-.9-5.2-.8-4 .3-7.6 2-11.1.8-1.6 2.2-2.7 3.7-3.9 2.7-2 5.8-3.3 8.6-5 1.2-.8 2.7-.5 4.1-1 .9-.3 1.9-.5 2.8-.4 2.9.3 6 .2 8.8 1.2 1.8.6 3.6 1.5 5.1 2.7.1.1.4.2.2.5-.5.6.2.8.4.7.5-.3.7.1.9.3 1.1.7 1.5 2.1 2.7 2.7.3-.4.3-.9.3-1.4 0-.9.1-1.8.1-2.7l.3-6.9c0-.5-.2-.7-.8-.6-1.1.2-2.3.2-3.4.3-3.6.1-7.2.2-10.8.4-2.9.1-5.8.4-8.7.2-3.6-.2-7.2.1-10.7.5-.8.1-1.1.3-1 1 .1 2.5-.8 5-.5 7.6.1.4 0 .9-.6.8-.5-.1-.6-.4-.4-.9.3-.9-.1-1.3-1-1.6-1.3-.3-2.6.1-3.9.1-.8 0-1.7.7-2.4.2-.8-.6-1-.1-1.4.3-.5.6-.6 1.3-.8 2-.1.4-.3.7-.7 1-1.8 1.4-3.1 1.1-4.9.3-1.3-.5-1.4-1.8-1.8-2.9-.4-1-1-1.2-1.9-1.1-2.3.3-4.6.6-6.9.4-.7-.1-1.5 0-2.2.1-.5.1-1 .3-1 1.1v10.9c0 2.3 0 4.5-.1 6.8 0 .6-.3 1.5.1 1.9 1.2 1.2 2.3 2.4 3.4 3.6.4.4.7 1 1.5.9 1.3-.1 2.6 0 3.9 0 .4 0 .9.1 1.1-.3.2-.5-.3-.7-.6-1-2.2-2-4.2-4.1-6.3-6.2-.5-.5-.9-1.2-1.3-1.8-.2-.3-.3-.6.1-.7.3-.2.5.2.5.4.1.3.3.6.5.8 2.4 2.1 4.4 4.6 6.6 6.9.6.6 1.4 1.3 2 1.6 1.1.8 2.4 1 3.7.6zm11.5-12.7c.1 1.2.2 2.5.5 3.8.4 2.3 1.1 4.5 1.8 6.7 1.3 3.9 3.8 6.6 7.4 8.4 1.5.8 3.1 1.4 4.8 1.7 1.7.3 3.2 1.3 5 1.4 1.4.1 2.8 0 4.2-.1 2.7-.2 5.1-1.3 7.5-2.3 2.2-1 3.5-3 5.1-4.7 2.5-2.6 3.3-6.2 4.1-9.6.5-2.1.1-4.2-.2-6.3-.4-2.9-1.2-5.5-3-7.8-1.6-2.1-3.5-3.8-5.3-5.6-.1-.1-.2-.2-.4-.2-1.8-.5-3.7-.9-5.5-1.4-3.9-.9-7.8-.7-11.5 1.1-.7.4-1.5 0-2.3.5-1.9 1.1-3.8 2-5.6 3.2-1.4.9-2.7 1.8-3.6 3.3-.7 1.2-1.2 2.4-1.8 3.6-.9 1.1-1 2.6-1.2 4.3zm40.1-25.5c.2.6.9 1.4.1 1.9-.8.4-1.1-.6-1.5-1.1-2.2-2.5-3.8-5.5-6-7.9-.3-.4-.5-1-1.1-.2-.2.2-.8.2-1-.2-.7-1.6-2.4-2.4-3.2-3.9-.2-.4-.6-.4-1-.4-1.9-.1-3.7.3-5.5.4-2.2.1-3.7.8-4.6 2.9 4.2.7 8.4.9 12.7.4.4 0 .8-.1.9.4 0 .5-.3.7-.7.7-1.2-.1-2.3 0-3.5 0-3.5.1-7-.8-10.5.1-.2.1-.5.1-.7-.1-.2-.2-.1-.5 0-.7.8-.9 1.2-2.2 2-3.1.7-.8 1.1-1.7 2.7-1.5 2.5.4 5.1-.2 7.6-.4 1-.1 1.4.2 1.8.9.6 1.1 1.6 1.8 2.6 2.6-.8-1.3-1.6-2.6-2.5-3.9-.2-.4-.5-.5-.9-.4-2.6.2-5.3-.2-7.9.5-1 .3-2.3-.2-3.1.6-.7.7-1.4 1.5-2.2 2.2-1.7 1.5-2.8 3.5-4.4 5-2.1 2-3.3 4.8-5.1 7-.7.8-1.4 1.6-1.8 2.6.5.1.9.3 1.2.3 3.1-.2 6.1-.1 9.2-.4 3.2-.3 6.4 0 9.6-.2 3.6-.3 7.3-.3 10.9-.3 1.8 0 3.6-.3 5.3-1.2.4-.2.6-.1.8.2.2.3.7.6.3 1-.1.2-.4.4-.4.6-.2 2-.4 4-.6 6.1 0 .3.1.4.4.4.9 0 1.8.4 2.6.2.9-.2 1.8-.3 2.6-.2 2.1.2 4.3-.1 6.4-.2 2.1-.1 4.1-.4 6.2-.4.8 0 .8-.3.9-.9.1-2.7-.1-5.5-.3-8.2-.1-1-1.1-1.7-2.1-1.6-1.9.3-3.7.4-5.6.1-.9-.1-1.8-.3-2.8-.2-2.6.5-5.2.1-7.8.5zM40.9 78.1c-1.6-1.3-2.9-2.7-4.1-4.3-.5-.7-1.4-1.1-2.4-1.1-1.8 0-3.6.4-5.4.3-4-.1-8 0-12-.1-2.8-.1-5.6-.1-8.4.5-.5.1-1.3-.2-1.3.7v1.8c1-.3.8.9 1.6 1.2 1.3.5 2.7.8 4.1 1 1 .1 2 0 3 0 2.7 0 5.5.1 8.2.2 2.4.1 4.7-.1 7-.1.6 0 1.2.3 1.8.3 2.7-.1 5.2-.2 7.9-.4zM30.7 26.2c-.1.1-.2.3-.3.4-.1 1.5-.4 3-.4 4.4-.1 1.6.3 1.9 1.9 1.8.9-.1 1.7-.1 2.6-.2.4 0 .7-.1.7-.6-.3-1.9.4-3.7.6-5.5 0-.3.1-.7-.4-.6-.3 0-.7-.2-.8.3-.1.3-.1.6-.1.9V31c0 .6 0 1.2-.7 1.1-.5 0-.3-.6-.3-1v-4.8c0-.5-.2-.5-.6-.4-.3.1-.8-.1-.7.4.4 1.6 0 3.2-.1 4.8 0 .4.1.9-.4 1-.2.1-.4.1-.5 0-.3-.3-.2-.7-.1-1.1.2-1 .5-1.9.3-3 0-.7-.9-1-.7-1.8zm-6.6 19.6c1.7.1 2.5-.4 2.5-1.6 0-1.3-1-2.3-2.5-2.4-1.3-.1-2.6 1.1-2.6 2.3-.1.7 1.3 1.6 2.6 1.7zm5 .2c.4 0 .8 0 1.2-.1 1.9-.2 3.7-.6 5.6 0 .4.1.7-.1.7-.5 0-1.2 0-2.4.2-3.5.1-.3-.1-.6-.6-.3-1.1.6-2 1.5-3 2.3.8.3 1.5 0 2.2.2.3.1.7.2.5.7-.1.6-.5.2-.7.1-1.6-.4-3.2 0-4.7 0-.6 0-1.2.3-1.4 1.1zm-5.3 4.1c1.3 0 1.9-.5 2.3-1.8.2-.6 0-.8-.6-.7-1.5.1-2.9.2-4.3-.4-.5-.2-.6 0-.5.4.3 1.5 1.3 2.3 3.1 2.5zm3.6-4.4c.8-.5 1.3-2.1 1-2.8-.9-2.2-2.5-3.2-4.9-3-1.9.2-3.5 1.6-3.8 3.4-.1.8.1 1.5.8 2-.7-1.9.1-3.3 1.5-4.3.9-.7 2.3-.9 3.3-.4 1.9 1.1 3.4 2.5 2.1 5.1zm-6.3-13.3h1.2c.4 0 .6-.1.7-.5.1-.4-.2-.5-.5-.6-.2-.1-.5-.2-.7-.2-1.9-.4-3.7.4-5.6.7-.2 0-.4.1-.4.3.1.3.3.4.6.3 1.6-.2 3.3.4 4.7 0zm72.5 15.3c.9-.1 1.7-.5 2.4-1.1.5-.4 1-1 .4-1.7-.5-.6-1.3-.6-2.1-.4-.7.2-.8.7-.8 1.3.1.6.1 1.2.1 1.9zM7.5 68.9c-.7 1.4.3 2.6-.2 3.9.8-.5 1.5-.6 2.3-.7.2 0 .6.1.7-.2.1-.3 0-.7-.3-.9-1-.5-1.6-1.4-2.5-2.1zM28 31.1v.8c.1.3 0 .7.5.7.4 0 .5-.3.5-.7 0-.6.1-1.1.1-1.7l.3-3.3c0-.3 0-.5-.3-.6-.3-.1-.4.1-.5.3-.1.3-.4.6-.3.8.1 1.3-.3 2.5-.3 3.7zm55.7-3.9c.5.1 1 .1 1.5.1.3 0 .7.1.7-.4 0-.4-.3-.9-.6-.8-1.3.3-2.7 0-3.9.4-.5.2-.4.5-.4.8 0 .5.4.3.7.3.5-.3 1.3-.3 2-.4zM33.1 40.4v1.1c0 .3-.2.7.2.9.4.1.7-.3.9-.5.6-.7.4-1.7.6-2.5.1-.4-.5-1.1-1.1-1.1-.5 0-.4.6-.4 1-.2.5-.2 1-.2 1.1zm47.7-10c1.9 0 3.6-.2 5.4.1-1.6-1.3-3.3-1.3-5.4-.1zm1.8 2.2c1.2.1 2.2.2 3.2.2.3 0 .7.1.8-.2.2-.4-.5-.6-.5-1.1 0-.3-.6-.2-.7-.1-.6.9-1.8.6-2.8 1.2zm-2.1-.2c.9-.9 2.2-.7 3.5-1.1h-2.7c-1.2 0-1.2 0-.8 1.1zm-74.3 14c.3-1.3.2-1.4-1.5-1.3.2.7 1 .8 1.5 1.3z"></path>
    <path d="M83.9 57.2c.2-2.5-1.9-3.5-2.8-5.3 1.1-.1 1 1.1 1.9 1.3-.2-1.5.1-3-.5-4.5 2 2.2 4.6 3.8 6.6 6.1l-.2.2c-1.6-1.3-3.1-2.6-4.7-4-.2-.2-.4-.6-.7-.4-.3.2-.1.5-.1.8.1 2.1 1 3.7 2.6 5 1.2.9 2.4 1.9 3.5 3-2.1-.4-3.4-2.2-5-3.7.3 1.9 1 3.2 2.3 4.3 1.2 1 2.3 2 3 3.3-4.4-3.8-8.4-8-12.1-12.4 2.2 2 3.9 4.4 6.2 6.3zm4.3 9.7c-1.9-.7-10.9-9.7-11.1-11.1 3.6 3.9 7.4 7.4 11.1 11.1zM76.6 65c1 .5 1.4 1.5 2.2 2.2 1.2 1 2.2 2.3 3.7 3 .2.1.2.2.2.4-.1.2-.3.1-.5.1-.7-.4-1.4-.7-2-1.2-1.2-1.2-2.5-2.4-3.6-3.8-.1-.3-.3-.4 0-.7zm2.3 6.2c-1.4-.4-2.5-1.3-3.6-2.1-.2-.1-.3-.3-.1-.5.2-.2.4 0 .5.1 1.2.8 2.1 1.8 3.2 2.5zM89 49.8c1.1.4 1.5 1.4 2.2 2.2-.9-.4-1.8-1.3-2.2-2.2zM32 71.2c-1.1-.4-1.8-1.3-2.6-2-3.2-3.1-6.4-6.1-9.4-9.3-2.3-2.4-4.9-4.5-7.4-6.7-.6-.6-1.1-1.3-1.5-2-.1-.2-.1-.5.1-.6.3-.2.4.1.5.3 1.4 2.3 3.5 3.8 5.4 5.5 1.4 1.3 2.7 2.6 4.1 3.9 3.5 3.4 7 6.9 10.5 10.3.1.2.4.3.3.6zm-3.9.5c-.1.1-.1.2-.2.3-.2.1-.4 0-.5-.2-1.1-1.2-2.5-2-3.7-3-2.8-2.4-5.2-5.1-7.8-7.7-1.7-1.7-3.4-3.5-5.1-5.2-.1-.1-.3-.2-.4-.4-.2-.4-.6-.8-.2-1.2.4-.3.6.3.8.6 2.2 2.6 4.6 4.9 6.9 7.3 3.1 3.2 6.3 6.3 9.8 9.1.2.1.3.3.4.4zm5-4.1c-6.6-4.9-12.6-10.5-17.7-17 2.8 2.9 5.7 5.8 8.6 8.7 2.9 3 6.1 5.5 9.1 8.3zm-2-4c-1.4-1.3-2.7-2.6-4.2-3.9-2-1.8-4.1-3.5-6.2-5.3-.4-.3-1.2-.8-.7-1.3.4-.4.8.4 1.2.7 1.8 1.5 3.5 3.1 5.2 4.7 1.7 1.5 3.4 3.2 4.7 5.1zm.4-3.8c-1-.3-1.3-1.2-2-1.7-1.9-1.3-3.3-3.2-4.9-4.7-.2-.2-.3-.4-.4-.7 0-.1 0-.3.1-.4.2-.2.4 0 .5.1 1.6 2.5 4.1 4.1 6 6.4.1.4.6.5.7 1zM13.1 70.7c-1.7-1.5-3.4-2.8-4.6-4.7-.3-.5-1.3-1-.8-1.4.5-.5.9.6 1.3 1 1.4 1.4 2.7 2.9 4.1 4.3 0 .2.1.4 0 .8zm14.2-20c1.1 1.2 2.2 2.4 3.2 3.6-1.4-.9-2.7-2-3.5-3.4.1-.1.2-.1.3-.2zm4 1.8c-.8-.6-1.4-1.3-2.2-1.8-.1-.1-.4-.3-.2-.6.2-.2.4 0 .6.1.8.6 1.4 1.4 1.8 2.3zm14.7 24c-1.4-.9-2.6-1.9-2.4-3.8.1-.8-.3-1.7.3-2.5.2-.2-.1-.4-.2-.6-1.4-1.2-2.1-2.7-2.6-4.5-.4-1.6-.6-3.2-.7-4.9-.1-2.8 1.3-5 2.9-7 1.2-1.5 2.6-3 4.3-4 2.6-1.5 5.5-1.6 8.4-1.7h3.1c.1 0 .9-.4.2.3-.1.1.4.2.6.3 2.4.9 4.8 1.8 6.6 3.9.6.7 1 1.4 1.2 2.2.3 1.1.7 2.1 1.1 3.1 1 2.5.6 5-.1 7.6-.3 1.3-.6 2.5-1.3 3.7-.9 1.6-2.2 2.8-3.6 3.8-1.1.8-2.3 1.6-3.2 2.7-.3.3-.6 0-.9.1-1.9.7-3.8.4-5.7.3-1.9 0-3.7-.9-5.3-1.8-1.4-.8-2.7-1.7-3.8-3-.2-.2-.3-.5-.6-.4-.2.1-.3.4-.4.6-.2 1.6-.3 3.2 1.2 4.3.5.5.6.9.9 1.3zm1.2-25.4c-1.1.3-2 1-2.7 1.9-1.8 2.1-3.4 4.2-3 7.2.3 1.9 0 3.8 1.2 5.5.5.8.7 1.9 1.5 2.6 2 2 3.9 4.2 6.7 5.2 3.5 1.2 7.1 1.9 10.5-.2 2.4-1.5 4.4-3.3 5.5-6.1 1.4-3.7 1.7-7.4.3-11.1-.8-2.1-1.7-4-3.8-5.1-1.7-.9-3.3-2.1-5.1-2.2-2.2-.2-4.4-.4-6.6.1-1.8.3-3.3.9-4.5 2.2zm21.3 3.3c.7-.3 1.1 0 1.4.6.7 1.4 1.1 3 1.3 4.5.2 1.4.5 2.8-.1 4.2-.1-1.6 0-3.2-.4-4.8-.5-1.6-1.3-3.1-2.2-4.5zM40.9 49c-3.3 3.8-3.5 6-4.4 10-.3-3.6 2.1-9.1 4.4-10zm15.7-4.3c-3.2.1-6.3.9-9.2 2.5 1.1-1.8 5.8-3.1 9.2-2.5zm11.9 9.7c-.7-1.2-1.5-2.5-2.2-3.7-.7-1.2-2.1-1.9-2.5-3.3 2.1 1.8 3.6 4 4.8 6.4 0 .3 0 .4-.1.6z"></path>
    <path d="M51.5 78.9c-3.3-.3-4-1.2-4.5-3.8 1 .6.9 2 1.9 2.5.8.4 1.6 1.2 2.6 1.3zm3.9.5c1.6.3 2.9.3 4.4-.4-1.1 1.3-2.9 1.4-4.4.4zm15.6-15c.1 1.9-.3 3.6-.9 5.4.2-1.8.5-3.6.9-5.4zm-32.9-3.9c.1.8.4 1.8.2 1.9-1 .6-.3 1.5-.7 2.1 0-1.3-.2-2.6.5-4zm20.6 16.4c-1.1.8-2.2 1.5-3.6 1.8l3.6-1.8zM71.4 57c-.8-.7-.9-1.7-1.1-2.6.9.6.6 1.8 1.1 2.6zm0 0c.4 1.3.6 2.6.6 4-.2-1.3-.8-2.6-.6-4zm1.8 2c-.1 1-.1 2.1-.2 3.1-.2-1.1-.3-2.1-.1-3.1h.3zm-34.8-2c-.1 1-.2 2-.3 2.9-.2-1-.2-2 .3-2.9zm3.7-20.9c5.5.3 10.7.4 16 .2 3.9-.1 7.9-.1 11.8-.3.5 0 .9.1.9.6 0 .4-.5.5-.8.5-1.1 0-2.1-.2-3.2-.2-3.4.2-6.8.1-10.2.3-4.1.2-8.2 0-12.2-.1-1.1 0-2.2.3-3.3.2-.3 0-.5 0-.7-.2-.1-.3.1-.5.2-.7 1.5-1.5 2.6-3.4 4.1-5 .5-.5.3-1.2.9-1.6.4-.3.8-.6 1.2-.2.4.4 0 .8-.3 1.2-.8.9-1.8 1.8-2.6 2.8-.6.7-1.1 1.6-1.8 2.5z"></path>
    <path d="M50 29.1c3.4-.1 6.7 0 10.1-.1 1.9-.1 3.9.3 5.8.1.4 0 .8 0 .9.4.3 1 1.2 1.5 1.9 2.1 1.2 1.1 2.4 2.3 3.6 3.5.3.3.5.7.2 1.1-.4.4-.7 0-1-.1-.9-.5-1.4-1.4-2.1-2.1-1.2-1.3-2.7-2.2-3.7-3.6-.2-.3-.6-.4-1-.4-3.6-.1-7.3-.3-10.9 0-1.8 0-3.5 0-5.3.2-.4.1-.9.2-.9-.5 0-.6.4-.7.8-.7.5.1 1.1.1 1.6.1zM84.2 44c-1 0-2-.9-2-1.9 0-.7 1.1-2 1.8-2 1.1.1 2.6 1.2 2.6 2 .1.9-1.2 1.9-2.4 1.9zm.3-2.6c-.4.3-1.1.1-1.1.8 0 .5.3.9.8.9.6 0 1.3-.1 1.3-.9.1-.6-.6-.7-1-.8zM45.1 62.3c-.5-4.9 3.3-8.9 7.3-9.8 1.8-.4 3.7-.4 5.5 0 1.9.4 3.2 1.7 4.5 2.9 1.4 1.3 2.2 2.7 2.2 4.6 0 3-.6 5.7-3.2 7.6-2.4 1.8-5 2.9-8.1 3.3-2.3.3-3.5-.8-5.1-1.7-1.7-1-2.6-2.7-3-4.6-.1-.7-.1-1.5-.1-2.3zm16.8 3.2c1.2-1.1 1.1-2.7 1.5-4 .4-1.1-.3-2-1-2.8-.1.2 0 .4.1.6.2 1.5.6 3-.1 4.5-.3.4-.5 1-.5 1.7-.3.1-.6-.3-.9.1-.4.7-.8 1.3-1.4 1.8 1.1-.3 1.5-1.3 2.3-1.9zm-10.1-9.3c-1.2.9-2.1 1.8-2.6 2.9-.5 1.1-1.1 2.4-.4 3.7.1.3.3.6.6.6.4 0 .2-.4.2-.7.5-2.1.9-4.3 2.2-6.5zm.2 3.1c-1.3 1.9-1.5 3.8-.8 5.1.2-.6.5-1 .8-1.3.3-.3.2-1.1-.2-1-.8.2-.5-.1-.4-.5.2-.7.4-1.5.6-2.3zm-4.2 4.1c-.2.8-.1 1.4.4 1.5.9.2.9.9 1.1 1.4.2.5.1 1.1.7 1.4.4-1.9-1.2-2.8-2.2-4.3zm1.5-6.5c-1.8.9-1.7 2.6-2.1 4.2.6-1.5 1-3 2.1-4.2zm3.8-2.5c1.4.4 1.5.3 2-1-1.4 0-1.4 0-2 1zm-1.2 11.4c-.2.5-.6 1-.4 1.6.1.3.2.7.7.6.3-.1.4-.4.2-.8-.3-.5-.4-1-.5-1.4zm5.6-8.8c-.6.1-.8.6-1 .9-.2.3-.3.8 0 1 .4.2.4-.4.6-.6.3-.4.5-.8.4-1.3zm.7-.3c.5-.1.6-.5.9-.8.2-.2.3-.4.1-.6-.2-.2-.3-.4-.6-.4-.4.1-.2.4-.3.6-.1.4 0 .8-.1 1.2zm-2.6 5.6c.4-.3.6-.7.7-1.2 0-.2-.1-.6-.3-.5-.5.2-.7.7-.8 1.2 0 .3.1.4.4.5zm4.3-6.1c.9.6.9 1.8 1.5 2.7 0-1.7-.4-2.3-1.5-2.7zM56 63.7c.3-.3.7-.6.8-1.1 0-.2-.1-.5-.3-.4-.5.2-.7.8-.8 1.2-.1.2.1.2.3.3zm5.8-7.3c-.6-1.1-1.1-1.5-2.1-1.7.6.7 1.3 1.2 2.1 1.7zm-14.6-5.3c.5-.2 1.1-.4 1.6-.5.2-.1.5 0 .6.2.1.3-.2.3-.4.4-2.9 1.2-4.1 3.7-5.2 6.4-.1.2 0 .5 0 .8.1.3.1.7-.3.7s-.7-.4-.6-.8c.2-.7.3-1.5.6-2.2.9-1.9 2.5-3.3 3.7-5z"></path>
  </symbol>
  <symbol viewBox="0 0 256 256" xmlns="http://www.w3.org/2000/svg" preserveAspectRatio="xMidYMid" id="codepen">
    <path d="M255.807 87.087c-.059-.31-.11-.62-.193-.924-.052-.183-.114-.355-.172-.535a11.007 11.007 0 0 0-.283-.8c-.076-.182-.162-.358-.245-.534a9.74 9.74 0 0 0-.376-.73c-.096-.176-.207-.342-.313-.51a11.038 11.038 0 0 0-.842-1.142 11.166 11.166 0 0 0-.544-.596c-.145-.145-.29-.29-.442-.431a9.07 9.07 0 0 0-.624-.52c-.165-.128-.327-.26-.5-.377-.061-.044-.117-.096-.182-.138l-116.992-78a10.989 10.989 0 0 0-12.201 0l-117 77.998c-.065.041-.116.093-.182.138-.172.12-.334.248-.5.376a15.52 15.52 0 0 0-.624.517 8.604 8.604 0 0 0-.438.43c-.193.194-.372.39-.548.597a6.88 6.88 0 0 0-.376.483c-.165.217-.317.438-.465.669-.107.169-.214.334-.314.51a9.593 9.593 0 0 0-.372.724c-.083.176-.172.355-.245.534-.107.262-.2.531-.286.8-.058.18-.12.355-.169.517-.08.303-.138.61-.193.924-.03.159-.069.314-.09.476-.062.475-.096.951-.096 1.437v78.016c0 .482.034.965.103 1.437.025.173.07.31.104.476.055.31.103.62.207.931.048.172.103.345.172.534.086.276.172.552.276.804.072.172.172.344.241.517.114.241.242.482.38.734.096.172.206.345.31.503.148.242.31.449.482.655.121.173.242.31.38.476.175.207.344.414.551.597.141.137.276.31.448.413.2.173.414.345.62.524.166.138.346.242.483.376.066.034.104.103.173.134l116.968 78.04a10.815 10.815 0 0 0 6.102 1.851 11.06 11.06 0 0 0 6.102-1.85l117-78c.065-.04.12-.089.182-.134.172-.12.334-.248.5-.375.214-.17.424-.345.624-.524.151-.135.296-.283.441-.428a9.876 9.876 0 0 0 .92-1.072 14.55 14.55 0 0 0 .78-1.172c.138-.242.258-.486.375-.734.083-.176.17-.352.245-.531.107-.266.197-.535.283-.804.058-.179.12-.355.172-.534.08-.303.135-.614.193-.924.028-.159.07-.314.086-.476.063-.475.097-.951.097-1.437V89c0-.486-.038-.962-.097-1.438-.027-.169-.079-.306-.113-.475h.017zm-127.81 66.935l-38.905-26.021 38.905-26.025 38.907 26.025-38.907 26.021zm-10.998-71.155l-47.692 31.9L30.81 89.013 117 31.555v51.312zm-67.477 45.13l-27.517 18.406v-36.811l27.517 18.405zm19.785 13.245L117 173.138v51.312l-86.19-57.465 38.498-25.75v.007zm69.69 31.89l47.692-31.896 38.501 25.749-86.193 57.458v-51.312zm67.477-45.128l27.521-18.409v36.815l-27.52-18.413v.007zm-19.785-13.238L138.997 82.87V31.555l86.193 57.459-38.5 25.752z"
    ></path>
  </symbol>
  <symbol viewBox="0 0 256 250" xmlns="http://www.w3.org/2000/svg" preserveAspectRatio="xMidYMid" id="github">
    <path d="M128.001 0C57.317 0 0 57.307 0 128.001c0 56.554 36.676 104.535 87.535 121.46 6.397 1.185 8.746-2.777 8.746-6.158 0-3.052-.12-13.135-.174-23.83-35.61 7.742-43.124-15.103-43.124-15.103-5.823-14.795-14.213-18.73-14.213-18.73-11.613-7.944.876-7.78.876-7.78 12.853.902 19.621 13.19 19.621 13.19 11.417 19.568 29.945 13.911 37.249 10.64 1.149-8.272 4.466-13.92 8.127-17.116-28.431-3.236-58.318-14.212-58.318-63.258 0-13.975 5-25.394 13.188-34.358-1.329-3.224-5.71-16.242 1.24-33.874 0 0 10.749-3.44 35.21 13.121 10.21-2.836 21.16-4.258 32.038-4.307 10.878.049 21.837 1.47 32.066 4.307 24.431-16.56 35.165-13.12 35.165-13.12 6.967 17.63 2.584 30.65 1.255 33.873 8.207 8.964 13.173 20.383 13.173 34.358 0 49.163-29.944 59.988-58.447 63.157 4.591 3.972 8.682 11.762 8.682 23.704 0 17.126-.148 30.91-.148 35.126 0 3.407 2.304 7.398 8.792 6.14C219.37 232.5 256 184.537 256 128.002 256 57.307 198.691 0 128.001 0zm-80.06 182.34c-.282.636-1.283.827-2.194.39-.929-.417-1.45-1.284-1.15-1.922.276-.655 1.279-.838 2.205-.399.93.418 1.46 1.293 1.139 1.931zm6.296 5.618c-.61.566-1.804.303-2.614-.591-.837-.892-.994-2.086-.375-2.66.63-.566 1.787-.301 2.626.591.838.903 1 2.088.363 2.66zm4.32 7.188c-.785.545-2.067.034-2.86-1.104-.784-1.138-.784-2.503.017-3.05.795-.547 2.058-.055 2.861 1.075.782 1.157.782 2.522-.019 3.08zm7.304 8.325c-.701.774-2.196.566-3.29-.49-1.119-1.032-1.43-2.496-.726-3.27.71-.776 2.213-.558 3.315.49 1.11 1.03 1.45 2.505.701 3.27zm9.442 2.81c-.31 1.003-1.75 1.459-3.199 1.033-1.448-.439-2.395-1.613-2.103-2.626.301-1.01 1.747-1.484 3.207-1.028 1.446.436 2.396 1.602 2.095 2.622zm10.744 1.193c.036 1.055-1.193 1.93-2.715 1.95-1.53.034-2.769-.82-2.786-1.86 0-1.065 1.202-1.932 2.733-1.958 1.522-.03 2.768.818 2.768 1.868zm10.555-.405c.182 1.03-.875 2.088-2.387 2.37-1.485.271-2.861-.365-3.05-1.386-.184-1.056.893-2.114 2.376-2.387 1.514-.263 2.868.356 3.061 1.403z"
      ></path>
  </symbol>
  <symbol viewBox="0 0 256 256" xmlns="http://www.w3.org/2000/svg" preserveAspectRatio="xMidYMid" id="instagram">
    <path d="M128 23.064c34.177 0 38.225.13 51.722.745 12.48.57 19.258 2.655 23.769 4.408 5.974 2.322 10.238 5.096 14.717 9.575 4.48 4.479 7.253 8.743 9.575 14.717 1.753 4.511 3.838 11.289 4.408 23.768.615 13.498.745 17.546.745 51.723 0 34.178-.13 38.226-.745 51.723-.57 12.48-2.655 19.257-4.408 23.768-2.322 5.974-5.096 10.239-9.575 14.718-4.479 4.479-8.743 7.253-14.717 9.574-4.511 1.753-11.289 3.839-23.769 4.408-13.495.616-17.543.746-51.722.746-34.18 0-38.228-.13-51.723-.746-12.48-.57-19.257-2.655-23.768-4.408-5.974-2.321-10.239-5.095-14.718-9.574-4.479-4.48-7.253-8.744-9.574-14.718-1.753-4.51-3.839-11.288-4.408-23.768-.616-13.497-.746-17.545-.746-51.723 0-34.177.13-38.225.746-51.722.57-12.48 2.655-19.258 4.408-23.769 2.321-5.974 5.095-10.238 9.574-14.717 4.48-4.48 8.744-7.253 14.718-9.575 4.51-1.753 11.288-3.838 23.768-4.408 13.497-.615 17.545-.745 51.723-.745M128 0C93.237 0 88.878.147 75.226.77c-13.625.622-22.93 2.786-31.071 5.95-8.418 3.271-15.556 7.648-22.672 14.764C14.367 28.6 9.991 35.738 6.72 44.155 3.555 52.297 1.392 61.602.77 75.226.147 88.878 0 93.237 0 128c0 34.763.147 39.122.77 52.774.622 13.625 2.785 22.93 5.95 31.071 3.27 8.417 7.647 15.556 14.763 22.672 7.116 7.116 14.254 11.492 22.672 14.763 8.142 3.165 17.446 5.328 31.07 5.95 13.653.623 18.012.77 52.775.77s39.122-.147 52.774-.77c13.624-.622 22.929-2.785 31.07-5.95 8.418-3.27 15.556-7.647 22.672-14.763 7.116-7.116 11.493-14.254 14.764-22.672 3.164-8.142 5.328-17.446 5.95-31.07.623-13.653.77-18.012.77-52.775s-.147-39.122-.77-52.774c-.622-13.624-2.786-22.929-5.95-31.07-3.271-8.418-7.648-15.556-14.764-22.672C227.4 14.368 220.262 9.99 211.845 6.72c-8.142-3.164-17.447-5.328-31.071-5.95C167.122.147 162.763 0 128 0zm0 62.27c-36.302 0-65.73 29.43-65.73 65.73 0 36.302 29.428 65.73 65.73 65.73 36.301 0 65.73-29.428 65.73-65.73 0-36.301-29.429-65.73-65.73-65.73zm0 108.397c-23.564 0-42.667-19.103-42.667-42.667S104.436 85.333 128 85.333s42.667 19.103 42.667 42.667-19.103 42.667-42.667 42.667zm83.686-110.994c0 8.484-6.876 15.36-15.36 15.36-8.483 0-15.36-6.876-15.36-15.36 0-8.483 6.877-15.36 15.36-15.36 8.484 0 15.36 6.877 15.36 15.36z"
      ></path>
  </symbol>
  <symbol xmlns="http://www.w3.org/2000/svg" viewBox="0 0 101.91 96.93" id="logoR">
    <g fill-rule="evenodd">
      <path d="M94.72 74.97c-4.82-4.35-9.22-9.14-13.86-13.68 4.54-10.82 2-23.93-3.24-31.14-7.36-10.1-22.88-15.44-38.7-10.62Q32.46 12.67 25.6 6.21A51.7 51.7 0 0 1 47.74.12c21.36-1.13 37.91 8.57 46.62 21.6a48.58 48.58 0 0 1 7.56 26.4c0 10.76-2.6 19.46-7.2 26.85zM8.14 21.12c4.69 4.26 9 8.91 13.5 13.32-4.81 10.42-3 24.32 2.16 32 7.12 10.68 24.52 16.14 40.32 10.68 4.63 4.19 8.86 8.78 13.32 13.14-9 5.64-22.41 7.78-34.56 6.12C20.24 93.3 3.22 78.78.4 55.38-1.14 42.6 1.9 29.51 8.14 21.12z"></path>
      <path d="M29.74 24.75c13.05 1.53 33.71-3.54 41 3.78 6.43 6.43 5.59 23.29-4.5 25.38 3.1 5.84 6.52 11.36 9.54 17.28H65.74c-3.48-5.16-6.33-10.95-9.54-16.38H38.92c-.42 5.1-.06 11-.18 16.38h-9.18c.12-15.42-.24-31.32.18-46.44zm9 9.36v11.88c6.72-1.15 19.5 1.92 24.48-.9 2.12-1.2 3.47-5.41 2-8.46-2.83-5.78-18.92-1.91-26.28-3.06-.23.03-.22.29-.2.55z"></path>
    </g>
  </symbol>
  <symbol xmlns="http://www.w3.org/2000/svg" viewBox="0 0 100 100" id="notebook">
    <path d="M22.472 34.792c-.411 1.244-.001 2.66-.156 4.09a11.705 11.705 0 0 0 .371 4.104c.596 2.26.73 4.598 1.4 6.835.78 2.61 1.51 5.234 2.238 7.859.13.467.297.536.696.285 1.197-.752 2.634-.933 3.875-1.595a.773.773 0 0 1 .946.147c.31.318.473.521-.079.81-1.336.702-2.816 1.006-4.187 1.604-.11.049-.233.07-.343.12-1.841.829-2.645.41-3.14-1.598-.204-.826-.517-1.626-.712-2.454-.097-.412-.239-.36-.569-.289a28.228 28.228 0 0 0-3.838 1.449 28.685 28.685 0 0 0-5.29 2.023 42.83 42.83 0 0 1-1.985 1.14.936.936 0 0 1-1.083.178c-.453-.307-.26-.684-.143-1.07.535-1.758.907-3.552 1.312-5.342.499-2.202 1.1-4.403 1.635-6.6.793-3.265 2.053-6.415 2.59-9.718a20.028 20.028 0 0 1 2.632-6.558 12.528 12.528 0 0 1 4.86-5.21c2.836-1.453 5.56-3.16 8.674-4.12 2.459-.758 4.961-1.382 7.4-2.23 1.39-.482 2.975-.369 4.442-.672a32.407 32.407 0 0 0 5.93-1.39 8.689 8.689 0 0 1 3.356-.607c1.828.037 3.695-.376 5.45.58a4.196 4.196 0 0 1 2.155 3.678c-.03 1.039-.017 2.074-.14 3.113-.192 1.607.67 2.978 1.206 4.397.992 2.628 2.195 5.177 3.144 7.818.361 1.005 1.3 1.632 1.464 2.722.047.309.296.175.534-.036 1.55-1.374 2.934-2.918 4.46-4.31 1.398-1.272 2.764-2.585 4.133-3.882 2.13-2.018 4.302-3.993 6.409-6.037 1.104-1.072 2.239-2.114 3.32-3.208a.551.551 0 0 1 .795-.165 12.69 12.69 0 0 1 3.105 2.836 1.236 1.236 0 0 1-.193 1.852c-1.415 1.525-3.093 2.753-4.475 4.303-1.204 1.35-2.733 2.358-4.02 3.638-2.219 2.21-4.53 4.326-6.795 6.49-1.16 1.106-2.273 2.257-3.538 3.254-.396.311-.705.744-1.092 1.094-.318.288.039.776.166 1.102 1.203 3.081 2.366 6.178 3.646 9.23 1.578 3.763 3.153 7.525 4.776 11.268.544 1.255.899 2.595 1.533 3.825.313.605 0 .974-.62 1.143a42.263 42.263 0 0 0-3.187 1.026c-1.31.472-2.648.899-3.95 1.396-4.595 1.755-9.165 3.576-13.748 5.362-3.863 1.505-7.743 2.97-11.588 4.52-.691.28-1.376.624-2.055.957a1.12 1.12 0 0 1-1.633-.726 27.33 27.33 0 0 0-1.868-5.875c-1.131-3.042-2.354-6.05-3.567-9.06-.963-2.388-1.983-4.753-2.95-7.14-1.572-3.88-3.187-7.744-4.654-11.664-.823-2.202-1.704-4.38-2.56-6.567-.804-2.05-1.677-4.072-2.513-6.109-.094-.227-.153-.468-.228-.703-.37-1.162-.089-1.552 1.111-1.747a11.278 11.278 0 0 0 1.83-.563 3.874 3.874 0 0 1 1.326-.35 1.411 1.411 0 0 0 1.64-1.386c.052-.814.056-1.708-.89-2.123-1.212-.532-2.339-1.228-3.828-.816a3.796 3.796 0 0 0-2.568 2.535 5.926 5.926 0 0 0-.375 3.137zm41.203 6.72a1.348 1.348 0 0 1-.827-1.088c-.269-.873-.62-1.722-.973-2.566a353.69 353.69 0 0 1-1.815-4.474c-.62-1.55-1.128-3.146-1.862-4.66a.782.782 0 0 0-1.18-.441 8.51 8.51 0 0 1-1.407.654 37.232 37.232 0 0 0-4.999 1.528c-4.368 1.543-8.747 3.061-13.087 4.68a35.821 35.821 0 0 0-5.251 2.093.753.753 0 0 0-.435 1.08c.588 1.894 1.336 3.72 2.077 5.556 1.394 3.457 2.657 6.967 4.045 10.427 1.699 4.236 3.467 8.444 5.21 12.661 1.332 3.224 2.61 6.47 4.139 9.609.538 1.105.827 1.237 2.013.802a757.411 757.411 0 0 0 10.27-3.873c4.412-1.693 8.86-3.286 13.155-5.272a1.351 1.351 0 0 0 .805-1.924c-.665-1.85-1.591-3.587-2.243-5.448-.75-2.138-1.657-4.225-2.569-6.302-.918-2.092-1.687-4.248-2.725-6.292-.327-.644-.574-.577-1.005-.15-.874.868-1.75 1.735-2.666 2.557q-3.778 3.39-7.302 7.043a2.946 2.946 0 0 1-1.383.976 8.21 8.21 0 0 0-1.968.766c-1.521.813-3.23 1.332-4.365 2.765a.754.754 0 0 1-1.083.129.66.66 0 0 1 .045-1.056 15.512 15.512 0 0 0 2.38-3.978 17.395 17.395 0 0 1 4.102-5.582c1.504-1.282 2.87-2.724 4.359-4.036 2.237-1.971 4.344-4.09 6.545-6.184zM12.77 57.256c1.097-.44 2.12-.904 3.18-1.263 2.163-.73 4.289-1.555 6.406-2.404.425-.171.6-.249.368-.846a18.962 18.962 0 0 1-1.307-3.886 56.307 56.307 0 0 0-1.022-6.11 27.077 27.077 0 0 1-.683-4.71 19.017 19.017 0 0 1 .72-6.593 5.885 5.885 0 0 1 5.246-4.79c1.19-.142 2.474-.57 3.669.106.4.226.767.507 1.164.74a4.125 4.125 0 0 1 2.077 4.633c-.123.637-.179 1.287-.263 1.918a6.257 6.257 0 0 0 1.819-.543c3.466-1.002 6.801-2.383 10.172-3.641 4.484-1.674 9.007-3.247 13.445-5.04.694-.281 1.801-.306 1.858-1.482q.062-1.28.092-2.563a3.284 3.284 0 0 0-2.1-3.418 8.141 8.141 0 0 0-5.078.086 35.256 35.256 0 0 1-5.183 1.047c-1.766.292-3.493.776-5.294.94a42.39 42.39 0 0 0-6.767 1.575 30.31 30.31 0 0 0-4.576 1.528c-2.342 1.034-4.547 2.383-6.783 3.648a6.848 6.848 0 0 0-3.293 3.498 51.564 51.564 0 0 0-2.206 6.803c-.58 2.69-1.516 5.268-2.131 7.948-.846 3.681-2.249 7.229-3.115 10.92a6.905 6.905 0 0 0-.415 1.9zm51.788-16.618c.557-.554 1.635-.876.66-1.94a1.042 1.042 0 0 1-.172-.421c-.658-2.368-1.722-4.59-2.483-6.927-.523-1.605-1.25-3.178-1.929-4.748-.318-.736-.289-1.845-1.51-.817a.884.884 0 0 1-.274.033c-1.294.354-2.61.642-3.875 1.082q-5.548 1.93-11.06 3.962c-3.443 1.261-6.883 2.533-10.295 3.872a30.993 30.993 0 0 1-3.663 1.132 15.265 15.265 0 0 0-3.501.93.716.716 0 0 0-.413 1.103c.96 2.443 1.94 4.88 2.833 7.348 1.177 3.256 2.548 6.437 3.747 9.682.785 2.128 1.74 4.183 2.565 6.292a29.037 29.037 0 0 0 1.77 4.343 29.283 29.283 0 0 1 2.105 4.883c.827 2.255 1.926 4.398 2.623 6.703.46 1.518 1.377 2.855 1.904 4.358a1 1 0 0 0 1.366.852c1.75-.64 3.535-1.195 5.25-1.917 5.238-2.205 10.604-4.078 15.883-6.178 3.768-1.498 7.465-3.156 11.23-4.652.32-.127.414-.238.279-.601-.791-2.129-1.516-4.283-2.327-6.404q-1.768-4.63-3.629-9.223c-.998-2.452-2.068-4.874-3.114-7.307-.119-.275-.163-.79-.596-.602a3.276 3.276 0 0 0-1.185 1.095c.61.322.215.943.413 1.414.747 1.774 1.356 3.603 2.131 5.372 1 2.28 1.798 4.65 2.844 6.906 1.086 2.343 2.195 4.672 3.149 7.074a1.364 1.364 0 0 1-1.054 2.018 21.592 21.592 0 0 0-3.665 1.07c-1.865.758-3.696 1.617-5.605 2.238-2.52.819-4.958 1.84-7.429 2.78-1.937.737-3.826 1.63-5.806 2.217-1.331.394-2.455 1.208-3.83 1.518-1.009.227-1.002.355-1.493-.541a11.141 11.141 0 0 1-.659-2.082c-.995-3.073-2.364-6.002-3.451-9.04-.35-.977-.884-1.914-1.193-2.885-1.01-3.17-2.545-6.129-3.594-9.284-.814-2.45-1.894-4.812-2.823-7.225a82.204 82.204 0 0 0-4.44-10.379.822.822 0 0 1 .546-1.29c1.298-.423 2.577-.917 3.885-1.29 1.67-.475 3.282-1.087 4.91-1.675 3.27-1.182 6.53-2.395 9.814-3.543a71.403 71.403 0 0 0 7.256-2.778 3.933 3.933 0 0 1 .905-.428c1.08-.223 1.245.625 1.515 1.29 1.174 2.892 2.254 5.824 3.503 8.683.578 1.321.902 2.798 1.982 3.927zM52.05 54.316c.797-.134 1.42.222 1.942-.255 1.722-1.573 3.455-3.136 5.127-4.762 2.205-2.145 4.546-4.14 6.742-6.297 2.54-2.495 5.278-4.786 7.895-7.202 2.542-2.347 5.024-4.759 7.569-7.102a13.234 13.234 0 0 0 1.452-1.883.578.578 0 0 0-.112-.946.597.597 0 0 0-.942.094c-.436.538-1.002.968-1.47 1.483-1.699 1.87-3.914 3.146-5.636 5.008-1.72 1.859-3.891 3.253-5.623 5.119a15.299 15.299 0 0 1-1.53 1.937 43.2 43.2 0 0 0-2.653 2.3c-2.5 2.33-4.874 4.789-7.358 7.137a58.57 58.57 0 0 0-5.403 5.37zm2.696 2.161C64.614 46.93 74.85 37.94 84.364 28.085a1.298 1.298 0 0 0-.828.324 17.719 17.719 0 0 0-2.846 2.46c-4.295 3.91-8.624 7.78-12.91 11.698-1.842 1.685-3.595 3.467-5.418 5.173-2.095 1.961-4.282 3.828-6.303 5.862-.672.676-1.904 1.255-1.313 2.875zm32.98-32.734c-.022-.056-.041-.114-.068-.168a3.18 3.18 0 0 0-1.486-1.308c-.435-.23-.703.342-1.028.592-.338.261-.7.492-1.04.75a.994.994 0 0 0-.27 1.669 5.206 5.206 0 0 1 1.058 1.31.399.399 0 0 0 .527.22 5.556 5.556 0 0 0 2.308-3.065zM51.91 55.436c-.317.334-.98-.133-1.185.447a22.306 22.306 0 0 1-1.107 2.27c-.076.155-.438.379-.05.607a.648.648 0 0 0 .77.091 11.016 11.016 0 0 1 2.186-1.114 1.177 1.177 0 0 0 .704-1.337c-.125-.728-.752-.784-1.318-.964zm-30.63-15.47a.659.659 0 0 0 .19-.72 15.988 15.988 0 0 1 .205-5.579 10.437 10.437 0 0 1 .798-2.998 4.076 4.076 0 0 1 4.093-2.433c.4.03.8.067 1.233.103a.77.77 0 0 0-.67-.483 4.895 4.895 0 0 0-3.201.61 5.5 5.5 0 0 0-2.362 3.594 33.482 33.482 0 0 1-.47 3.55c-.501 1.492.201 2.905.184 4.355zm4.091-4.135a1.845 1.845 0 0 0 .445-.004 13.154 13.154 0 0 1 3.401-.94c1.596-.078 1.623-.321 1.984-1.837a10.765 10.765 0 0 0-.01-2.173 2.402 2.402 0 0 0-3.086-2.337c.326.514.95.34 1.383.621a3.964 3.964 0 0 1 .804 5.054.52.52 0 0 1-.461.267c-1.262-.213-2.329.513-3.502.725a.95.95 0 0 0-.958.624zm-3.158 8.418c-.226 2.199 1.093 7.531 1.968 8.033a51.678 51.678 0 0 1-1.968-8.033zm-6.293-1.663a10.048 10.048 0 0 0-1.22 4.671 20.781 20.781 0 0 0 1.22-4.671zm1.794-6.89c-.568 1.041-.419 2.237-.755 3.326a10.336 10.336 0 0 0 .755-3.327z"></path>
  </symbol>
  <symbol xmlns="http://www.w3.org/2000/svg" viewBox="0 0 100 100" id="paint">
    <path d="M69.2 57.5c-2.6.1-4.6-.2-6.6.6-2.3.9-3.2 2.2-3 4.7.2 2 .6 4 1.2 6 .3 1 .6 2 1 2.9.6 1.3-.1 2.4-.2 3.7-.4 3.1-2.3 5-4.9 6.6-2.5 1.5-5.3 2.2-8.1 2.7-.8.1-1.3.4-1.6 1.4-.5 2-1.4 4-1.4 6.1 0 .8-.8 1.7-1.2 2.5-.3.6-.6 1.3-1.4 1-.7-.2-1.2-.8-1.2-1.7 0-.8.2-1.6.4-2.4.4-1.3.8-2.7 1.2-4 .1-.3.3-.7.3-1 .2-1.5-.1-1.9-1.7-2.1-.9-.1-1.9 0-2.8-.2-1.8-.3-3.2-1.4-4.7-2.5-2.4-1.8-4.8-3.6-6.8-5.9-1.4-1.6-3-3-4-4.9-2.3-4.1-3.6-8.4-3-13.2.2-1.9.1-3.9.6-5.8.7-2.8 1.1-5.8 2.5-8.4 1.7-3.2 3.6-6.3 6.1-9 1.7-1.9 3.6-3.5 5.3-5.2.7-.7 1.4-1.3 2.3-1.7 3.8-1.6 7.7-3.2 11.9-3.7 3.2-.4 6.4-.4 9.6.2 1.6.3 1.6.3 2.2-1.2.4-1.1.6-2.2.7-3.4 0-.6-.1-1.1-.4-1.6-1.4-2.1-1.1-4.6.8-6.5.7-.7 1.5-1.4 2.3-2 1.1-.8 1.9-1.7 2.2-3.2.2-1.1 1-1.4 1.9-.7.5.4 1 .9 1.3 1.4 2.1 3.6 1.1 9.5-2.2 12.2-.8.7-1.5 1.6-2.6 1.9-.8.3-1 1.1-1 1.8 0 .8-1.3 1.3-.6 2.1.4.5 1.3.6 1.9 1 2.9 1.9 6.1 3.6 8.7 5.8 2.6 2.2 4.9 4.8 6.9 7.6 1.2 1.7 1.4 3.8 2.1 5.7.3.8-.4 1.5-.6 2.3-.3 2.1-1.3 4-2.3 5.9-.5.9-1.3 1.5-2.2 2.1-3.1 1.8-6.2 2.4-8.9 2.1zm-9.3-32c-7-1-13.5-.5-19.6 2.7-2.8 1.5-5.7 3.1-7.8 5.5-2 2.3-3.8 4.8-5.6 7.3-1.5 2.3-2.8 4.7-3.4 7.3-.7 3-.7 6-.2 9.1.3 1.9.9 3.7 1.3 5.5.7 3.1 2.1 5.9 4.4 8.2 2.2 2.2 4.7 4.1 7.2 6 2 1.5 4.1 2.7 6.4 3.8 2.1 1 4.2 1.7 6.6 1.1 1.6-.4 3.4.1 5-.6 4-1.6 8.1-6.5 5.2-12.1-.8-1.6-1.2-3.4-1.4-5.3-.3-4.3 2.1-8.2 6.4-9.2 1.4-.3 2.9-.5 4.3-.5 2.2 0 4.4-.4 6.4-1.1 3.9-1.3 6.6-6 5.6-10-.4-1.7-1.3-3.2-2.5-4.6-2.5-3-5.5-5.5-8.5-7.9-1.9-1.5-4.2-2.7-6.3-3.9-.7-.4-1.2-.3-1.4.6-.2 1.1-.5 2.2-.9 3.2-2.1 4.8-3 9.9-4.7 14.8-.5 1.5-.2 2 1.3 2.7.8.4 1.4.9 1.2 1.8-.4 2.9-1.2 5.7-3.4 7.9-1.7 1.6-3.7 1.7-5.5.3-.9-.6-1.3-1.4-1.3-2.6.2-2.2 1-4 2.6-5.3 1.3-1.1 2.1-2.5 2.5-4.2 1-3.6 1.8-7.2 3-10.8 1.2-3 2.4-6.1 3.1-9.7zM46.3 83.7c-.6-.2-1-.4-1.5-.6-2.8-.7-5.4-1.7-8-2.9-1.3-.6-2.7-1.1-3.4-2.3-1-1.6-2.5-2.6-3.8-3.9-1-1-2.2-1.8-2.9-3-1.8-3-3.5-6.1-4.1-9.6-.1-.3-.1-.6-.2-.8-.1-.2 0-.7-.6-.7.1 3.5.8 6.7 2.8 9.6 2.4 3.5 5.3 6.6 8.6 9.2 3.7 3 7.9 5.2 13.1 5zm8.1-26.1c2.5-1.8 3.2-4.6 3.8-7.3.2-.7-.7-.8-1.1-1.1-.5-.3-.8 0-1 .5-1.3 2.4-1.4 5.2-1.7 7.9zm11.8-1.3c1.6 0 3.2-.1 4.8 0 2.4.1 4.4-.8 6.4-1.8.5-.2.8-.5.8-1.3-2 1.1-3.9 1.6-5.9 2.1-2 .5-4 .4-6.1 1zM52 52.2c-1.8 1-2.6 2.9-2 4.3.1.3.4.7.8.6.4 0 .3-.4.4-.7.3-1.3.5-2.7.8-4.2zm13.2-34.9c2.5-1.3 3.2-2.6 2.4-4.1-.8 1.3-1.6 2.7-2.4 4.1zm.2-3.6c.3-.3.4-.6.7-.8.6-.4.9-.8.7-1.6-.1-.2-.3-.4-.5-.3-.6.5-1.4.8-1.3 1.7 0 .4.2.6.4 1zm-2.9 2.8c2-1.9 2-1.9 1.2-3.4 0 1.3-.8 2-1.2 3.4zm5.4-5.1c.3-.1.3-.4.3-.6 0-.3 0-.5-.1-.8-.3.2-.3.4-.3.6.1.3.1.5.1.8z"></path>
    <path d="M46.8 32.5c-.1-3.3 2.9-5.7 6.1-5.1 1.4.3 3.1.3 3.7 2.1.4 1 .3 2 .2 3-.4 2.4-2.3 3.5-4.3 4.3-1.7.6-3.3 0-4.6-1.2-1.1-.9-1.1-2.1-1.1-3.1zm-11.4 23c.4 1.7-.6 3.2-2 4.1-1.7 1.2-3.7.7-5.6-.2-.6-.3-1-.8-1.3-1.4-1.2-2.7.7-6.7 3.6-7.4 2.9-.7 5 .9 5.2 3.9.1.2.1.5.1 1zM47 79.2c-.9 0-2 0-3-.8-1.7-1.5-2.1-3.4-1.2-5.5.9-1.9 3.3-3.3 5.4-3 3.4.5 4.4 3.6 3.3 5.7-.1.3-.2.5-.4.8-1 2.7-1.1 2.8-4.1 2.8zm25.9-28.5c-2.9 0-4.3-1.8-3.9-4.6.8-4.7 4-4.9 7.3-4.3.8.1 1.2.8 1.5 1.5 1.4 3.2-.1 6.2-3.5 7.1-.5.2-1 .2-1.4.3zM32.2 40.2c.1-2.3 1.6-3.8 3.5-5 1.6-1.1 3.2-.9 4.9 0 1.7.9 1.2 2.4 1.2 3.7 0 1.3-.6 2.5-1.6 3.5-1 .9-1.6 2.5-3.3 2.6-.3 0-.8.3-1 0-.6-.8-1.6-.9-2.4-1.5-1.1-.8-1.3-2-1.3-3.3zm1.3.1c0 2.5 2.1 3.8 4.4 2.7 1-.5 1.6-1.4 2.3-2.3.6-.9.6-1.9.3-2.9-.3-1.1-1.9-1-2.3-2.2 0-.1-.4 0-.6 0-2.2.2-4.1 2.5-4.1 4.7zm32.1-7.7c2.5 0 3.9.9 4.3 2.8.4 1.8-.9 4.5-2.6 5.4-2.3 1.2-4.1 1.1-5.9-.4-.7-.5-1-1.3-1.1-2.1-.3-2.7 2.5-5.8 5.3-5.7zm-.9 7.7c1.9 0 3-.8 3.8-2.7.7-1.5-.4-2.3-1.2-3.2-1.2-1.2-2.1-1.4-3.4-.6-1.4.9-2 2.5-2.4 4-.2.6.3 1.3.8 1.7.8.5 1.6.9 2.4.8zM41.1 67c-.2 2.2-1 3.8-2.5 5.1-.8.7-1.8.9-2.9.6-2.5-.6-3.6-1.8-3.8-4.1-.2-2 1.6-5 3.4-5.7 1.1-.4 4.4.1 4.9 1.1.6 1 .7 2.2.9 3zm-7.9 1.2c0 1.7.9 2.9 2.8 3.4 1.5.4 2.3-.1 3.4-2 .2-.4.4-.8.5-1.2.5-1.3-.2-3.5-1.4-4.2-1-.6-2.8-.7-3.5 0-1 1-1.9 2.2-1.8 4z"></path>
  </symbol>
  <symbol viewBox="0 0 400 400" xmlns="http://www.w3.org/2000/svg" preserveAspectRatio="xMidYMid" id="wordpress" x=".5rem" y=".5rem">
    <path d="M18.124 127.5c0 43.296 25.16 80.711 61.646 98.442L27.594 82.986a108.965 108.965 0 0 0-9.47 44.514zm183.221-5.52c0-13.517-4.856-22.879-9.02-30.165-5.545-9.01-10.742-16.64-10.742-25.65 0-10.055 7.626-19.415 18.368-19.415.485 0 .944.06 1.417.088-19.46-17.829-45.387-28.714-73.863-28.714-38.213 0-71.832 19.606-91.39 49.302 2.566.077 4.984.13 7.039.13 11.44 0 29.15-1.387 29.15-1.387 5.897-.348 6.592 8.312.702 9.01 0 0-5.926.697-12.52 1.042L100.32 194.7l23.937-71.79-17.042-46.692c-5.89-.345-11.47-1.042-11.47-1.042-5.894-.346-5.203-9.358.691-9.01 0 0 18.064 1.388 28.811 1.388 11.44 0 29.151-1.388 29.151-1.388 5.9-.348 6.594 8.312.702 9.01 0 0-5.938.697-12.52 1.042l39.529 117.581 10.91-36.458c4.728-15.129 8.327-25.995 8.327-35.36zm-71.921 15.088l-32.818 95.363a109.376 109.376 0 0 0 30.899 4.456c12.737 0 24.952-2.202 36.323-6.2a9.605 9.605 0 0 1-.779-1.507l-33.625-92.112zm94.058-62.045a83.98 83.98 0 0 1 .737 11.247c0 11.1-2.073 23.577-8.317 39.178l-33.411 96.6c32.518-18.963 54.39-54.193 54.39-94.545.002-19.017-4.856-36.9-13.4-52.48zM127.505 0C57.2 0 0 57.196 0 127.5c0 70.313 57.2 127.507 127.505 127.507 70.302 0 127.51-57.194 127.51-127.507C255.014 57.196 197.808 0 127.506 0zm0 249.163c-67.08 0-121.659-54.578-121.659-121.663 0-67.08 54.576-121.654 121.659-121.654 67.078 0 121.652 54.574 121.652 121.654 0 67.085-54.574 121.663-121.652 121.663z"
     ></path>
  </symbol>
</svg>