<svg width="0" height="0" class="hidden">
  <symbol xmlns="http://www.w3.org/2000/svg" viewBox="0 0 521.78 450.53" id="book">
    <path d="M249.18 123.55l-80.62-73.08A7.39 7.39 0 0 0 156.2 56l2.35 213.34a40.59 40.59 0 0 0 11.88 28.25L237 364.16a2.46 2.46 0 0 1-2.58 4l-99-36.18a31.54 31.54 0 0 1-20.7-29l-3.93-197.46s.55-22.34 18.53-18.53c20 4.24 6 49.59-31.06 51.22C73.12 139.37 77 153 77 188.39c0 27.47-.12 130-.18 174.62a21 21 0 0 0 21 21h325.63a21.34 21.34 0 0 0 21.34-21.34v-187.9s4.36-37.6-27.24-38.14c0 0-30-1.64-33.24-32.7S411 80 411 106.11c0 20.68 1.7 141.46 2.42 191.16A31.46 31.46 0 0 1 394 326.78l-104.76 43.33a2.55 2.55 0 0 1-2.81-4.12l65.23-68.15A40.71 40.71 0 0 0 363 269.43l-1.41-208A7.39 7.39 0 0 0 349.23 56l-78.8 70.13a29.9 29.9 0 0 0-10 22.31V357.3"
      fill="#F9F9F9" stroke="#000" stroke-linecap="round" stroke-linejoin="round" stroke-width="10"></path>
  </symbol>
  <symbol xmlns="http://www.w3.org/2000/svg" viewBox="0 0 521.78 450.53" id="camera">
    <path d="M403.52 251.38a111.71 111.71 0 0 0-113.3-111.69c-60.16.84-109.26 49.94-110.1 110.1a111.71 111.71 0 0 0 111.69 113.3l72.19.35c31.2 0 60.58-.76 60.58-.76a32.23 32.23 0 0 0 33-32.22V157.11a32.26 32.26 0 0 0-32.26-32.26h-37.59a27.46 27.46 0 0 1-27.46-27.46 38.61 38.61 0 0 0-38.61-38.61h-51.78s-39-1.84-44 25.23-2.11 42.16 34.1 32.81c28.36-7.32 59.78-14.29 60-26.87.14-9.72-7.18-12.48-30.91-13l-41-.33a68.89 68.89 0 0 0-51.9 23.59l-14.24 16.31a63.07 63.07 0 0 1-47.51 21.59H86.68a32.44 32.44 0 0 0-32.45 32.49v156.86a32.31 32.31 0 0 0 32.31 32.31l35.71-.25a45.63 45.63 0 0 1 32.35 13.08 111.39 111.39 0 0 0 80.14 32.06c60.08-1 109.05-50 109.89-110.11a111.71 111.71 0 1 0-223.4-1.55"
      fill="#F9F9F9" stroke="#000" stroke-linecap="round" stroke-linejoin="round" stroke-width="15"></path>
  </symbol>
  <symbol viewBox="0 0 256 256" xmlns="http://www.w3.org/2000/svg" preserveAspectRatio="xMidYMid" id="codepen">
    <path d="M255.807 87.087c-.059-.31-.11-.62-.193-.924-.052-.183-.114-.355-.172-.535a11.007 11.007 0 0 0-.283-.8c-.076-.182-.162-.358-.245-.534a9.74 9.74 0 0 0-.376-.73c-.096-.176-.207-.342-.313-.51a11.038 11.038 0 0 0-.842-1.142 11.166 11.166 0 0 0-.544-.596c-.145-.145-.29-.29-.442-.431a9.07 9.07 0 0 0-.624-.52c-.165-.128-.327-.26-.5-.377-.061-.044-.117-.096-.182-.138l-116.992-78a10.989 10.989 0 0 0-12.201 0l-117 77.998c-.065.041-.116.093-.182.138-.172.12-.334.248-.5.376a15.52 15.52 0 0 0-.624.517 8.604 8.604 0 0 0-.438.43c-.193.194-.372.39-.548.597a6.88 6.88 0 0 0-.376.483c-.165.217-.317.438-.465.669-.107.169-.214.334-.314.51a9.593 9.593 0 0 0-.372.724c-.083.176-.172.355-.245.534-.107.262-.2.531-.286.8-.058.18-.12.355-.169.517-.08.303-.138.61-.193.924-.03.159-.069.314-.09.476-.062.475-.096.951-.096 1.437v78.016c0 .482.034.965.103 1.437.025.173.07.31.104.476.055.31.103.62.207.931.048.172.103.345.172.534.086.276.172.552.276.804.072.172.172.344.241.517.114.241.242.482.38.734.096.172.206.345.31.503.148.242.31.449.482.655.121.173.242.31.38.476.175.207.344.414.551.597.141.137.276.31.448.413.2.173.414.345.62.524.166.138.346.242.483.376.066.034.104.103.173.134l116.968 78.04a10.815 10.815 0 0 0 6.102 1.851 11.06 11.06 0 0 0 6.102-1.85l117-78c.065-.04.12-.089.182-.134.172-.12.334-.248.5-.375.214-.17.424-.345.624-.524.151-.135.296-.283.441-.428a9.876 9.876 0 0 0 .92-1.072 14.55 14.55 0 0 0 .78-1.172c.138-.242.258-.486.375-.734.083-.176.17-.352.245-.531.107-.266.197-.535.283-.804.058-.179.12-.355.172-.534.08-.303.135-.614.193-.924.028-.159.07-.314.086-.476.063-.475.097-.951.097-1.437V89c0-.486-.038-.962-.097-1.438-.027-.169-.079-.306-.113-.475h.017zm-127.81 66.935l-38.905-26.021 38.905-26.025 38.907 26.025-38.907 26.021zm-10.998-71.155l-47.692 31.9L30.81 89.013 117 31.555v51.312zm-67.477 45.13l-27.517 18.406v-36.811l27.517 18.405zm19.785 13.245L117 173.138v51.312l-86.19-57.465 38.498-25.75v.007zm69.69 31.89l47.692-31.896 38.501 25.749-86.193 57.458v-51.312zm67.477-45.128l27.521-18.409v36.815l-27.52-18.413v.007zm-19.785-13.238L138.997 82.87V31.555l86.193 57.459-38.5 25.752z"
     ></path>
  </symbol>
  <symbol viewBox="0 0 256 361" xmlns="http://www.w3.org/2000/svg" preserveAspectRatio="xMidYMid" id="css-3">
    <path d="M127.844 360.088L23.662 331.166.445 70.766h255.11l-23.241 260.36-104.47 28.962z" fill="#264DE4"></path>
    <path d="M212.417 314.547l19.86-222.49H128V337.95l84.417-23.403z" fill="#2965F1"></path>
    <path d="M53.669 188.636l2.862 31.937H128v-31.937H53.669zm-5.752-64.641l2.903 31.937H128v-31.937H47.917zM128 271.58l-.14.037-35.568-9.604-2.274-25.471h-32.06l4.474 50.146 65.421 18.16.147-.04V271.58z" fill="#EBEBEB"></path>
    <path d="M60.484 0h38.68v16.176H76.66v16.176h22.506v16.175H60.484V0zm46.417 0h38.681v14.066h-22.505v2.813h22.505v32.352h-38.68V34.46h22.505v-2.813H106.9V0zm46.418 0H192v14.066h-22.505v2.813H192v32.352h-38.681V34.46h22.505v-2.813H153.32V0z"></path>
    <path d="M202.127 188.636l5.765-64.641H127.89v31.937h45.002l-2.906 32.704H127.89v31.937h39.327l-3.708 41.42-35.62 9.614v33.226l65.473-18.145.48-5.396 7.506-84.08.779-8.576z" fill="#FFF"></path>
  </symbol>
  <symbol xmlns="http://www.w3.org/2000/svg" viewBox="0 0 521.78 450.53" id="ecommerce">
    <path fill="none" stroke="#000" stroke-linecap="round" stroke-linejoin="round" stroke-width="5" d="M385.04 75.67l-47.76 81.93h109.06v78.94h-18.93l-43.64 149.65h-41.49l18.66-134.26h-19.73l-18.66 134.26H275.4V251.93h-19.74v134.26h-46.35l-18.65-134.26h-19.74l18.66 134.26h-41.49l-43.64-149.65H85.52V157.6h109.06l-47.76-81.93"></path>
  </symbol>
  <symbol viewBox="0 0 256 250" xmlns="http://www.w3.org/2000/svg" preserveAspectRatio="xMidYMid" id="github">
    <path d="M128.001 0C57.317 0 0 57.307 0 128.001c0 56.554 36.676 104.535 87.535 121.46 6.397 1.185 8.746-2.777 8.746-6.158 0-3.052-.12-13.135-.174-23.83-35.61 7.742-43.124-15.103-43.124-15.103-5.823-14.795-14.213-18.73-14.213-18.73-11.613-7.944.876-7.78.876-7.78 12.853.902 19.621 13.19 19.621 13.19 11.417 19.568 29.945 13.911 37.249 10.64 1.149-8.272 4.466-13.92 8.127-17.116-28.431-3.236-58.318-14.212-58.318-63.258 0-13.975 5-25.394 13.188-34.358-1.329-3.224-5.71-16.242 1.24-33.874 0 0 10.749-3.44 35.21 13.121 10.21-2.836 21.16-4.258 32.038-4.307 10.878.049 21.837 1.47 32.066 4.307 24.431-16.56 35.165-13.12 35.165-13.12 6.967 17.63 2.584 30.65 1.255 33.873 8.207 8.964 13.173 20.383 13.173 34.358 0 49.163-29.944 59.988-58.447 63.157 4.591 3.972 8.682 11.762 8.682 23.704 0 17.126-.148 30.91-.148 35.126 0 3.407 2.304 7.398 8.792 6.14C219.37 232.5 256 184.537 256 128.002 256 57.307 198.691 0 128.001 0zm-80.06 182.34c-.282.636-1.283.827-2.194.39-.929-.417-1.45-1.284-1.15-1.922.276-.655 1.279-.838 2.205-.399.93.418 1.46 1.293 1.139 1.931zm6.296 5.618c-.61.566-1.804.303-2.614-.591-.837-.892-.994-2.086-.375-2.66.63-.566 1.787-.301 2.626.591.838.903 1 2.088.363 2.66zm4.32 7.188c-.785.545-2.067.034-2.86-1.104-.784-1.138-.784-2.503.017-3.05.795-.547 2.058-.055 2.861 1.075.782 1.157.782 2.522-.019 3.08zm7.304 8.325c-.701.774-2.196.566-3.29-.49-1.119-1.032-1.43-2.496-.726-3.27.71-.776 2.213-.558 3.315.49 1.11 1.03 1.45 2.505.701 3.27zm9.442 2.81c-.31 1.003-1.75 1.459-3.199 1.033-1.448-.439-2.395-1.613-2.103-2.626.301-1.01 1.747-1.484 3.207-1.028 1.446.436 2.396 1.602 2.095 2.622zm10.744 1.193c.036 1.055-1.193 1.93-2.715 1.95-1.53.034-2.769-.82-2.786-1.86 0-1.065 1.202-1.932 2.733-1.958 1.522-.03 2.768.818 2.768 1.868zm10.555-.405c.182 1.03-.875 2.088-2.387 2.37-1.485.271-2.861-.365-3.05-1.386-.184-1.056.893-2.114 2.376-2.387 1.514-.263 2.868.356 3.061 1.403z"
      fill="#161614"></path>
  </symbol>
  <symbol viewBox="0 0 256 361" xmlns="http://www.w3.org/2000/svg" preserveAspectRatio="xMidYMid" id="html-5">
    <path d="M255.555 70.766l-23.241 260.36-104.47 28.962-104.182-28.922L.445 70.766h255.11z" fill="#E44D26"></path>
    <path d="M128 337.95l84.417-23.403 19.86-222.49H128V337.95z" fill="#F16529"></path>
    <path d="M82.82 155.932H128v-31.937H47.917l.764 8.568 7.85 88.01H128v-31.937H85.739l-2.919-32.704zm7.198 80.61h-32.06l4.474 50.146 65.421 18.16.147-.04V271.58l-.14.037-35.568-9.604-2.274-25.471z" fill="#EBEBEB"></path>
    <path d="M24.18 0h16.23v16.035h14.847V0h16.231v48.558h-16.23v-16.26H40.411v16.26h-16.23V0zm68.65 16.103H78.544V0h44.814v16.103h-14.295v32.455h-16.23V16.103h-.001zM130.47 0h16.923l10.41 17.062L168.203 0h16.93v48.558h-16.164V24.49l-11.166 17.265h-.28L146.35 24.49v24.068h-15.88V0zm62.74 0h16.235v32.508h22.824v16.05h-39.06V0z"></path>
    <path d="M127.89 220.573h39.327l-3.708 41.42-35.62 9.614v33.226l65.473-18.145.48-5.396 7.506-84.08.779-8.576H127.89v31.937zm0-64.719v.078h77.143l.64-7.178 1.456-16.191.763-8.568H127.89v31.86z" fill="#FFF"></path>
  </symbol>
  <symbol viewBox="0 0 256 256" xmlns="http://www.w3.org/2000/svg" preserveAspectRatio="xMidYMid" id="instagram">
    <path d="M128 23.064c34.177 0 38.225.13 51.722.745 12.48.57 19.258 2.655 23.769 4.408 5.974 2.322 10.238 5.096 14.717 9.575 4.48 4.479 7.253 8.743 9.575 14.717 1.753 4.511 3.838 11.289 4.408 23.768.615 13.498.745 17.546.745 51.723 0 34.178-.13 38.226-.745 51.723-.57 12.48-2.655 19.257-4.408 23.768-2.322 5.974-5.096 10.239-9.575 14.718-4.479 4.479-8.743 7.253-14.717 9.574-4.511 1.753-11.289 3.839-23.769 4.408-13.495.616-17.543.746-51.722.746-34.18 0-38.228-.13-51.723-.746-12.48-.57-19.257-2.655-23.768-4.408-5.974-2.321-10.239-5.095-14.718-9.574-4.479-4.48-7.253-8.744-9.574-14.718-1.753-4.51-3.839-11.288-4.408-23.768-.616-13.497-.746-17.545-.746-51.723 0-34.177.13-38.225.746-51.722.57-12.48 2.655-19.258 4.408-23.769 2.321-5.974 5.095-10.238 9.574-14.717 4.48-4.48 8.744-7.253 14.718-9.575 4.51-1.753 11.288-3.838 23.768-4.408 13.497-.615 17.545-.745 51.723-.745M128 0C93.237 0 88.878.147 75.226.77c-13.625.622-22.93 2.786-31.071 5.95-8.418 3.271-15.556 7.648-22.672 14.764C14.367 28.6 9.991 35.738 6.72 44.155 3.555 52.297 1.392 61.602.77 75.226.147 88.878 0 93.237 0 128c0 34.763.147 39.122.77 52.774.622 13.625 2.785 22.93 5.95 31.071 3.27 8.417 7.647 15.556 14.763 22.672 7.116 7.116 14.254 11.492 22.672 14.763 8.142 3.165 17.446 5.328 31.07 5.95 13.653.623 18.012.77 52.775.77s39.122-.147 52.774-.77c13.624-.622 22.929-2.785 31.07-5.95 8.418-3.27 15.556-7.647 22.672-14.763 7.116-7.116 11.493-14.254 14.764-22.672 3.164-8.142 5.328-17.446 5.95-31.07.623-13.653.77-18.012.77-52.775s-.147-39.122-.77-52.774c-.622-13.624-2.786-22.929-5.95-31.07-3.271-8.418-7.648-15.556-14.764-22.672C227.4 14.368 220.262 9.99 211.845 6.72c-8.142-3.164-17.447-5.328-31.071-5.95C167.122.147 162.763 0 128 0zm0 62.27c-36.302 0-65.73 29.43-65.73 65.73 0 36.302 29.428 65.73 65.73 65.73 36.301 0 65.73-29.428 65.73-65.73 0-36.301-29.429-65.73-65.73-65.73zm0 108.397c-23.564 0-42.667-19.103-42.667-42.667S104.436 85.333 128 85.333s42.667 19.103 42.667 42.667-19.103 42.667-42.667 42.667zm83.686-110.994c0 8.484-6.876 15.36-15.36 15.36-8.483 0-15.36-6.876-15.36-15.36 0-8.483 6.877-15.36 15.36-15.36 8.484 0 15.36 6.877 15.36 15.36z"
      fill="#0A0A08"></path>
  </symbol>
  <symbol viewBox="0 0 256 256" xmlns="http://www.w3.org/2000/svg" preserveAspectRatio="xMidYMid" id="javascript">
    <path d="M0 0h256v256H0V0z" fill="#F7DF1E"></path>
    <path d="M67.312 213.932l19.59-11.856c3.78 6.701 7.218 12.371 15.465 12.371 7.905 0 12.89-3.092 12.89-15.12v-81.798h24.057v82.138c0 24.917-14.606 36.259-35.916 36.259-19.245 0-30.416-9.967-36.087-21.996m85.07-2.576l19.588-11.341c5.157 8.421 11.859 14.607 23.715 14.607 9.969 0 16.325-4.984 16.325-11.858 0-8.248-6.53-11.17-17.528-15.98l-6.013-2.58c-17.357-7.387-28.87-16.667-28.87-36.257 0-18.044 13.747-31.792 35.228-31.792 15.294 0 26.292 5.328 34.196 19.247l-18.732 12.03c-4.125-7.389-8.591-10.31-15.465-10.31-7.046 0-11.514 4.468-11.514 10.31 0 7.217 4.468 10.14 14.778 14.608l6.014 2.577c20.45 8.765 31.963 17.7 31.963 37.804 0 21.654-17.012 33.51-39.867 33.51-22.339 0-36.774-10.654-43.819-24.574"></path>
  </symbol>
  <symbol xmlns="http://www.w3.org/2000/svg" viewBox="0 0 22.258 22.258" id="linkedin">
    <path d="M5.366 2.973c0 1.376-1.035 2.479-2.699 2.479h-.031C1.034 5.453 0 4.348 0 2.973 0 1.564 1.067.491 2.698.491 4.331.49 5.336 1.564 5.366 2.973zM.28 21.766h4.772V7.413H.28v14.353zM16.764 7.077c-2.531 0-3.664 1.39-4.301 2.37v.046h-.031a.232.232 0 0 0 .031-.046V7.414H7.692c.062 1.345 0 14.353 0 14.353h4.771v-8.016c0-.432.029-.855.157-1.164.346-.854 1.132-1.747 2.446-1.747 1.729 0 2.42 1.319 2.42 3.247v7.68h4.771v-8.229c.001-4.412-2.355-6.461-5.493-6.461z"></path>
  </symbol>
  <symbol xmlns="http://www.w3.org/2000/svg" viewBox="0 0 246.06 155.7" id="logoLab">
    <polygon class="l2" points="16.43 0 0 0 0 155.7 137.12 155.7 137.12 137.39 16.43 137.39 16.43 0"/><path class="b3" d="M221,70.92a41.12,41.12,0,0,0,12.61-29.67h0A41.25,41.25,0,0,0,192.33,0h-37V155.7h46a44.65,44.65,0,0,0,44.65-44.65h0A44.64,44.64,0,0,0,221,70.92ZM171.8,16h20.53a25.25,25.25,0,0,1,2.21,50.4H171.8Zm29.61,123.7H171.8V82.4h29.61a28.65,28.65,0,1,1,0,57.3Z"/><path class="a2" d="M86,0h0A51.08,51.08,0,0,0,35,51.08V120.8H51V82.51h70.16V120.8h16V51.08A51.08,51.08,0,0,0,86,0ZM51,66.58V51.08a35.08,35.08,0,0,1,70.16,0v15.5Z"/>
  </symbol>
  <symbol viewBox="0 0 256 289" xmlns="http://www.w3.org/2000/svg" preserveAspectRatio="xMidYMid" id="nodejs">
    <path d="M128 288.464c-3.975 0-7.685-1.06-11.13-2.915l-35.247-20.936c-5.3-2.915-2.65-3.975-1.06-4.505 7.155-2.385 8.48-2.915 15.9-7.156.796-.53 1.856-.265 2.65.265l27.032 16.166c1.06.53 2.385.53 3.18 0l105.74-61.217c1.06-.53 1.59-1.59 1.59-2.915V83.08c0-1.325-.53-2.385-1.59-2.915l-105.74-60.953c-1.06-.53-2.385-.53-3.18 0L20.405 80.166c-1.06.53-1.59 1.855-1.59 2.915v122.17c0 1.06.53 2.385 1.59 2.915l28.887 16.695c15.636 7.95 25.44-1.325 25.44-10.6V93.68c0-1.59 1.326-3.18 3.181-3.18h13.516c1.59 0 3.18 1.325 3.18 3.18v120.58c0 20.936-11.396 33.126-31.272 33.126-6.095 0-10.865 0-24.38-6.625l-27.827-15.9C4.24 220.885 0 213.465 0 205.515V83.346C0 75.396 4.24 67.976 11.13 64L116.87 2.783c6.625-3.71 15.635-3.71 22.26 0L244.87 64C251.76 67.975 256 75.395 256 83.346v122.17c0 7.95-4.24 15.37-11.13 19.345L139.13 286.08c-3.445 1.59-7.42 2.385-11.13 2.385zm32.596-84.009c-46.377 0-55.917-21.2-55.917-39.221 0-1.59 1.325-3.18 3.18-3.18h13.78c1.59 0 2.916 1.06 2.916 2.65 2.12 14.045 8.215 20.936 36.306 20.936 22.261 0 31.802-5.035 31.802-16.96 0-6.891-2.65-11.926-37.367-15.372-28.886-2.915-46.907-9.275-46.907-32.33 0-21.467 18.02-34.187 48.232-34.187 33.921 0 50.617 11.66 52.737 37.101 0 .795-.265 1.59-.795 2.385-.53.53-1.325 1.06-2.12 1.06h-13.78c-1.326 0-2.65-1.06-2.916-2.385-3.18-14.575-11.395-19.345-33.126-19.345-24.38 0-27.296 8.48-27.296 14.84 0 7.686 3.445 10.07 36.306 14.31 32.597 4.24 47.967 10.336 47.967 33.127-.265 23.321-19.345 36.571-53.002 36.571z"
      fill="#CDCDCD"></path>
  </symbol>
  <symbol viewBox="0 0 256 135" xmlns="http://www.w3.org/2000/svg" preserveAspectRatio="xMidYMid" id="php">
    <defs>
      <radialGradient id="a" cx=".837" cy="-125.811" r="363.057" gradientTransform="matrix(.463 0 0 .463 76.464 81.918)" gradientUnits="userSpaceOnUse">
        <stop offset="0" stop-color="#fff"></stop>
        <stop offset=".5" stop-color="#4c6b97"></stop>
        <stop offset="1" stop-color="#231f20"></stop>
      </radialGradient>
    </defs>
    <ellipse fill="url(#a)" cx="128" cy="67.3" rx="128" ry="67.3"></ellipse>
    <ellipse fill="#6181B6" cx="128" cy="67.3" rx="123" ry="62.3"></ellipse>
    <path d="M152.9 87.5l6.1-31.4c1.4-7.1.2-12.4-3.4-15.7-3.5-3.2-9.5-4.8-18.3-4.8h-10.6l3-15.6c.1-.6 0-1.2-.4-1.7s-.9-.7-1.5-.7h-14.6c-1 0-1.8.7-2 1.6l-6.5 33.3c-.6-3.8-2-7-4.4-9.6-4.3-4.9-11-7.4-20.1-7.4H52.1c-1 0-1.8.7-2 1.6L37 104.7c-.1.6 0 1.2.4 1.7s.9.7 1.5.7h14.7c1 0 1.8-.7 2-1.6l3.2-16.3h10.9c5.7 0 10.6-.6 14.3-1.8 3.9-1.3 7.4-3.4 10.5-6.3 2.5-2.3 4.6-4.9 6.2-7.7l-2.6 13.5c-.1.6 0 1.2.4 1.7s.9.7 1.5.7h14.6c1 0 1.8-.7 2-1.6l7.2-37h10c4.3 0 5.5.8 5.9 1.2.3.3.9 1.5.2 5.2L134.1 87c-.1.6 0 1.2.4 1.7s.9.7 1.5.7h15c.9-.3 1.7-1 1.9-1.9zm-67.6-26c-.9 4.7-2.6 8.1-5.1 10-2.5 1.9-6.6 2.9-12 2.9h-6.5l4.7-24.2h8.4c6.2 0 8.7 1.3 9.7 2.4 1.3 1.6 1.6 4.7.8 8.9zm130-18.6c-4.3-4.9-11-7.4-20.1-7.4h-28.3c-1 0-1.8.7-2 1.6l-13.1 67.5c-.1.6 0 1.2.4 1.7s.9.7 1.5.7h14.7c1 0 1.8-.7 2-1.6l3.2-16.3h10.9c5.7 0 10.6-.6 14.3-1.8 3.9-1.3 7.4-3.4 10.5-6.3 2.6-2.4 4.8-5.1 6.4-8 1.6-2.9 2.8-6.1 3.5-9.6 1.7-8.7.4-15.5-3.9-20.5zM200 61.5c-.9 4.7-2.6 8.1-5.1 10-2.5 1.9-6.6 2.9-12 2.9h-6.5l4.7-24.2h8.4c6.2 0 8.7 1.3 9.7 2.4 1.4 1.6 1.7 4.7.8 8.9z"
      fill="#FFF"></path>
    <path d="M74.8 48.2c5.6 0 9.3 1 11.2 3.1 1.9 2.1 2.3 5.6 1.3 10.6-1 5.2-3 9-5.9 11.2-2.9 2.2-7.3 3.3-13.2 3.3h-8.9l5.5-28.2h10zM39 105h14.7l3.5-17.9h12.6c5.6 0 10.1-.6 13.7-1.8 3.6-1.2 6.8-3.1 9.8-5.9 2.5-2.3 4.5-4.8 6-7.5s2.6-5.7 3.2-9c1.6-8 .4-14.2-3.5-18.7s-10.1-6.7-18.6-6.7H52.1L39 105zm74.3-85.4h14.6l-3.5 17.9h13c8.2 0 13.8 1.4 16.9 4.3 3.1 2.9 4 7.5 2.8 13.9L151 87.1h-14.8l5.8-29.9c.7-3.4.4-5.7-.7-6.9-1.1-1.2-3.6-1.9-7.3-1.9h-11.7l-7.5 38.7h-14.6l13.1-67.5zm76.2 28.6c5.6 0 9.3 1 11.2 3.1 1.9 2.1 2.3 5.6 1.3 10.6-1 5.2-3 9-5.9 11.2-2.9 2.2-7.3 3.3-13.2 3.3H174l5.5-28.2h10zM153.7 105h14.7l3.5-17.9h12.6c5.6 0 10.1-.6 13.7-1.8 3.6-1.2 6.8-3.1 9.8-5.9 2.5-2.3 4.5-4.8 6-7.5s2.6-5.7 3.2-9c1.6-8 .4-14.2-3.5-18.7s-10.1-6.7-18.6-6.7h-28.3L153.7 105z"
      fill="#000004"></path>
  </symbol>
  <symbol viewBox="0 0 256 228" xmlns="http://www.w3.org/2000/svg" preserveAspectRatio="xMidYMid" id="react">
    <path d="M210.483 73.824a171.49 171.49 0 0 0-8.24-2.597c.465-1.9.893-3.777 1.273-5.621 6.238-30.281 2.16-54.676-11.769-62.708-13.355-7.7-35.196.329-57.254 19.526a171.23 171.23 0 0 0-6.375 5.848 155.866 155.866 0 0 0-4.241-3.917C100.759 3.829 77.587-4.822 63.673 3.233 50.33 10.957 46.379 33.89 51.995 62.588a170.974 170.974 0 0 0 1.892 8.48c-3.28.932-6.445 1.924-9.474 2.98C17.309 83.498 0 98.307 0 113.668c0 15.865 18.582 31.778 46.812 41.427a145.52 145.52 0 0 0 6.921 2.165 167.467 167.467 0 0 0-2.01 9.138c-5.354 28.2-1.173 50.591 12.134 58.266 13.744 7.926 36.812-.22 59.273-19.855a145.567 145.567 0 0 0 5.342-4.923 168.064 168.064 0 0 0 6.92 6.314c21.758 18.722 43.246 26.282 56.54 18.586 13.731-7.949 18.194-32.003 12.4-61.268a145.016 145.016 0 0 0-1.535-6.842c1.62-.48 3.21-.974 4.76-1.488 29.348-9.723 48.443-25.443 48.443-41.52 0-15.417-17.868-30.326-45.517-39.844zm-6.365 70.984c-1.4.463-2.836.91-4.3 1.345-3.24-10.257-7.612-21.163-12.963-32.432 5.106-11 9.31-21.767 12.459-31.957 2.619.758 5.16 1.557 7.61 2.4 23.69 8.156 38.14 20.213 38.14 29.504 0 9.896-15.606 22.743-40.946 31.14zm-10.514 20.834c2.562 12.94 2.927 24.64 1.23 33.787-1.524 8.219-4.59 13.698-8.382 15.893-8.067 4.67-25.32-1.4-43.927-17.412a156.726 156.726 0 0 1-6.437-5.87c7.214-7.889 14.423-17.06 21.459-27.246 12.376-1.098 24.068-2.894 34.671-5.345a134.17 134.17 0 0 1 1.386 6.193zM87.276 214.515c-7.882 2.783-14.16 2.863-17.955.675-8.075-4.657-11.432-22.636-6.853-46.752a156.923 156.923 0 0 1 1.869-8.499c10.486 2.32 22.093 3.988 34.498 4.994 7.084 9.967 14.501 19.128 21.976 27.15a134.668 134.668 0 0 1-4.877 4.492c-9.933 8.682-19.886 14.842-28.658 17.94zM50.35 144.747c-12.483-4.267-22.792-9.812-29.858-15.863-6.35-5.437-9.555-10.836-9.555-15.216 0-9.322 13.897-21.212 37.076-29.293 2.813-.98 5.757-1.905 8.812-2.773 3.204 10.42 7.406 21.315 12.477 32.332-5.137 11.18-9.399 22.249-12.634 32.792a134.718 134.718 0 0 1-6.318-1.979zm12.378-84.26c-4.811-24.587-1.616-43.134 6.425-47.789 8.564-4.958 27.502 2.111 47.463 19.835a144.318 144.318 0 0 1 3.841 3.545c-7.438 7.987-14.787 17.08-21.808 26.988-12.04 1.116-23.565 2.908-34.161 5.309a160.342 160.342 0 0 1-1.76-7.887zm110.427 27.268a347.8 347.8 0 0 0-7.785-12.803c8.168 1.033 15.994 2.404 23.343 4.08-2.206 7.072-4.956 14.465-8.193 22.045a381.151 381.151 0 0 0-7.365-13.322zm-45.032-43.861c5.044 5.465 10.096 11.566 15.065 18.186a322.04 322.04 0 0 0-30.257-.006c4.974-6.559 10.069-12.652 15.192-18.18zM82.802 87.83a323.167 323.167 0 0 0-7.227 13.238c-3.184-7.553-5.909-14.98-8.134-22.152 7.304-1.634 15.093-2.97 23.209-3.984a321.524 321.524 0 0 0-7.848 12.897zm8.081 65.352c-8.385-.936-16.291-2.203-23.593-3.793 2.26-7.3 5.045-14.885 8.298-22.6a321.187 321.187 0 0 0 7.257 13.246c2.594 4.48 5.28 8.868 8.038 13.147zm37.542 31.03c-5.184-5.592-10.354-11.779-15.403-18.433 4.902.192 9.899.29 14.978.29 5.218 0 10.376-.117 15.453-.343-4.985 6.774-10.018 12.97-15.028 18.486zm52.198-57.817c3.422 7.8 6.306 15.345 8.596 22.52-7.422 1.694-15.436 3.058-23.88 4.071a382.417 382.417 0 0 0 7.859-13.026 347.403 347.403 0 0 0 7.425-13.565zm-16.898 8.101a358.557 358.557 0 0 1-12.281 19.815 329.4 329.4 0 0 1-23.444.823c-7.967 0-15.716-.248-23.178-.732a310.202 310.202 0 0 1-12.513-19.846h.001a307.41 307.41 0 0 1-10.923-20.627 310.278 310.278 0 0 1 10.89-20.637l-.001.001a307.318 307.318 0 0 1 12.413-19.761c7.613-.576 15.42-.876 23.31-.876H128c7.926 0 15.743.303 23.354.883a329.357 329.357 0 0 1 12.335 19.695 358.489 358.489 0 0 1 11.036 20.54 329.472 329.472 0 0 1-11 20.722zm22.56-122.124c8.572 4.944 11.906 24.881 6.52 51.026-.344 1.668-.73 3.367-1.15 5.09-10.622-2.452-22.155-4.275-34.23-5.408-7.034-10.017-14.323-19.124-21.64-27.008a160.789 160.789 0 0 1 5.888-5.4c18.9-16.447 36.564-22.941 44.612-18.3zM128 90.808c12.625 0 22.86 10.235 22.86 22.86s-10.235 22.86-22.86 22.86-22.86-10.235-22.86-22.86 10.235-22.86 22.86-22.86z"
      fill="#CDCDCD"></path>
  </symbol>
  <symbol viewBox="0 0 256 192" xmlns="http://www.w3.org/2000/svg" preserveAspectRatio="xMidYMid" id="sass">
    <path d="M220.281 110.514c-8.906.046-16.647 2.191-23.128 5.362-2.379-4.71-4.757-8.906-5.176-11.984-.467-3.59-1.026-5.782-.467-10.072.56-4.29 3.078-10.399 3.031-10.865-.046-.466-.56-2.658-5.689-2.704-5.129-.047-9.559.979-10.072 2.331-.513 1.352-1.492 4.43-2.145 7.6-.886 4.664-10.258 21.31-15.62 30.03-1.726-3.403-3.218-6.388-3.545-8.766-.466-3.59-1.026-5.782-.466-10.072.56-4.29 3.078-10.398 3.031-10.865-.047-.466-.56-2.658-5.689-2.704-5.13-.047-9.56.979-10.072 2.331-.513 1.353-1.073 4.523-2.145 7.601-1.073 3.078-13.523 30.87-16.787 38.05a214.726 214.726 0 0 1-4.15 8.627s-.047.14-.187.373a117.773 117.773 0 0 1-1.398 2.658v.046c-.7 1.26-1.446 2.425-1.819 2.425-.28 0-.793-3.357.093-7.927 1.865-9.652 6.295-24.667 6.249-25.18 0-.28.839-2.891-2.891-4.244-3.638-1.352-4.943.886-5.27.886-.326 0-.56.793-.56.793s4.058-16.88-7.74-16.88c-7.367 0-17.533 8.067-22.569 15.341a6269.96 6269.96 0 0 0-17.16 9.373c-2.75 1.539-5.595 3.078-8.253 4.523-.187-.186-.373-.42-.56-.606-14.269-15.248-40.661-26.02-39.542-46.49.42-7.461 2.984-27.046 50.687-50.827 39.262-19.352 70.505-13.99 75.914-2.099 7.74 16.974-16.74 48.496-57.309 53.065-15.481 1.726-23.595-4.243-25.646-6.481-2.145-2.332-2.472-2.472-3.265-2.005-1.305.7-.466 2.798 0 4.01 1.213 3.17 6.202 8.766 14.642 11.518 7.461 2.424 25.6 3.777 47.563-4.71 24.574-9.513 43.786-35.952 38.144-58.101-5.643-22.476-42.947-29.89-78.246-17.347C61.086 13.99 38.33 25.74 21.963 41.035 2.518 59.22-.56 75.028.699 81.65c4.524 23.501 36.932 38.796 49.895 50.127-.653.373-1.26.7-1.772.98-6.482 3.217-31.196 16.133-37.351 29.796-6.994 15.481 1.12 26.58 6.482 28.071 16.647 4.617 33.76-3.683 42.946-17.393 9.186-13.709 8.067-31.522 3.824-39.682-.047-.093-.093-.187-.187-.28 1.679-.979 3.404-2.005 5.083-2.984a247.933 247.933 0 0 1 9.373-5.27c-1.586 4.337-2.752 9.513-3.311 16.974-.7 8.767 2.89 20.144 7.6 24.62 2.099 1.96 4.57 2.006 6.156 2.006 5.502 0 7.974-4.57 10.725-9.979 3.357-6.621 6.388-14.315 6.388-14.315s-3.777 20.797 6.482 20.797c3.73 0 7.507-4.85 9.186-7.321v.046s.093-.14.28-.466c.373-.606.606-.98.606-.98v-.092c1.492-2.612 4.85-8.534 9.839-18.373 6.435-12.683 12.637-28.537 12.637-28.537s.56 3.87 2.471 10.305c1.12 3.777 3.45 7.927 5.316 11.937-1.492 2.099-2.425 3.264-2.425 3.264l.047.047c-1.213 1.585-2.518 3.31-3.964 4.99-5.083 6.061-11.144 13.01-11.984 15.014-.98 2.378-.746 4.104 1.12 5.503 1.352 1.026 3.776 1.165 6.248 1.026 4.57-.327 7.787-1.446 9.372-2.145 2.472-.886 5.363-2.239 8.067-4.244 4.99-3.684 8.02-8.953 7.741-15.9-.14-3.824-1.399-7.648-2.938-11.239.467-.652.886-1.305 1.353-1.958 7.88-11.518 13.989-24.155 13.989-24.155s.56 3.87 2.471 10.306c.933 3.264 2.845 6.808 4.523 10.258-7.414 6.016-11.984 13.01-13.616 17.58-2.937 8.487-.653 12.31 3.684 13.196 1.958.42 4.756-.513 6.808-1.399 2.611-.839 5.689-2.284 8.627-4.43 4.99-3.683 9.792-8.813 9.512-15.76-.14-3.171-.979-6.296-2.145-9.327 6.295-2.61 14.409-4.056 24.76-2.844 22.197 2.611 26.58 16.46 25.74 22.29-.839 5.828-5.502 8.999-7.04 9.978-1.54.98-2.052 1.306-1.912 2.005.186 1.026.932.98 2.238.793 1.819-.326 11.658-4.71 12.077-15.435.7-13.709-12.357-28.677-35.439-28.537zM49.055 168.242c-7.368 8.02-17.626 11.051-22.056 8.487-4.756-2.752-2.891-14.596 6.155-23.082 5.502-5.176 12.59-9.98 17.3-12.917 1.072-.653 2.658-1.585 4.57-2.751.326-.187.513-.28.513-.28l1.119-.7c3.31 12.124.14 22.803-7.601 31.243zm53.625-36.465c-2.565 6.249-7.927 22.243-11.191 21.357-2.798-.746-4.524-12.87-.56-24.854 2.005-6.016 6.248-13.197 8.72-15.994 4.01-4.477 8.44-5.97 9.512-4.15 1.353 2.378-4.896 19.724-6.481 23.641zm44.252 21.17c-1.073.56-2.098.933-2.565.653-.326-.187.467-.933.467-.933s5.549-5.968 7.74-8.673c1.26-1.585 2.751-3.45 4.337-5.549v.606c0 7.135-6.902 11.938-9.98 13.896zm34.133-7.787c-.793-.56-.653-2.425 2.005-8.254 1.026-2.285 3.45-6.108 7.601-9.792.466 1.492.793 2.938.746 4.29-.047 9-6.481 12.357-10.352 13.756z"
      fill="#CD6799"></path>
  </symbol>
  <symbol xmlns="http://www.w3.org/2000/svg" viewBox="0 0 521.78 450.53" id="sur-mesure">
    <path d="M202.29 157.67c-11.09 5.5-11.09 14.42 0 19.92 13.94 6.91 36.59 6.87 50.42-.13 17.09-8.65 16.92-22.48-.24-31-21.69-10.77-56.91-10.75-78.55.07-26.13 13.06-26 35.62.19 48.59 33.83 16.76 88.65 16.76 122.46 0 41.57-20.63 41.36-55.56-.25-76.11-52.87-26.11-138.39-26.07-191.16.12-33 16.4-49.55 37.32-49.55 58.81 0 43 60.74 77.35 135.67 77.35h291.41V361.1h-49.14a4 4 0 0 1-4-4v-55.26a7 7 0 0 0-6.95-6.95 7 7 0 0 0-6.95 6.95v55.28a4 4 0 0 1-4 4h-58a4 4 0 0 1-4-4v-55.28a7 7 0 0 0-6.94-6.95 7 7 0 0 0-6.95 6.95v55.27a4 4 0 0 1-4 4h-58a4 4 0 0 1-4-4v-55.27a7 7 0 0 0-6.95-6.95 7 7 0 0 0-7 6.95v55.28a4 4 0 0 1-4 4h-58a4 4 0 0 1-4-4v-55.28a7 7 0 0 0-6.94-6.95 7 7 0 0 0-7 6.95v54.57a4 4 0 0 1-4.31 3.95c-21.07-1.87-44.39-6.73-59.32-13.57a3.94 3.94 0 0 1-2.3-3.6v-57.85a7 7 0 0 0-3.55-6.06 7 7 0 0 0-10.34 6.06v51.45a1.25 1.25 0 0 1-1.87 1.08c-23.89-14.06-38.91-33.51-38.91-54.69"
      fill="#F9F9F9" stroke="#000" stroke-linecap="round" stroke-linejoin="round" stroke-width="15"></path>
  </symbol>
  <symbol xmlns="http://www.w3.org/2000/svg" viewBox="0 0 521.78 450.53" id="wheel">
    <path d="M382.09 158.56q.39-4.77.39-9.64a117.66 117.66 0 1 0-229.09 37.91l-1.64.37a117.6 117.6 0 1 0 139.33 77.27l-1.8-.43A117.83 117.83 0 0 1 153.78 188l.9-1.41a117.85 117.85 0 0 1 135.72 75.89l1.35 1q2.69-.63 5.32-1.38a117.93 117.93 0 0 0 79.43-76.05 117.6 117.6 0 1 1-134.43 79.68l.79-2.39a117.79 117.79 0 0 1 111.3-79.4"
      fill="#F9F9F9" stroke="#000" stroke-linecap="round" stroke-linejoin="round" stroke-width="15"></path>
  </symbol>
  <symbol xmlns="http://www.w3.org/2000/svg" viewBox="0 0 521.78 450.53" id="wordpress">
    <path d="M238.11 211.24L215 279.9l-50.47-150h15.13a7 7 0 1 0 0-14h-50.48A172.3 172.3 0 0 1 350.7 87.56c-12.3 2.76-22.08 14-24.89 28.37a43.89 43.89 0 0 0-.83 8.52 44.91 44.91 0 0 0 .35 5.48 41.23 41.23 0 0 0 6.14 17.29 36.67 36.67 0 0 0 3.53 4.58c6.6 9.41 19.71 32.24 13.51 58l-23.6 70.11-44.71-132.75-5.8-17.23h15.13a7 7 0 0 0 0-14h-76.08a7 7 0 0 0 0 14h14.22L257 212.65l-54.93 155-84.25-237.72h-.1a172.27 172.27 0 1 0 278.21.64l-84 237.07-44.29-125"
      fill="#F9F9F9" stroke="#000" stroke-linecap="round" stroke-linejoin="round" stroke-width="15"></path>
  </symbol>
</svg>