<svg width="0" height="0" class="hidden">
  <symbol xmlns="http://www.w3.org/2000/svg" viewBox="0 0 64 64" id="camera">
    <path d="M64 55.1H0V18h64v37.1zm-62-2h60V20H2v33.1z"></path>
    <path d="M13.7 20H5.6v-6.6h8.1V20zm-6.1-2h4.1v-2.6H7.6V18zm35.6 2H20.5l4.9-11.1h13.3L43.2 20zm-19.7-2h16.7l-2.9-7.1H26.7L23.5 18zM64 55.1H0V46h24.6l.3.2c2.1 1.5 4.5 2.3 7.1 2.3 2.6 0 5-.8 7.1-2.3l.3-.2H64v9.1zm-62-2h60V48H40c-2.4 1.7-5.1 2.5-8 2.5-2.9 0-5.6-.9-8-2.5H2v5.1z"></path>
    <path d="M48.6 27.1h-9.4l-.2-.2c-2.1-1.5-4.5-2.3-7.1-2.3-2.6 0-5 .8-7.1 2.3l-.3.2H.1V18h48.6v9.1zm-8.7-2h6.8V20H2.1v5.1h21.8c2.4-1.6 5.1-2.5 8-2.5 2.9 0 5.6.8 8 2.5z"></path>
    <path d="M32 50.6c-7.7 0-14-6.3-14-14s6.3-14 14-14 14 6.3 14 14-6.3 14-14 14zm0-26c-6.6 0-12 5.4-12 12s5.4 12 12 12 12-5.4 12-12-5.4-12-12-12z"></path>
    <path d="M32 45.8c-5.1 0-9.2-4.1-9.2-9.2s4.1-9.2 9.2-9.2 9.2 4.1 9.2 9.2-4.1 9.2-9.2 9.2zm0-16.4c-4 0-7.2 3.2-7.2 7.2s3.2 7.2 7.2 7.2 7.2-3.2 7.2-7.2-3.2-7.2-7.2-7.2zm32 .4H46.6V18H64v11.8zm-15.4-2H62V20H48.6v7.8z"></path>
  </symbol>
  <symbol viewBox="0 0 256 250" xmlns="http://www.w3.org/2000/svg" preserveAspectRatio="xMidYMid" id="github-icon">
    <path d="M128.001 0C57.317 0 0 57.307 0 128.001c0 56.554 36.676 104.535 87.535 121.46 6.397 1.185 8.746-2.777 8.746-6.158 0-3.052-.12-13.135-.174-23.83-35.61 7.742-43.124-15.103-43.124-15.103-5.823-14.795-14.213-18.73-14.213-18.73-11.613-7.944.876-7.78.876-7.78 12.853.902 19.621 13.19 19.621 13.19 11.417 19.568 29.945 13.911 37.249 10.64 1.149-8.272 4.466-13.92 8.127-17.116-28.431-3.236-58.318-14.212-58.318-63.258 0-13.975 5-25.394 13.188-34.358-1.329-3.224-5.71-16.242 1.24-33.874 0 0 10.749-3.44 35.21 13.121 10.21-2.836 21.16-4.258 32.038-4.307 10.878.049 21.837 1.47 32.066 4.307 24.431-16.56 35.165-13.12 35.165-13.12 6.967 17.63 2.584 30.65 1.255 33.873 8.207 8.964 13.173 20.383 13.173 34.358 0 49.163-29.944 59.988-58.447 63.157 4.591 3.972 8.682 11.762 8.682 23.704 0 17.126-.148 30.91-.148 35.126 0 3.407 2.304 7.398 8.792 6.14C219.37 232.5 256 184.537 256 128.002 256 57.307 198.691 0 128.001 0zm-80.06 182.34c-.282.636-1.283.827-2.194.39-.929-.417-1.45-1.284-1.15-1.922.276-.655 1.279-.838 2.205-.399.93.418 1.46 1.293 1.139 1.931zm6.296 5.618c-.61.566-1.804.303-2.614-.591-.837-.892-.994-2.086-.375-2.66.63-.566 1.787-.301 2.626.591.838.903 1 2.088.363 2.66zm4.32 7.188c-.785.545-2.067.034-2.86-1.104-.784-1.138-.784-2.503.017-3.05.795-.547 2.058-.055 2.861 1.075.782 1.157.782 2.522-.019 3.08zm7.304 8.325c-.701.774-2.196.566-3.29-.49-1.119-1.032-1.43-2.496-.726-3.27.71-.776 2.213-.558 3.315.49 1.11 1.03 1.45 2.505.701 3.27zm9.442 2.81c-.31 1.003-1.75 1.459-3.199 1.033-1.448-.439-2.395-1.613-2.103-2.626.301-1.01 1.747-1.484 3.207-1.028 1.446.436 2.396 1.602 2.095 2.622zm10.744 1.193c.036 1.055-1.193 1.93-2.715 1.95-1.53.034-2.769-.82-2.786-1.86 0-1.065 1.202-1.932 2.733-1.958 1.522-.03 2.768.818 2.768 1.868zm10.555-.405c.182 1.03-.875 2.088-2.387 2.37-1.485.271-2.861-.365-3.05-1.386-.184-1.056.893-2.114 2.376-2.387 1.514-.263 2.868.356 3.061 1.403z"
      fill="#161614"></path>
  </symbol>
  <symbol viewBox="0 0 256 256" xmlns="http://www.w3.org/2000/svg" preserveAspectRatio="xMidYMid" id="instagram-icon">
    <path d="M128 23.064c34.177 0 38.225.13 51.722.745 12.48.57 19.258 2.655 23.769 4.408 5.974 2.322 10.238 5.096 14.717 9.575 4.48 4.479 7.253 8.743 9.575 14.717 1.753 4.511 3.838 11.289 4.408 23.768.615 13.498.745 17.546.745 51.723 0 34.178-.13 38.226-.745 51.723-.57 12.48-2.655 19.257-4.408 23.768-2.322 5.974-5.096 10.239-9.575 14.718-4.479 4.479-8.743 7.253-14.717 9.574-4.511 1.753-11.289 3.839-23.769 4.408-13.495.616-17.543.746-51.722.746-34.18 0-38.228-.13-51.723-.746-12.48-.57-19.257-2.655-23.768-4.408-5.974-2.321-10.239-5.095-14.718-9.574-4.479-4.48-7.253-8.744-9.574-14.718-1.753-4.51-3.839-11.288-4.408-23.768-.616-13.497-.746-17.545-.746-51.723 0-34.177.13-38.225.746-51.722.57-12.48 2.655-19.258 4.408-23.769 2.321-5.974 5.095-10.238 9.574-14.717 4.48-4.48 8.744-7.253 14.718-9.575 4.51-1.753 11.288-3.838 23.768-4.408 13.497-.615 17.545-.745 51.723-.745M128 0C93.237 0 88.878.147 75.226.77c-13.625.622-22.93 2.786-31.071 5.95-8.418 3.271-15.556 7.648-22.672 14.764C14.367 28.6 9.991 35.738 6.72 44.155 3.555 52.297 1.392 61.602.77 75.226.147 88.878 0 93.237 0 128c0 34.763.147 39.122.77 52.774.622 13.625 2.785 22.93 5.95 31.071 3.27 8.417 7.647 15.556 14.763 22.672 7.116 7.116 14.254 11.492 22.672 14.763 8.142 3.165 17.446 5.328 31.07 5.95 13.653.623 18.012.77 52.775.77s39.122-.147 52.774-.77c13.624-.622 22.929-2.785 31.07-5.95 8.418-3.27 15.556-7.647 22.672-14.763 7.116-7.116 11.493-14.254 14.764-22.672 3.164-8.142 5.328-17.446 5.95-31.07.623-13.653.77-18.012.77-52.775s-.147-39.122-.77-52.774c-.622-13.624-2.786-22.929-5.95-31.07-3.271-8.418-7.648-15.556-14.764-22.672C227.4 14.368 220.262 9.99 211.845 6.72c-8.142-3.164-17.447-5.328-31.071-5.95C167.122.147 162.763 0 128 0zm0 62.27c-36.302 0-65.73 29.43-65.73 65.73 0 36.302 29.428 65.73 65.73 65.73 36.301 0 65.73-29.428 65.73-65.73 0-36.301-29.429-65.73-65.73-65.73zm0 108.397c-23.564 0-42.667-19.103-42.667-42.667S104.436 85.333 128 85.333s42.667 19.103 42.667 42.667-19.103 42.667-42.667 42.667zm83.686-110.994c0 8.484-6.876 15.36-15.36 15.36-8.483 0-15.36-6.876-15.36-15.36 0-8.483 6.877-15.36 15.36-15.36 8.484 0 15.36 6.877 15.36 15.36z"
      fill="#0A0A08"></path>
  </symbol>
  <symbol xmlns="http://www.w3.org/2000/svg" viewBox="0 0 100 100" id="pencil">
    <title>School_Монтажная область 1_Монтажная область 1_Монтажная область 1_Монтажная область 1_Монтажная область 1</title>
    <path d="M60.275 17.228c-1.63-1.964-1.518-2.663.565-4.475 1.456-1.266 2.77-2.697 4.238-3.948a20.017 20.017 0 0 1 2.318-1.311 6.209 6.209 0 0 0 1.566-1.29c.661-.84 1.11-1.845 1.78-2.676.883-1.099 1.79-1.981 3.446-.915.904.583 2.192.575 3.308.825 3.872.87 7.717 5.043 8.4 8.892.258 1.45.096 2.458-1.191 3.34a8.965 8.965 0 0 0-1.63 2.149c1.91 1.172 1.45 2.223.193 3.745-1.322 1.6-2.029 3.697-3.137 5.495-.367.596-1.157 1.336-1.736 1.322-1.861-.045-2.597 1.057-3.517 2.403-2.625 3.844-5.518 7.504-8.18 11.323-4.829 6.925-9.48 13.976-14.378 20.85-2.577 3.613-5.606 6.902-8.264 10.462-1.25 1.675-2.062 3.672-3.16 5.47a6.906 6.906 0 0 1-1.922 2.375c-4.409 2.706-9.11 4.986-13.285 8.001-2.382 1.72-4 4.523-5.873 6.91-1.362 1.735-2.843 2.185-4.439 1.126-1.593-1.057-1.78-2.28-.685-4.234a16.315 16.315 0 0 1 .713-1.568c3.545-4.962 3.648-10.966 5.025-16.578.615-2.509 1.037-5.064 1.566-7.595a1.81 1.81 0 0 1 .398-.958c7.375-6.456 11.842-15.164 17.684-22.805q6.398-8.37 12.717-16.8c1.379-1.83 2.652-3.742 4.055-5.553 1.035-1.337 2.202-2.57 3.425-3.982zm-27.792 51.3c3.676 1.677 3.638 1.654 5.443-1.249 1.364-2.192 2.882-4.287 4.257-6.472 5.51-8.764 12.573-16.304 19.023-24.33 2.968-3.695 5.566-7.687 8.325-11.534-2.682-1.963-4.177-1.663-5.638.642-1.67 2.635-3.433 5.213-5.182 7.8a32.933 32.933 0 0 1-2.135 2.9c-2.748 3.234-5.736 6.285-8.263 9.681-3.75 5.04-7.17 10.325-10.759 15.487-1.623 2.336-3.312 4.626-5.07 7.075zm4.968 4.045c2.915 1.298 2.982 1.352 4.837-.964 3.359-4.195 6.787-8.348 9.9-12.723 4.729-6.647 9.18-13.49 13.815-20.205 2.596-3.762 5.323-7.432 7.987-11.138-1.836-1.104-1.902-1.154-3.144.47-1.607 2.1-2.976 4.39-4.663 6.42-2.915 3.503-6.168 6.734-8.969 10.321C52.8 50.41 48.576 56.22 44.397 62.055c-2.412 3.368-4.577 6.913-6.946 10.518zM30.2 67.485c.869-1.238 1.558-2.227 2.254-3.211 4.011-5.673 7.984-11.373 12.058-17 1.5-2.07 3.316-3.91 4.852-5.955 3.118-4.151 6.162-8.358 9.2-12.567 1.89-2.618 3.713-5.283 5.557-7.913-2.097-1.523-2.896-1.273-4.642 1.064q-8.802 11.78-17.564 23.59c-4.138 5.6-8.088 11.343-12.369 16.83-1.615 2.07-.75 3.32.654 5.162zm-6.498 2.957c-.13.888-.218 1.819-.407 2.729-.774 3.726-1.68 7.43-2.299 11.18a4.356 4.356 0 0 0 1.01 2.955c.223.29 1.67-.106 2.385-.502q4.056-2.243 7.986-4.711a57.737 57.737 0 0 0 5.246-3.683 2.093 2.093 0 0 0 .468-1.812 1.709 1.709 0 0 0-1.387-.928c-1.711.206-2.115-.793-2.348-2.123-.273-1.56-1.263-1.978-2.693-1.59-2.877.784-2.835.776-3.787-2.185a13.556 13.556 0 0 0-1.29-2.342c-.749.613-1.53 1.192-2.23 1.854a4.626 4.626 0 0 0-.654 1.158zm52.11-45.062a10.245 10.245 0 0 0 2.11-1.203 10.167 10.167 0 0 0 1.487-2.095c.757-1.105.612-1.633-.687-2.462a55.477 55.477 0 0 1-9.202-6.857c-2.326-2.287-2.643-2.696-5.03-.413-.361.344-.664.757-1.052 1.065-1.105.877-.976 1.756-.157 2.76 3.217 3.944 7.426 6.566 12.531 9.205zM71.918 7.136c-1.392 1.254-1.566 2.733-.026 4.164a63.1 63.1 0 0 0 5.015 4.237c2.74 2.06 2.915 1.981 4.498-.435l-9.487-7.966zm10.303 5.141l.444-.528C80.968 9.082 79.332 6.343 75.8 5.9l-.406.488 6.827 5.888z"></path>
  </symbol>
  <symbol xmlns="http://www.w3.org/2000/svg" viewBox="0 0 60 55" id="text">
    <title>3D GUI - Outline - 027 - Text</title>
    <path d="M.007 54.036a.993.993 0 0 0 .07.34c.005.015.014.027.02.042.023.054.05.105.083.154a.986.986 0 0 0 .09.1c.014.016.027.033.042.048.08.077.174.14.275.185.02.01.042.016.064.024A.99.99 0 0 0 1 55h8.01c.007 0 .014-.003.022-.003a.995.995 0 0 0 .256-.04c.025-.006.048-.019.072-.028a.949.949 0 0 0 .077-.033c.023-.011.049-.017.072-.03l6.938-4c.01-.005.014-.014.023-.02a.987.987 0 0 0 .27-.238c.01-.013.015-.029.024-.042a.985.985 0 0 0 .123-.22L21.792 37h14.944l6.377 17.345c.003.009.01.015.013.023.014.03.03.058.047.085.039.078.087.15.145.214a.969.969 0 0 0 .083.078c.061.054.13.1.203.137a.943.943 0 0 0 .448.119l.002-.001h8.008a.996.996 0 0 0 .249-.033c.025-.006.047-.018.071-.027a.995.995 0 0 0 .162-.067l.017-.007 6.938-4a.938.938 0 0 0 .085-.075.947.947 0 0 0 .39-.64.951.951 0 0 0 .012-.185.967.967 0 0 0-.03-.2.938.938 0 0 0-.018-.111l-18.021-49c-.006-.015-.016-.026-.023-.04a.99.99 0 0 0-.098-.188L41.782.41a.98.98 0 0 0-.066-.074.963.963 0 0 0-.075-.085c-.012-.01-.027-.014-.04-.023a.984.984 0 0 0-.194-.12.948.948 0 0 0-.093-.046.99.99 0 0 0-.315-.06L40.982 0H25.958a.992.992 0 0 0-.345.07.947.947 0 0 0-.08.033c-.025.012-.051.017-.075.03l-6.937 4c-.012.008-.02.02-.032.027a.984.984 0 0 0-.119.095c-.025.022-.05.04-.073.064-.015.016-.03.031-.044.048a.993.993 0 0 0-.096.154c-.011.02-.027.04-.037.06-.006.013-.016.022-.02.034-.004.007-.004.014-.007.021-.002.007-.007.012-.01.019l-18.021 49a.984.984 0 0 0-.055.312c0 .012-.007.021-.007.033 0 .013.007.024.007.036zm15.128-4.72l-4.235 2.44L16.326 37h3.336l-4.527 12.315zm42.636.239l-5.18 2.986L35.268 5.446l5.18-2.987L57.77 49.555zM26.226 2H37.24l-3.468 2H22.758l3.468-2zM19.72 6h13.622l17.286 47H44.75l-6.378-17.345c-.003-.008-.009-.012-.012-.02a.972.972 0 0 0-.121-.197 1.017 1.017 0 0 0-.089-.132 5.894 5.894 0 0 0-.313-.218 1.008 1.008 0 0 0-.146-.036.97.97 0 0 0-.236-.048c-.008 0-.014-.004-.021-.004H15.628c-.008 0-.014.004-.022.004a.97.97 0 0 0-.223.045 1.014 1.014 0 0 0-.16.04c-.106.07-.21.142-.312.219a.96.96 0 0 0-.085.126.974.974 0 0 0-.124.201c-.003.008-.01.012-.013.02L8.312 53H2.434L19.72 6z"></path>
    <path d="M17.206 29.023a.973.973 0 0 0 .044.218c.009.055.022.11.04.163.07.107.142.21.218.312a.914.914 0 0 0 .133.09.93.93 0 0 0 .195.12c.007.003.012.01.02.012.11.041.227.062.345.062h16.66a.998.998 0 0 0 .346-.062c.008-.002.012-.009.02-.012a.972.972 0 0 0 .195-.12 1.01 1.01 0 0 0 .133-.09c.076-.101.148-.205.218-.312.018-.053.031-.108.04-.164a.973.973 0 0 0 .044-.217c0-.008.004-.015.004-.023a3.832 3.832 0 0 1-.061-.345l-6.258-17c-.003-.008-.01-.012-.012-.02a.97.97 0 0 0-.118-.192 1.008 1.008 0 0 0-.093-.138 6.019 6.019 0 0 0-.313-.218 1.023 1.023 0 0 0-.143-.035.977.977 0 0 0-.238-.048c-.008 0-.014-.004-.021-.004h-4.146c-.008 0-.015.005-.023.005a.974.974 0 0 0-.212.042.735.735 0 0 0-.569.388.973.973 0 0 0-.122.2c-.003.008-.01.012-.012.02l-6.257 17A3.788 3.788 0 0 1 17.2 29c0 .008.005.015.005.023zM25.156 13h2.75l.292.792-3.87 10.517-4.204 2.361L25.156 13zm6.8 11h-5.384l2.691-7.313L31.955 24zM25.4 26h7.29l.737 2H21.84l3.56-2z"></path>
  </symbol>
</svg>