<svg height='100px' width='100px'  fill="#000000" xmlns="http://www.w3.org/2000/svg" xmlns:xlink="http://www.w3.org/1999/xlink" viewBox="0 0 60 55" version="1.1" x="0px" y="0px"><title>3D GUI - Outline - 027 - Text</title><desc>Created with Sketch.</desc><g stroke="none" stroke-width="1" fill="none" fill-rule="evenodd"><g fill-rule="nonzero" fill="#000000"><path d="M0.00732,54.03632 C0.010059342,54.1529589 0.0333248768,54.2682034 0.07605,54.37677 C0.08205,54.39142 0.09105,54.40338 0.09772,54.41766 C0.120460071,54.4715015 0.147899486,54.5232348 0.17972,54.57226 C0.207230451,54.6075116 0.237106022,54.6408518 0.26914,54.67205 C0.28403,54.68829 0.29654,54.70519 0.31247,54.72039 C0.392894671,54.7969226 0.485591783,54.859417 0.5867,54.90527 C0.6077,54.91491 0.62906,54.92132 0.65079,54.9295 C0.761970121,54.9739314 0.880290324,54.9978184 1,55 L9.00708,55 L9.00977,55.00049 C9.0174,55.00049 9.02448,54.99726 9.03211,54.99707 C9.11878598,54.9952204 9.20484837,54.9820488 9.28811,54.95789 C9.3132,54.95057 9.33578,54.93848 9.36025,54.92926 C9.3868,54.91926 9.41125,54.90839 9.4366,54.89626 C9.46022,54.88497 9.48604,54.87941 9.5088,54.86626 L16.44728,50.86626 C16.4565,50.86095 16.46128,50.85155 16.47028,50.846 C16.5741107,50.7839472 16.6656571,50.7033459 16.74036,50.60821 C16.75049,50.59503 16.75464,50.57921 16.76404,50.56561 C16.8142089,50.4977255 16.8554404,50.4236716 16.88672,50.34527 L21.79248,37 L36.73584,37 L43.11328,54.34521 C43.11639,54.35369 43.12274,54.3598 43.12604,54.36816 C43.1403633,54.3972728 43.1561501,54.4256424 43.17334,54.45316 C43.2118294,54.530536 43.2603434,54.602505 43.31763,54.66721 C43.3437163,54.6947091 43.3713939,54.7206537 43.40052,54.74491 C43.462315,54.7988943 43.5306142,54.8449445 43.60383,54.88199 C43.6353675,54.899609 43.667891,54.9154017 43.70124,54.92929 C43.8127762,54.9741513 43.9315606,54.9982898 44.05176,55.00052 L44.05444,55 L52.06152,55 C52.1456779,54.9996704 52.229455,54.9886795 52.31085,54.96729 C52.33557,54.96088 52.35803,54.94861 52.3822,54.94029 C52.4378974,54.9227123 52.4919393,54.9002657 52.5437,54.87321 L52.56055,54.86621 L59.49903,50.86621 C59.5288461,50.8429818 59.5572312,50.8179729 59.58403,50.79132 C59.7961266,50.6406642 59.9369038,50.409388 59.97331,50.15179 C59.9837476,50.0904581 59.988142,50.0282501 59.98643,49.96606 C59.9831615,49.8987852 59.9728723,49.8320362 59.95573,49.7669 C59.9522419,49.7292123 59.9464746,49.6917705 59.93846,49.65478 L41.91698,0.65478 C41.91149,0.63978 41.90056,0.6286 41.8944,0.61407 C41.868349,0.548290326 41.8353238,0.485491784 41.79589,0.42675 L41.78173,0.41082 C41.7609471,0.384976147 41.7388653,0.360204254 41.71557,0.3366 C41.6922349,0.307102989 41.667192,0.278998188 41.64057,0.25243 C41.62928,0.24236 41.61357,0.23821 41.60187,0.22869 C41.541852,0.181412089 41.476532,0.141285102 41.40723,0.10912 C41.3771631,0.0921825573 41.3461937,0.0768998001 41.31446,0.06334 C41.2134231,0.0263213361 41.1070287,0.00601521667 40.99946,0.00322 L40.98242,0 L25.958,0 C25.8397339,0.00246779073 25.7228629,0.0260729456 25.61291,0.0697 C25.58514,0.08001 25.55908,0.09027 25.53253,0.10296 C25.50812,0.1145 25.48153,0.12023 25.45801,0.13378 L18.52149,4.13378 C18.50916,4.14092 18.50135,4.15258 18.48949,4.16015 C18.4473191,4.18868239 18.407426,4.22044441 18.37017,4.25515 C18.34527,4.27694 18.31927,4.29501 18.29662,4.31915 C18.28162,4.3352 18.26647,4.34997 18.25262,4.36688 C18.2162678,4.41514513 18.1843989,4.46662888 18.15741,4.52069 C18.14581,4.54169 18.12964,4.56006 18.11957,4.58185 C18.11402,4.59369 18.10437,4.60254 18.09931,4.61463 C18.09638,4.62163 18.09601,4.62934 18.09331,4.63642 C18.09069,4.64307 18.08562,4.64808 18.08312,4.65479 L0.06164,53.65479 C0.0266377815,53.755171 0.0081280337,53.8605594 0.00683,53.96686 C0.00629,53.97852 0,53.98822 0,54 C0,54.01288 0.00684,54.02356 0.00732,54.03632 Z M15.13464,49.31513 L10.90021,51.756 L16.32568,37 L19.66174,37 L15.13464,49.31513 Z M57.77075,49.55469 L52.59033,52.541 L35.26935,5.44562 L40.44892,2.45856 L57.77075,49.55469 Z M26.22559,2 L37.24023,2 L33.77246,4 L22.75781,4 L26.22559,2 Z M19.71973,6 L33.3418,6 L50.62793,53 L44.74951,53 L38.37207,35.65479 C38.36932,35.64728 38.36298,35.64258 38.36007,35.6352 C38.3276262,35.5649414 38.2869115,35.4988068 38.23879,35.4382 C38.2126676,35.3920473 38.1829736,35.3480096 38.14998,35.30649 C38.0479212,35.2302256 37.9434163,35.1572906 37.83663,35.0878 C37.7891208,35.0722875 37.7405234,35.0603312 37.69124,35.05203 C37.6146577,35.0263319 37.535166,35.0102979 37.45461,35.0043 C37.44714,35.00409 37.441,35 37.43359,35 L15.62793,35 C15.62018,35 15.61383,35.00421 15.60614,35.00439 C15.530183,35.0105947 15.4552223,35.0257326 15.38281,35.04949 C15.3287371,35.0582497 15.2754629,35.071376 15.22351,35.08874 C15.1169676,35.1583393 15.0126681,35.2313129 14.91077,35.30755 C14.8792747,35.3474991 14.8508151,35.3897505 14.82563,35.43395 C14.7762574,35.4957214 14.7345908,35.5632753 14.70155,35.63512 C14.69862,35.64251 14.69221,35.64727 14.68947,35.65477 L8.312,53 L2.43359,53 L19.71973,6 Z"></path><path d="M17.20587,29.02332 C17.2121708,29.0973088 17.2269167,29.1703337 17.24982,29.24097 C17.2586385,29.2964303 17.2720514,29.3510617 17.28992,29.4043 C17.3591805,29.5106412 17.4318277,29.6147379 17.50775,29.71643 C17.5496376,29.7497422 17.5940851,29.7797016 17.64068,29.80603 C17.7006618,29.8536207 17.7660548,29.8939602 17.8355,29.92621 C17.84301,29.92921 17.84783,29.93567 17.8555,29.93848 C17.9661638,29.9794141 18.0832082,30.0004056 18.2012,30.00048 L18.20435,30 L34.85815,30 L34.86132,30.00049 C34.9793118,30.0004156 35.0963562,29.9794241 35.20702,29.93849 C35.21465,29.93568 35.21941,29.92921 35.22692,29.92622 C35.2965028,29.8939391 35.3620217,29.8535383 35.42211,29.80586 C35.4686143,29.7796063 35.5129633,29.7497059 35.55474,29.71644 C35.6306056,29.6147513 35.7032515,29.5106997 35.77257,29.40444 C35.7905827,29.3508725 35.8040765,29.2958903 35.81291,29.24007 C35.8356727,29.1697 35.8503341,29.0969632 35.85661,29.02327 C35.85679,29.01503 35.86131,29.00819 35.86131,28.99995 C35.8355469,28.8858789 35.8150188,28.7706884 35.79979,28.65474 L29.54198,11.65474 C29.53923,11.64723 29.53289,11.64259 29.52998,11.63515 C29.498191,11.5665686 29.4584914,11.5019397 29.41169,11.44258 C29.384632,11.3942978 29.353644,11.3483258 29.31904,11.30513 C29.2169788,11.2292055 29.1125364,11.1565357 29.00587,11.08723 C28.9590634,11.0721378 28.9112293,11.0604408 28.86274,11.05223 C28.7857373,11.0264009 28.7058138,11.0102765 28.62482,11.00423 C28.61731,11.00409 28.61108,11 28.60352,11 L24.458,11 C24.44976,11 24.443,11.00452 24.43481,11.0047 C24.3629314,11.0110438 24.2919798,11.0253515 24.22326,11.04736 C24.1654122,11.0563083 24.1084537,11.0702778 24.05303,11.08911 C23.8817854,11.1512521 23.7397401,11.2748075 23.65447,11.43579 C23.6056602,11.4970502 23.5644283,11.5639815 23.53167,11.63513 C23.52874,11.64258 23.52227,11.64721 23.51952,11.65478 L17.26268,28.65478 C17.2475162,28.7707411 17.2269909,28.8859378 17.20117,29 C17.20117,29.00824 17.20569,29.01508 17.20587,29.02332 Z M25.15552,13 L27.90607,13 L28.19751,13.79175 L24.32727,24.30939 L20.12427,26.67 L25.15552,13 Z M31.95526,24 L26.57214,24 L29.26324,16.68683 L31.95526,24 Z M25.40137,26 L32.69147,26 L33.42768,28 L21.84137,28 L25.40137,26 Z"></path></g></g></svg>