<svg xmlns="http://www.w3.org/2000/svg" viewBox="0 0 521.78 450.53"><g id="Calque_3" data-name="Calque 3"><path d="M238.11,211.24,215,279.9l-50.47-150h15.13a7,7,0,1,0,0-14H129.18A172.3,172.3,0,0,1,350.7,87.56c-12.3,2.76-22.08,14-24.89,28.37a43.89,43.89,0,0,0-.83,8.52,44.91,44.91,0,0,0,.35,5.48,41.23,41.23,0,0,0,6.14,17.29h0A36.67,36.67,0,0,0,335,151.8c6.6,9.41,19.71,32.24,13.51,58l-23.6,70.11L280.2,147.16l-5.8-17.23h15.13a7,7,0,0,0,0-14H213.45a7,7,0,0,0,0,14h14.22L257,212.65l-54.93,155L117.82,129.93h-.1a172.27,172.27,0,1,0,278.21.64l-84,237.07-44.29-125" fill="none" stroke="#000" stroke-linecap="round" stroke-linejoin="round" stroke-width="5"/></g></svg>